<?xml version="1.0" standalone="no"?>
<!DOCTYPE svg PUBLIC "-//W3C//DTD SVG 1.1//EN" "http://www.w3.org/Graphics/SVG/1.1/DTD/svg11.dtd" >
<svg xmlns="http://www.w3.org/2000/svg" xmlns:xlink="http://www.w3.org/1999/xlink" version="1.1">
<metadata>
Created by FontForge 20170910 at Tue Apr 14 16:32:29 2015
 By Jimmy Wärting
(c) 2015 Microsoft Corporation (www.microsoft.com), with Reserved Font Name Selawik. Selawik is a trademark of Microsoft Corporation in the United States and/or other countries.
</metadata>
<defs>
<font id="Selawik-Semilight" horiz-adv-x="0" >
  <font-face 
    font-family="Selawik Semilight"
    font-weight="300"
    font-stretch="normal"
    units-per-em="2048"
    panose-1="2 11 4 2 4 2 4 2 2 3"
    ascent="1638"
    descent="-410"
    x-height="974"
    cap-height="1434"
    bbox="-805 -606 2380 1976"
    underline-thickness="50"
    underline-position="-100"
    unicode-range="U+000D-2122"
  />
<missing-glyph horiz-adv-x="1322" 
 />
    <glyph glyph-name=".notdef" horiz-adv-x="1322" 
 />
    <glyph glyph-name="space" unicode=" " horiz-adv-x="561" 
 />
    <glyph glyph-name="A" unicode="A" horiz-adv-x="1305" 
d="M994 327h-685l-119 -327h-148l545 1434h133l545 -1434h-151zM949 448l-273 744q-4 16 -11 44.5t-12 51.5h-4q-2 -15 -11 -51t-13 -45l-272 -744h596z" />
    <glyph glyph-name="Aacute" unicode="&#xc1;" horiz-adv-x="1305" 
d="M729 1613h-143l228 213h170zM994 327h-685l-119 -327h-148l545 1434h133l545 -1434h-151zM949 448l-273 744q-4 16 -11 44.5t-12 51.5h-4q-2 -15 -11 -51t-13 -45l-272 -744h596z" />
    <glyph glyph-name="Abreve" unicode="&#x102;" horiz-adv-x="1305" 
d="M444.5 1641.5q-75.5 53.5 -83.5 150.5h130q5 -47 47 -73.5t112 -26.5q67 0 109.5 26.5t51.5 73.5h133q-15 -98 -92 -151t-204 -53q-128 0 -203.5 53.5zM994 327h-685l-119 -327h-148l545 1434h133l545 -1434h-151zM949 448l-273 744q-4 16 -11 44.5t-12 51.5h-4
q-2 -15 -11 -51t-13 -45l-272 -744h596z" />
    <glyph glyph-name="Acircumflex" unicode="&#xc2;" horiz-adv-x="1305" 
d="M501 1597h-153l273 220h89l273 -220h-159l-161 125zM994 327h-685l-119 -327h-148l545 1434h133l545 -1434h-151zM949 448l-273 744q-4 16 -11 44.5t-12 51.5h-4q-2 -15 -11 -51t-13 -45l-272 -744h596z" />
    <glyph glyph-name="Adieresis" unicode="&#xc4;" horiz-adv-x="1305" 
d="M402.5 1613q-29.5 29 -29.5 71q0 41 29 69t69 28q41 0 71.5 -28t30.5 -69q0 -42 -29.5 -71t-70.5 -29t-70.5 29zM762.5 1612.5q-29.5 28.5 -29.5 71.5q0 41 28.5 69t68.5 28q42 0 72 -28t30 -69q0 -42 -29 -71t-71 -29q-40 0 -69.5 28.5zM994 327h-685l-119 -327h-148
l545 1434h133l545 -1434h-151zM949 448l-273 744q-4 16 -11 44.5t-12 51.5h-4q-2 -15 -11 -51t-13 -45l-272 -744h596z" />
    <glyph glyph-name="Agrave" unicode="&#xc0;" horiz-adv-x="1305" 
d="M589 1597l-235 225h153l208 -225h-126zM994 327h-685l-119 -327h-148l545 1434h133l545 -1434h-151zM949 448l-273 744q-4 16 -11 44.5t-12 51.5h-4q-2 -15 -11 -51t-13 -45l-272 -744h596z" />
    <glyph glyph-name="Amacron" unicode="&#x100;" horiz-adv-x="1305" 
d="M978 1600h-640v115h640v-115zM994 327h-685l-119 -327h-148l545 1434h133l545 -1434h-151zM949 448l-273 744q-4 16 -11 44.5t-12 51.5h-4q-2 -15 -11 -51t-13 -45l-272 -744h596z" />
    <glyph glyph-name="Aogonek" unicode="&#x104;" horiz-adv-x="1305" 
d="M1221 -289l13 -100q-36 -11 -98 -11q-101 0 -154 42.5t-53 124.5q0 52 28 100t70.5 83t83.5 50h3l-120 327h-685l-119 -327h-148l545 1434h133l545 -1434q-67 -22 -118 -56t-78 -72.5t-27 -73.5q0 -46 29 -70t85 -24q27 0 65 7zM949 448l-273 744q-4 16 -11 44.5
t-12 51.5h-4q-2 -15 -11 -51t-13 -45l-272 -744h596z" />
    <glyph glyph-name="Aring" unicode="&#xc5;" horiz-adv-x="1305" 
d="M548 1559.5q-46 24.5 -72.5 67.5t-26.5 95q0 54 27 97.5t73.5 68.5t104.5 25q57 0 103 -24.5t72.5 -67.5t26.5 -96t-27 -96.5t-73.5 -68.5t-104.5 -25q-57 0 -103 24.5zM578 1795.5q-30 -28.5 -30 -71.5q0 -42 30 -70.5t75 -28.5q46 0 76.5 28.5t30.5 70.5
q0 43 -30.5 71.5t-76.5 28.5q-45 0 -75 -28.5zM994 327h-685l-119 -327h-148l545 1434h133l545 -1434h-151zM949 448l-273 744q-4 16 -11 44.5t-12 51.5h-4q-2 -15 -11 -51t-13 -45l-272 -744h596z" />
    <glyph glyph-name="Atilde" unicode="&#xc3;" horiz-adv-x="1305" 
d="M454.5 1689.5q-20.5 -28.5 -20.5 -89.5h-98q0 113 46.5 173.5t137.5 60.5q40 0 73 -18t77 -53q37 -30 62.5 -45t54.5 -15q41 0 60.5 29t19.5 91h101q0 -114 -45.5 -174.5t-132.5 -60.5q-38 0 -71.5 18t-78.5 52q-38 30 -65.5 45t-55.5 15q-44 0 -64.5 -28.5zM994 327
h-685l-119 -327h-148l545 1434h133l545 -1434h-151zM949 448l-273 744q-4 16 -11 44.5t-12 51.5h-4q-2 -15 -11 -51t-13 -45l-272 -744h596z" />
    <glyph glyph-name="AE" unicode="&#xc6;" horiz-adv-x="1734" 
d="M1608 121v-121h-732v327h-531l-176 -327h-149l781 1434h775v-121h-566v-526h504v-121h-504v-545h598zM876 448v862l-466 -862h466z" />
    <glyph glyph-name="B" unicode="B" horiz-adv-x="1144" 
d="M186 1v1434h410q104 0 185.5 -39t127.5 -113t46 -176q0 -123 -53.5 -212.5t-149.5 -127.5v-4q87 -11 150.5 -57.5t98 -122t34.5 -171.5q0 -124 -56.5 -218t-154 -144.5t-218.5 -49.5zM529 804q133 0 210 69t77 201q0 127 -69 183t-198 56h-229v-509h209zM586 122
q144 0 227.5 75t83.5 218q0 269 -347 269h-229v-562h265z" />
    <glyph glyph-name="C" unicode="C" horiz-adv-x="1270" 
d="M389.5 66q-140.5 86 -214.5 250.5t-74 396.5q0 236 85 404t247.5 255.5t391.5 87.5q154 0 324 -44l-37 -127q-53 19 -143 30t-164 11q-176 0 -302.5 -73t-192.5 -210t-66 -326q0 -192 59.5 -330.5t174 -212t274.5 -73.5q158 0 384 79l44 -119q-94 -36 -216.5 -60.5
t-234.5 -24.5q-199 0 -339.5 86z" />
    <glyph glyph-name="Cacute" unicode="&#x106;" horiz-adv-x="1270" 
d="M876 1811h170l-255 -213h-143zM389.5 66q-140.5 86 -214.5 250.5t-74 396.5q0 236 85 404t247.5 255.5t391.5 87.5q154 0 324 -44l-37 -127q-53 19 -143 30t-164 11q-176 0 -302.5 -73t-192.5 -210t-66 -326q0 -192 59.5 -330.5t174 -212t274.5 -73.5q158 0 384 79
l44 -119q-94 -36 -216.5 -60.5t-234.5 -24.5q-199 0 -339.5 86z" />
    <glyph glyph-name="Ccaron" unicode="&#x10c;" horiz-adv-x="1270" 
d="M394 1817h160l161 -136l162 136h156l-273 -235h-88zM389.5 66q-140.5 86 -214.5 250.5t-74 396.5q0 236 85 404t247.5 255.5t391.5 87.5q154 0 324 -44l-37 -127q-53 19 -143 30t-164 11q-176 0 -302.5 -73t-192.5 -210t-66 -326q0 -192 59.5 -330.5t174 -212
t274.5 -73.5q158 0 384 79l44 -119q-94 -36 -216.5 -60.5t-234.5 -24.5q-199 0 -339.5 86z" />
    <glyph glyph-name="Ccedilla" unicode="&#xc7;" horiz-adv-x="1270" 
d="M885.5 -114.5q60.5 -43.5 60.5 -125.5q0 -193 -279 -193q-37 0 -73 3v102q46 -6 78 -6q151 0 151 86q0 84 -137 84q-23 0 -46 -4v153q-171 18 -292 109t-184 248t-63 371q0 236 85 404t247.5 255.5t391.5 87.5q154 0 324 -44l-37 -127q-53 19 -143 30t-164 11
q-176 0 -302.5 -73t-192.5 -210t-66 -326q0 -192 59.5 -330.5t174 -212t274.5 -73.5q158 0 384 79l44 -119q-94 -36 -216.5 -60.5t-234.5 -24.5h-16v-51q112 0 172.5 -43.5z" />
    <glyph glyph-name="Cdotaccent" unicode="&#x10a;" horiz-adv-x="1270" 
d="M641 1603.5q-32 31.5 -32 76.5q0 44 31 73t75 29t75.5 -29t31.5 -73q0 -45 -31 -76.5t-75 -31.5q-43 0 -75 31.5zM389.5 66q-140.5 86 -214.5 250.5t-74 396.5q0 236 85 404t247.5 255.5t391.5 87.5q154 0 324 -44l-37 -127q-53 19 -143 30t-164 11q-176 0 -302.5 -73
t-192.5 -210t-66 -326q0 -192 59.5 -330.5t174 -212t274.5 -73.5q158 0 384 79l44 -119q-94 -36 -216.5 -60.5t-234.5 -24.5q-199 0 -339.5 86z" />
    <glyph glyph-name="D" unicode="D" horiz-adv-x="1408" 
d="M186 1432h397q359 0 541 -171.5t182 -526.5q0 -224 -92 -389.5t-259 -255t-387 -89.5l-382 -2v1434zM570 119q188 0 322 71.5t204 208t70 329.5q0 584 -587 584l-259 -2v-1191h250z" />
    <glyph glyph-name="Eth" unicode="&#xd0;" horiz-adv-x="1408" 
d="M186 1432h397q359 0 541 -171.5t182 -526.5q0 -224 -92 -389.5t-259 -255t-387 -89.5l-382 -2v1434zM570 119q188 0 322 71.5t204 208t70 329.5q0 584 -587 584l-259 -2v-1191h250zM106 744h573v-114h-573v114z" />
    <glyph glyph-name="Dcaron" unicode="&#x10e;" horiz-adv-x="1408" 
d="M333 1817h160l161 -136l162 136h156l-273 -235h-88zM186 1432h397q359 0 541 -171.5t182 -526.5q0 -224 -92 -389.5t-259 -255t-387 -89.5l-382 -2v1434zM570 119q188 0 322 71.5t204 208t70 329.5q0 584 -587 584l-259 -2v-1191h250z" />
    <glyph glyph-name="Dcroat" unicode="&#x110;" horiz-adv-x="1408" 
d="M186 1432h397q359 0 541 -171.5t182 -526.5q0 -224 -92 -389.5t-259 -255t-387 -89.5l-382 -2v1434zM570 119q188 0 322 71.5t204 208t70 329.5q0 584 -587 584l-259 -2v-1191h250zM106 744h573v-114h-573v114z" />
    <glyph glyph-name="E" unicode="E" horiz-adv-x="1030" 
d="M186 1434h700v-121h-566v-526h504v-121h-504v-545h598v-121h-732v1434z" />
    <glyph glyph-name="Eacute" unicode="&#xc9;" horiz-adv-x="1030" 
d="M696 1811h170l-255 -213h-143zM186 1434h700v-121h-566v-526h504v-121h-504v-545h598v-121h-732v1434z" />
    <glyph glyph-name="Ecaron" unicode="&#x11a;" horiz-adv-x="1030" 
d="M214 1817h160l161 -136l162 136h156l-273 -235h-88zM186 1434h700v-121h-566v-526h504v-121h-504v-545h598v-121h-732v1434z" />
    <glyph glyph-name="Ecircumflex" unicode="&#xca;" horiz-adv-x="1030" 
d="M503 1802h89l273 -220h-159l-161 125l-162 -125h-153zM186 1434h700v-121h-566v-526h504v-121h-504v-545h598v-121h-732v1434z" />
    <glyph glyph-name="Edieresis" unicode="&#xcb;" horiz-adv-x="1030" 
d="M285.5 1598q-29.5 29 -29.5 71q0 41 29 69t69 28q41 0 71.5 -28t30.5 -69q0 -42 -29.5 -71t-70.5 -29t-70.5 29zM645.5 1597.5q-29.5 28.5 -29.5 71.5q0 41 28.5 69t68.5 28q42 0 72 -28t30 -69q0 -42 -29 -71t-71 -29q-40 0 -69.5 28.5zM186 1434h700v-121h-566v-526
h504v-121h-504v-545h598v-121h-732v1434z" />
    <glyph glyph-name="Edotaccent" unicode="&#x116;" horiz-adv-x="1030" 
d="M461 1603.5q-32 31.5 -32 76.5q0 44 31 73t75 29t75.5 -29t31.5 -73q0 -45 -31 -76.5t-75 -31.5q-43 0 -75 31.5zM186 1434h700v-121h-566v-526h504v-121h-504v-545h598v-121h-732v1434z" />
    <glyph glyph-name="Egrave" unicode="&#xc8;" horiz-adv-x="1030" 
d="M237 1807h153l208 -225h-126zM186 1434h700v-121h-566v-526h504v-121h-504v-545h598v-121h-732v1434z" />
    <glyph glyph-name="Emacron" unicode="&#x112;" horiz-adv-x="1030" 
d="M220 1700h640v-115h-640v115zM186 1434h700v-121h-566v-526h504v-121h-504v-545h598v-121h-732v1434z" />
    <glyph glyph-name="Eogonek" unicode="&#x118;" horiz-adv-x="1030" 
d="M932 -389q-35 -11 -98 -11q-101 0 -154 42.5t-53 124.5q0 52 28 100t70.5 83t83.5 50h-623v1434h700v-121h-566v-526h504v-121h-504v-545h598v-121h1q-54 -22 -94.5 -56t-62.5 -72.5t-22 -73.5q0 -46 29.5 -70t84.5 -24q27 0 65 7z" />
    <glyph glyph-name="F" unicode="F" horiz-adv-x="976" 
d="M186 1434h699v-121h-565v-541h503v-120h-503v-652h-134v1434z" />
    <glyph glyph-name="G" unicode="G" horiz-adv-x="1387" 
d="M414.5 63q-152.5 85 -232.5 247t-80 390q0 240 86.5 410.5t252 259.5t397.5 89q92 0 196 -13.5t198 -32.5l-40 -120q-88 17 -188.5 29.5t-183.5 12.5q-184 0 -314 -73t-198 -213t-68 -338q0 -194 66 -332t191.5 -210.5t302.5 -72.5q85 0 165.5 20.5t142.5 57.5v431h-360
v121h493l1 -626q-98 -58 -218.5 -90t-242.5 -32q-214 0 -366.5 85z" />
    <glyph glyph-name="Gbreve" unicode="&#x11e;" horiz-adv-x="1387" 
d="M560.5 1626.5q-75.5 53.5 -83.5 150.5h130q5 -47 47 -73.5t112 -26.5q67 0 109.5 26.5t51.5 73.5h133q-15 -98 -92 -151t-204 -53q-128 0 -203.5 53.5zM414.5 63q-152.5 85 -232.5 247t-80 390q0 240 86.5 410.5t252 259.5t397.5 89q92 0 196 -13.5t198 -32.5l-40 -120
q-88 17 -188.5 29.5t-183.5 12.5q-184 0 -314 -73t-198 -213t-68 -338q0 -194 66 -332t191.5 -210.5t302.5 -72.5q85 0 165.5 20.5t142.5 57.5v431h-360v121h493l1 -626q-98 -58 -218.5 -90t-242.5 -32q-214 0 -366.5 85z" />
    <glyph glyph-name="uni0122" unicode="&#x122;" horiz-adv-x="1387" 
d="M414.5 63q-152.5 85 -232.5 247t-80 390q0 240 86.5 410.5t252 259.5t397.5 89q92 0 196 -13.5t198 -32.5l-40 -120q-88 17 -188.5 29.5t-183.5 12.5q-184 0 -314 -73t-198 -213t-68 -338q0 -194 66 -332t191.5 -210.5t302.5 -72.5q85 0 165.5 20.5t142.5 57.5v431h-360
v121h493l1 -626q-98 -58 -218.5 -90t-242.5 -32q-214 0 -366.5 85zM572 -396q35 89 47.5 147.5t15.5 134.5h129q-4 -86 -29 -178.5t-69 -163.5z" />
    <glyph glyph-name="Gdotaccent" unicode="&#x120;" horiz-adv-x="1387" 
d="M694 1603.5q-32 31.5 -32 76.5q0 44 31 73t75 29t75.5 -29t31.5 -73q0 -45 -31 -76.5t-75 -31.5q-43 0 -75 31.5zM414.5 63q-152.5 85 -232.5 247t-80 390q0 240 86.5 410.5t252 259.5t397.5 89q92 0 196 -13.5t198 -32.5l-40 -120q-88 17 -188.5 29.5t-183.5 12.5
q-184 0 -314 -73t-198 -213t-68 -338q0 -194 66 -332t191.5 -210.5t302.5 -72.5q85 0 165.5 20.5t142.5 57.5v431h-360v121h493l1 -626q-98 -58 -218.5 -90t-242.5 -32q-214 0 -366.5 85z" />
    <glyph glyph-name="H" unicode="H" horiz-adv-x="1420" 
d="M186 1434h134v-660h781v660h133v-1434h-133v654h-781v-654h-134v1434z" />
    <glyph glyph-name="Hbar" unicode="&#x126;" horiz-adv-x="1420" 
d="M1376 1007h-142v-1007h-133v654h-781v-654h-134v1007h-141v121h141v306h134v-306h781v306h133v-306h142v-121zM1101 1007h-781v-233h781v233z" />
    <glyph glyph-name="I" unicode="I" horiz-adv-x="506" 
d="M188 1434h132v-1434h-132v1434z" />
    <glyph glyph-name="IJ" unicode="&#x132;" horiz-adv-x="1214" 
d="M188 1434h132v-1434h-132v1434zM590 -357q109 14 174.5 41.5t104.5 97t39 199.5v1453h129v-1454q0 -238 -115.5 -344.5t-315.5 -117.5z" />
    <glyph glyph-name="Iacute" unicode="&#xcd;" horiz-adv-x="506" 
d="M415 1806h170l-255 -213h-143zM188 1434h132v-1434h-132v1434z" />
    <glyph glyph-name="Icircumflex" unicode="&#xce;" horiz-adv-x="506" 
d="M222 1797h89l273 -220h-159l-161 125l-162 -125h-153zM188 1434h132v-1434h-132v1434z" />
    <glyph glyph-name="Idieresis" unicode="&#xcf;" horiz-adv-x="506" 
d="M3 1593q-30 29 -30 71q0 41 29.5 69t69.5 28q41 0 71.5 -28t30.5 -69q0 -42 -29.5 -71t-70.5 -29t-71 29zM363.5 1592.5q-29.5 28.5 -29.5 71.5q0 41 28.5 69t68.5 28q42 0 72 -28t30 -69q0 -42 -29 -71t-71 -29q-40 0 -69.5 28.5zM188 1434h132v-1434h-132v1434z" />
    <glyph glyph-name="Idotaccent" unicode="&#x130;" horiz-adv-x="506" 
d="M180 1598.5q-32 31.5 -32 76.5q0 44 31 73t75 29t75.5 -29t31.5 -73q0 -45 -31 -76.5t-75 -31.5q-43 0 -75 31.5zM188 1434h132v-1434h-132v1434z" />
    <glyph glyph-name="Igrave" unicode="&#xcc;" horiz-adv-x="506" 
d="M-46 1802h154l208 -225h-126zM188 1434h132v-1434h-132v1434z" />
    <glyph glyph-name="Imacron" unicode="&#x12a;" horiz-adv-x="506" 
d="M-61 1695h640v-115h-640v115zM188 1434h132v-1434h-132v1434z" />
    <glyph glyph-name="Iogonek" unicode="&#x12e;" horiz-adv-x="506" 
d="M362 -389q-35 -11 -98 -11q-101 0 -154 42.5t-53 124.5q0 52 28 100t70.5 83t83.5 50h-51v1434h132v-1434h29q-54 -22 -94.5 -56t-62.5 -72.5t-22 -73.5q0 -46 29.5 -70t84.5 -24q26 0 65 7z" />
    <glyph glyph-name="J" unicode="J" horiz-adv-x="698" 
d="M74 -357q109 14 174.5 41.5t104.5 97t39 199.5v1453h129v-1454q0 -238 -115.5 -344.5t-315.5 -117.5z" />
    <glyph glyph-name="K" unicode="K" horiz-adv-x="1134" 
d="M538 769l-218 -267v-502h-133v1434h133v-728q31 37 29 35q31 39 65 80l539 658l150 -20l-465 -568l480 -891h-161z" />
    <glyph glyph-name="uni0136" unicode="&#x136;" horiz-adv-x="1134" 
d="M1118 0h-161l-419 769l-218 -267v-502h-133v1434h133v-728q31 37 29 35q31 39 65 80l539 658l150 -20l-465 -568zM492.5 -248.5q12.5 58.5 15.5 134.5h129q-4 -86 -29 -178.5t-69 -163.5l-94 60q35 89 47.5 147.5z" />
    <glyph glyph-name="L" unicode="L" horiz-adv-x="951" 
d="M186 1434h134v-1313h575v-121h-709v1434z" />
    <glyph glyph-name="Lacute" unicode="&#x139;" horiz-adv-x="951" 
d="M412 1796h170l-255 -213h-143zM186 1434h134v-1313h575v-121h-709v1434z" />
    <glyph glyph-name="Lcaron" unicode="&#x13d;" horiz-adv-x="951" 
d="M186 1434h134v-1313h575v-121h-709v1434zM877 1976h149l-119 -292h-68z" />
    <glyph glyph-name="uni013B" unicode="&#x13b;" horiz-adv-x="951" 
d="M186 1434h134v-1313h575v-121h-709v1434zM354 -396q35 89 47.5 147.5t15.5 134.5h129q-4 -86 -29 -178.5t-69 -163.5z" />
    <glyph glyph-name="Ldot" unicode="&#x13f;" horiz-adv-x="951" 
d="M186 1434h134v-1313h575v-121h-709v1434zM620 654.5q-27 27.5 -27 71.5q0 43 27 70.5t70 27.5t70 -27.5t27 -70.5q0 -44 -27 -71.5t-70 -27.5t-70 27.5z" />
    <glyph glyph-name="Lslash" unicode="&#x141;" horiz-adv-x="951" 
d="M895 121v-121h-709v557l-134 -82v124l134 83v752h134v-670l347 213v-125l-347 -213v-518h575z" />
    <glyph glyph-name="M" unicode="M" horiz-adv-x="1773" 
d="M186 1434h157l490 -1079q13 -28 29 -73t24 -72h6l14 40q23 72 39 106l492 1078h149v-1434h-129v953q0 156 11 278h-4q-12 -41 -44 -119l-504 -1112h-57l-513 1124q-19 41 -32 100h-4q5 -61 5 -292v-932h-129v1434z" />
    <glyph glyph-name="N" unicode="N" horiz-adv-x="1492" 
d="M186 1435h146l788 -1140q13 -19 32 -57t29 -59h4q-5 37 -8 104t-3 126v1025h132l1 -1434h-142l-796 1155q-23 33 -52 110h-6q4 -21 6 -88.5t2 -129.5v-1047h-133v1435z" />
    <glyph glyph-name="Nacute" unicode="&#x143;" horiz-adv-x="1492" 
d="M907 1806h170l-255 -213h-143zM186 1435h146l788 -1140q13 -19 32 -57t29 -59h4q-5 37 -8 104t-3 126v1025h132l1 -1434h-142l-796 1155q-23 33 -52 110h-6q4 -21 6 -88.5t2 -129.5v-1047h-133v1435z" />
    <glyph glyph-name="Ncaron" unicode="&#x147;" horiz-adv-x="1492" 
d="M425 1812h160l161 -136l162 136h156l-273 -235h-88zM186 1435h146l788 -1140q13 -19 32 -57t29 -59h4q-5 37 -8 104t-3 126v1025h132l1 -1434h-142l-796 1155q-23 33 -52 110h-6q4 -21 6 -88.5t2 -129.5v-1047h-133v1435z" />
    <glyph glyph-name="uni0145" unicode="&#x145;" horiz-adv-x="1492" 
d="M186 1435h146l788 -1140q13 -19 32 -57t29 -59h4q-5 37 -8 104t-3 126v1025h132l1 -1434h-142l-796 1155q-23 33 -52 110h-6q4 -21 6 -88.5t2 -129.5v-1047h-133v1435zM624 -396q35 89 47.5 147.5t15.5 134.5h129q-4 -86 -29 -178.5t-69 -163.5z" />
    <glyph glyph-name="Eng" unicode="&#x14a;" horiz-adv-x="1488" 
d="M1307 11l-1 -3l1 -8h-1q-2 -243 -123 -357t-326 -125l-16 120q126 18 197 61.5t102 119t35 196.5l-806 1140q-23 33 -52 110h-6q4 -21 6 -88.5t2 -129.5v-1047h-133v1435h146l788 -1110q13 -19 32.5 -57t28.5 -59h4q-5 37 -8 104t-3 126v995h132v-1340h1v-83z" />
    <glyph glyph-name="Ntilde" unicode="&#xd1;" horiz-adv-x="1492" 
d="M812.5 1586q-33.5 18 -78.5 52q-38 30 -65.5 45t-55.5 15q-44 0 -64.5 -28.5t-20.5 -89.5h-98q0 113 46.5 173.5t137.5 60.5q40 0 73 -18t77 -53q37 -30 62.5 -45t54.5 -15q41 0 60.5 29t19.5 91h101q0 -114 -45.5 -174.5t-132.5 -60.5q-38 0 -71.5 18zM186 1435h146
l788 -1140q13 -19 32 -57t29 -59h4q-5 37 -8 104t-3 126v1025h132l1 -1434h-142l-796 1155q-23 33 -52 110h-6q4 -21 6 -88.5t2 -129.5v-1047h-133v1435z" />
    <glyph glyph-name="O" unicode="O" horiz-adv-x="1552" 
d="M416.5 68.5q-151.5 93.5 -233.5 260.5t-82 383q0 218 82 387t233.5 263.5t353.5 94.5q207 0 361.5 -94.5t236.5 -263.5t81 -387q0 -216 -82.5 -383t-236.5 -260.5t-360 -93.5q-202 0 -353.5 93.5zM1055.5 175.5q120.5 75.5 184 214.5t63.5 323q0 186 -64 325.5
t-184.5 216.5t-284.5 77q-162 0 -281 -77t-182 -217t-63 -326q0 -184 63 -322.5t182 -214t281 -75.5q165 0 285.5 75.5z" />
    <glyph glyph-name="Oacute" unicode="&#xd3;" horiz-adv-x="1552" 
d="M937 1811h170l-255 -213h-143zM416.5 68.5q-151.5 93.5 -233.5 260.5t-82 383q0 218 82 387t233.5 263.5t353.5 94.5q207 0 361.5 -94.5t236.5 -263.5t81 -387q0 -216 -82.5 -383t-236.5 -260.5t-360 -93.5q-202 0 -353.5 93.5zM1055.5 175.5q120.5 75.5 184 214.5
t63.5 323q0 186 -64 325.5t-184.5 216.5t-284.5 77q-162 0 -281 -77t-182 -217t-63 -326q0 -184 63 -322.5t182 -214t281 -75.5q165 0 285.5 75.5z" />
    <glyph glyph-name="Ocircumflex" unicode="&#xd4;" horiz-adv-x="1552" 
d="M744 1802h89l273 -220h-159l-161 125l-162 -125h-153zM416.5 68.5q-151.5 93.5 -233.5 260.5t-82 383q0 218 82 387t233.5 263.5t353.5 94.5q207 0 361.5 -94.5t236.5 -263.5t81 -387q0 -216 -82.5 -383t-236.5 -260.5t-360 -93.5q-202 0 -353.5 93.5zM1055.5 175.5
q120.5 75.5 184 214.5t63.5 323q0 186 -64 325.5t-184.5 216.5t-284.5 77q-162 0 -281 -77t-182 -217t-63 -326q0 -184 63 -322.5t182 -214t281 -75.5q165 0 285.5 75.5z" />
    <glyph glyph-name="Odieresis" unicode="&#xd6;" horiz-adv-x="1552" 
d="M526.5 1598q-29.5 29 -29.5 71q0 41 29 69t69 28q41 0 71.5 -28t30.5 -69q0 -42 -29.5 -71t-70.5 -29t-70.5 29zM886.5 1597.5q-29.5 28.5 -29.5 71.5q0 41 28.5 69t68.5 28q42 0 72 -28t30 -69q0 -42 -29 -71t-71 -29q-40 0 -69.5 28.5zM416.5 68.5
q-151.5 93.5 -233.5 260.5t-82 383q0 218 82 387t233.5 263.5t353.5 94.5q207 0 361.5 -94.5t236.5 -263.5t81 -387q0 -216 -82.5 -383t-236.5 -260.5t-360 -93.5q-202 0 -353.5 93.5zM1055.5 175.5q120.5 75.5 184 214.5t63.5 323q0 186 -64 325.5t-184.5 216.5t-284.5 77
q-162 0 -281 -77t-182 -217t-63 -326q0 -184 63 -322.5t182 -214t281 -75.5q165 0 285.5 75.5z" />
    <glyph glyph-name="Ograve" unicode="&#xd2;" horiz-adv-x="1552" 
d="M478 1807h153l208 -225h-126zM416.5 68.5q-151.5 93.5 -233.5 260.5t-82 383q0 218 82 387t233.5 263.5t353.5 94.5q207 0 361.5 -94.5t236.5 -263.5t81 -387q0 -216 -82.5 -383t-236.5 -260.5t-360 -93.5q-202 0 -353.5 93.5zM1055.5 175.5q120.5 75.5 184 214.5
t63.5 323q0 186 -64 325.5t-184.5 216.5t-284.5 77q-162 0 -281 -77t-182 -217t-63 -326q0 -184 63 -322.5t182 -214t281 -75.5q165 0 285.5 75.5z" />
    <glyph glyph-name="Ohungarumlaut" unicode="&#x150;" horiz-adv-x="1552" 
d="M754 1791h145l-214 -208h-110zM1011 1791h147l-216 -208h-111zM416.5 68.5q-151.5 93.5 -233.5 260.5t-82 383q0 218 82 387t233.5 263.5t353.5 94.5q207 0 361.5 -94.5t236.5 -263.5t81 -387q0 -216 -82.5 -383t-236.5 -260.5t-360 -93.5q-202 0 -353.5 93.5z
M1055.5 175.5q120.5 75.5 184 214.5t63.5 323q0 186 -64 325.5t-184.5 216.5t-284.5 77q-162 0 -281 -77t-182 -217t-63 -326q0 -184 63 -322.5t182 -214t281 -75.5q165 0 285.5 75.5z" />
    <glyph glyph-name="Omacron" unicode="&#x14c;" horiz-adv-x="1552" 
d="M461 1700h640v-115h-640v115zM416.5 68.5q-151.5 93.5 -233.5 260.5t-82 383q0 218 82 387t233.5 263.5t353.5 94.5q207 0 361.5 -94.5t236.5 -263.5t81 -387q0 -216 -82.5 -383t-236.5 -260.5t-360 -93.5q-202 0 -353.5 93.5zM1055.5 175.5q120.5 75.5 184 214.5
t63.5 323q0 186 -64 325.5t-184.5 216.5t-284.5 77q-162 0 -281 -77t-182 -217t-63 -326q0 -184 63 -322.5t182 -214t281 -75.5q165 0 285.5 75.5z" />
    <glyph glyph-name="Oslash" unicode="&#xd8;" horiz-adv-x="1552" 
d="M1400.5 1019.5q49.5 -140.5 48.5 -307.5q0 -216 -82.5 -383t-236.5 -260.5t-360 -93.5q-135 0 -248.5 42.5t-200.5 122.5l-161 -193l-71 58l170 203q-77 97 -117.5 225t-40.5 279q0 218 82 387t233.5 263.5t353.5 94.5q124 0 230 -35t190 -101l143 171l71 -58l-146 -175
q93 -99 142.5 -239.5zM348 315l756 904q-66 55 -150 84t-184 29q-162 0 -281 -77t-182 -217t-63 -326q0 -239 104 -397zM1054.5 175.5q120.5 75.5 184.5 213.5t64 321q0 136 -34 248.5t-100 194.5l-762 -911q68 -69 159.5 -105.5t203.5 -36.5q164 0 284.5 75.5z" />
    <glyph glyph-name="Otilde" unicode="&#xd5;" horiz-adv-x="1552" 
d="M842.5 1591q-33.5 18 -78.5 52q-38 30 -65.5 45t-55.5 15q-44 0 -64.5 -28.5t-20.5 -89.5h-98q0 113 46.5 173.5t137.5 60.5q40 0 73 -18t77 -53q37 -30 62.5 -45t54.5 -15q41 0 60.5 29t19.5 91h101q0 -114 -45.5 -174.5t-132.5 -60.5q-38 0 -71.5 18zM416.5 68.5
q-151.5 93.5 -233.5 260.5t-82 383q0 218 82 387t233.5 263.5t353.5 94.5q207 0 361.5 -94.5t236.5 -263.5t81 -387q0 -216 -82.5 -383t-236.5 -260.5t-360 -93.5q-202 0 -353.5 93.5zM1055.5 175.5q120.5 75.5 184 214.5t63.5 323q0 186 -64 325.5t-184.5 216.5t-284.5 77
q-162 0 -281 -77t-182 -217t-63 -326q0 -184 63 -322.5t182 -214t281 -75.5q165 0 285.5 75.5z" />
    <glyph glyph-name="OE" unicode="&#x152;" horiz-adv-x="1921" 
d="M1795 121v-121h-656q-52 0 -157 -11q-136 -14 -222 -14q-199 0 -348 93.5t-230 260.5t-81 383q0 218 86.5 387t246 263.5t371.5 94.5q47 0 99.5 -4t98.5 -9q100 -10 136 -10h624v-121h-566v-526h504v-121h-504v-545h598zM306 389.5q62 -138.5 178.5 -214t275.5 -75.5
q173 0 304 32v1170q-112 30 -259 30q-173 0 -299.5 -77t-194 -217t-67.5 -326q0 -184 62 -322.5z" />
    <glyph glyph-name="P" unicode="P" horiz-adv-x="1131" 
d="M187 1434h394q138 0 238 -49t153.5 -145t53.5 -234q0 -136 -62 -237t-172 -155.5t-250 -54.5h-221v-559h-134v1434zM530 680q168 0 263 80.5t95 237.5q0 164 -86 240t-250 76l-232 -1v-633h210z" />
    <glyph glyph-name="Thorn" unicode="&#xde;" horiz-adv-x="1131" 
d="M819 1120q100 -49 153.5 -145t53.5 -234q0 -136 -62 -237t-172 -155.5t-250 -54.5h-221v-294h-134v1434h133v-265h261q138 0 238 -49zM793 495.5q95 80.5 95 237.5q0 164 -86 240t-250 76l-232 -1v-633h210q168 0 263 80.5z" />
    <glyph glyph-name="Q" unicode="Q" horiz-adv-x="1544" 
d="M1248.5 -138.5q103.5 -67.5 243.5 -89.5l-56 -123q-157 22 -284.5 111t-190.5 238q-90 -23 -191 -23q-202 0 -353.5 93.5t-233.5 260.5t-82 383q0 218 82 387t233.5 263.5t353.5 94.5q206 0 360 -93.5t236.5 -261t82.5 -383.5q0 -233 -93 -408.5t-263 -262.5
q52 -119 155.5 -186.5zM307 389.5q63 -138.5 182 -214t281 -75.5q165 0 285.5 75.5t184 214.5t63.5 323q0 186 -64 325.5t-184.5 216.5t-284.5 77q-162 0 -281 -77t-182 -217t-63 -326q0 -184 63 -322.5z" />
    <glyph glyph-name="R" unicode="R" horiz-adv-x="1181" 
d="M950 0l-409 626h-220v-626h-134v1434h394q137 0 236 -44.5t152.5 -131.5t53.5 -212q0 -155 -89 -260.5t-240 -142.5l427 -643h-171zM530 746q166 0 260 74t94 218q0 143 -85 209.5t-247 66.5l-232 -1v-567h210z" />
    <glyph glyph-name="Racute" unicode="&#x154;" horiz-adv-x="1181" 
d="M627 1588h-143l228 213h170zM950 0l-409 626h-220v-626h-134v1434h394q137 0 236 -44.5t152.5 -131.5t53.5 -212q0 -155 -89 -260.5t-240 -142.5l427 -643h-171zM530 746q166 0 260 74t94 218q0 143 -85 209.5t-247 66.5l-232 -1v-567h210z" />
    <glyph glyph-name="Rcaron" unicode="&#x158;" horiz-adv-x="1181" 
d="M508 1572l-278 235h160l161 -136l162 136h156l-273 -235h-88zM950 0l-409 626h-220v-626h-134v1434h394q137 0 236 -44.5t152.5 -131.5t53.5 -212q0 -155 -89 -260.5t-240 -142.5l427 -643h-171zM530 746q166 0 260 74t94 218q0 143 -85 209.5t-247 66.5l-232 -1v-567
h210z" />
    <glyph glyph-name="uni0156" unicode="&#x156;" horiz-adv-x="1181" 
d="M1121 0h-171l-409 626h-220v-626h-134v1434h394q137 0 236 -44.5t152.5 -131.5t53.5 -212q0 -155 -89 -260.5t-240 -142.5zM530 746q166 0 260 74t94 218q0 143 -85 209.5t-247 66.5l-232 -1v-567h210zM516.5 -248.5q12.5 58.5 15.5 134.5h129q-4 -86 -29 -178.5
t-69 -163.5l-94 60q35 89 47.5 147.5z" />
    <glyph glyph-name="S" unicode="S" horiz-adv-x="1053" 
d="M303.5 12q-90.5 23 -208.5 76l45 119q116 -55 198 -76.5t163 -21.5q157 0 228.5 76t71.5 201q0 79 -40.5 133t-100.5 88.5t-163 79.5q-117 51 -187.5 93.5t-119.5 114t-49 178.5q0 191 125 285t333 94q150 0 289 -52l-45 -121l-25 8q-57 18 -103.5 28t-112.5 10
q-142 0 -234 -58t-92 -184q0 -67 37.5 -115.5t92.5 -80.5t154 -77q122 -55 197 -101.5t128 -125.5t53 -197q0 -122 -52 -211.5t-152 -137.5t-240 -48q-100 0 -190.5 23z" />
    <glyph glyph-name="Sacute" unicode="&#x15a;" horiz-adv-x="1053" 
d="M688 1811h170l-255 -213h-143zM303.5 12q-90.5 23 -208.5 76l45 119q116 -55 198 -76.5t163 -21.5q157 0 228.5 76t71.5 201q0 79 -40.5 133t-100.5 88.5t-163 79.5q-117 51 -187.5 93.5t-119.5 114t-49 178.5q0 191 125 285t333 94q150 0 289 -52l-45 -121l-25 8
q-57 18 -103.5 28t-112.5 10q-142 0 -234 -58t-92 -184q0 -67 37.5 -115.5t92.5 -80.5t154 -77q122 -55 197 -101.5t128 -125.5t53 -197q0 -122 -52 -211.5t-152 -137.5t-240 -48q-100 0 -190.5 23z" />
    <glyph glyph-name="Scaron" unicode="&#x160;" horiz-adv-x="1053" 
d="M205 1817h160l161 -136l162 136h156l-273 -235h-88zM303.5 12q-90.5 23 -208.5 76l45 119q116 -55 198 -76.5t163 -21.5q157 0 228.5 76t71.5 201q0 79 -40.5 133t-100.5 88.5t-163 79.5q-117 51 -187.5 93.5t-119.5 114t-49 178.5q0 191 125 285t333 94q150 0 289 -52
l-45 -121l-25 8q-57 18 -103.5 28t-112.5 10q-142 0 -234 -58t-92 -184q0 -67 37.5 -115.5t92.5 -80.5t154 -77q122 -55 197 -101.5t128 -125.5t53 -197q0 -122 -52 -211.5t-152 -137.5t-240 -48q-100 0 -190.5 23z" />
    <glyph glyph-name="Scedilla" unicode="&#x15e;" horiz-adv-x="1053" 
d="M313.5 967.5q37.5 -48.5 92.5 -80.5t154 -77q122 -55 197 -101.5t128 -125.5t53 -197q0 -113 -45 -199t-131 -136.5t-208 -59.5v-62q112 0 172.5 -43.5t60.5 -125.5q0 -193 -279 -193q-37 0 -73 3v102q47 -6 78 -6q151 0 151 86q0 84 -137 84q-23 0 -46 -4v157
q-96 1 -184.5 24.5t-201.5 74.5l45 119q116 -55 198 -76.5t163 -21.5q157 0 228.5 76t71.5 201q0 79 -40.5 133t-100.5 88.5t-163 79.5q-117 51 -187.5 93.5t-119.5 114t-49 178.5q0 191 125 285t333 94q150 0 289 -52l-45 -121l-25 8q-57 18 -103.5 28t-112.5 10
q-142 0 -234 -58t-92 -184q0 -67 37.5 -115.5z" />
    <glyph glyph-name="uni0218" unicode="&#x218;" horiz-adv-x="1053" 
d="M303.5 12q-90.5 23 -208.5 76l45 119q116 -55 198 -76.5t163 -21.5q157 0 228.5 76t71.5 201q0 79 -40.5 133t-100.5 88.5t-163 79.5q-117 51 -187.5 93.5t-119.5 114t-49 178.5q0 191 125 285t333 94q150 0 289 -52l-45 -121l-25 8q-57 18 -103.5 28t-112.5 10
q-142 0 -234 -58t-92 -184q0 -67 37.5 -115.5t92.5 -80.5t154 -77q122 -55 197 -101.5t128 -125.5t53 -197q0 -122 -52 -211.5t-152 -137.5t-240 -48q-100 0 -190.5 23zM395 -396q35 89 47.5 147.5t15.5 134.5h129q-4 -86 -29 -178.5t-69 -163.5z" />
    <glyph glyph-name="T" unicode="T" horiz-adv-x="1060" 
d="M465 1313h-414v121h961v-121h-414v-1313h-133v1313z" />
    <glyph glyph-name="Tbar" unicode="&#x166;" horiz-adv-x="1060" 
d="M598 1313v-569h213v-114h-213v-630h-133v630h-227v114h227v569h-414v121h961v-121h-414z" />
    <glyph glyph-name="Tcaron" unicode="&#x164;" horiz-adv-x="1060" 
d="M209 1817h160l161 -136l162 136h156l-273 -235h-88zM465 1313h-414v121h961v-121h-414v-1313h-133v1313z" />
    <glyph glyph-name="uni0162" unicode="&#x162;" horiz-adv-x="1060" 
d="M568 0v-71q112 0 172.5 -43.5t60.5 -125.5q0 -193 -279 -193q-37 0 -73 3v102q47 -6 78 -6q151 0 151 86q0 84 -137 84q-23 0 -46 -4v168h-30v1313h-414v121h961v-121h-414v-1313h-30z" />
    <glyph glyph-name="uni021A" unicode="&#x21a;" horiz-adv-x="1060" 
d="M465 1313h-414v121h961v-121h-414v-1313h-133v1313zM409 -396q35 89 47.5 147.5t15.5 134.5h129q-4 -86 -29 -178.5t-69 -163.5z" />
    <glyph glyph-name="U" unicode="U" horiz-adv-x="1367" 
d="M294 125q-126 149 -126 432v877h133v-866q0 -472 388 -472q378 0 378 467v871h132v-854q0 -604 -518 -604q-261 0 -387 149z" />
    <glyph glyph-name="Uacute" unicode="&#xda;" horiz-adv-x="1367" 
d="M845 1811h170l-255 -213h-143zM294 125q-126 149 -126 432v877h133v-866q0 -472 388 -472q378 0 378 467v871h132v-854q0 -604 -518 -604q-261 0 -387 149z" />
    <glyph glyph-name="Ucircumflex" unicode="&#xdb;" horiz-adv-x="1367" 
d="M652 1802h89l273 -220h-159l-161 125l-162 -125h-153zM294 125q-126 149 -126 432v877h133v-866q0 -472 388 -472q378 0 378 467v871h132v-854q0 -604 -518 -604q-261 0 -387 149z" />
    <glyph glyph-name="Udieresis" unicode="&#xdc;" horiz-adv-x="1367" 
d="M434.5 1598q-29.5 29 -29.5 71q0 41 29 69t69 28q41 0 71.5 -28t30.5 -69q0 -42 -29.5 -71t-70.5 -29t-70.5 29zM794.5 1597.5q-29.5 28.5 -29.5 71.5q0 41 28.5 69t68.5 28q42 0 72 -28t30 -69q0 -42 -29 -71t-71 -29q-40 0 -69.5 28.5zM294 125q-126 149 -126 432v877
h133v-866q0 -472 388 -472q378 0 378 467v871h132v-854q0 -604 -518 -604q-261 0 -387 149z" />
    <glyph glyph-name="Ugrave" unicode="&#xd9;" horiz-adv-x="1367" 
d="M386 1807h153l208 -225h-126zM294 125q-126 149 -126 432v877h133v-866q0 -472 388 -472q378 0 378 467v871h132v-854q0 -604 -518 -604q-261 0 -387 149z" />
    <glyph glyph-name="Uhungarumlaut" unicode="&#x170;" horiz-adv-x="1367" 
d="M662 1791h145l-214 -208h-110zM919 1791h147l-216 -208h-111zM294 125q-126 149 -126 432v877h133v-866q0 -472 388 -472q378 0 378 467v871h132v-854q0 -604 -518 -604q-261 0 -387 149z" />
    <glyph glyph-name="Umacron" unicode="&#x16a;" horiz-adv-x="1367" 
d="M369 1700h640v-115h-640v115zM294 125q-126 149 -126 432v877h133v-866q0 -472 388 -472q378 0 378 467v871h132v-854q0 -604 -518 -604q-261 0 -387 149z" />
    <glyph glyph-name="Uogonek" unicode="&#x172;" horiz-adv-x="1367" 
d="M1199 1434v-854q0 -547 -425 -599q-64 -34 -102 -85t-38 -98q0 -46 29.5 -70t84.5 -24q27 0 65 7l13 -100q-35 -11 -98 -11q-101 0 -154 42.5t-53 124.5q0 62 39.5 118.5t95.5 90.5q-488 14 -488 581v877h133v-866q0 -472 388 -472q378 0 378 467v871h132z" />
    <glyph glyph-name="Uring" unicode="&#x16e;" horiz-adv-x="1367" 
d="M580 1544.5q-46 24.5 -72.5 67.5t-26.5 95q0 54 27 97.5t73.5 68.5t104.5 25q57 0 103 -24.5t72.5 -67.5t26.5 -96t-27 -96.5t-73.5 -68.5t-104.5 -25q-57 0 -103 24.5zM761.5 1638.5q30.5 28.5 30.5 70.5q0 43 -30.5 71.5t-76.5 28.5q-45 0 -75 -28.5t-30 -71.5
q0 -42 30 -70.5t75 -28.5q46 0 76.5 28.5zM294 125q-126 149 -126 432v877h133v-866q0 -472 388 -472q378 0 378 467v871h132v-854q0 -604 -518 -604q-261 0 -387 149z" />
    <glyph glyph-name="V" unicode="V" horiz-adv-x="1255" 
d="M29 1434h147l411 -1158q21 -55 30 -127h4q9 62 34 130l428 1156l141 -1l-544 -1435h-130z" />
    <glyph glyph-name="W" unicode="W" horiz-adv-x="1873" 
d="M38 1434h145l321 -1135q9 -31 16 -72t8 -72h5q3 24 12.5 66t19.5 78l337 1135h105l320 -1144q15 -52 24 -134h4q3 43 27 138l311 1140h142l-413 -1434h-140l-308 1076q-9 29 -15 70.5t-8 75.5h-4q-7 -79 -26 -144l-321 -1078h-139z" />
    <glyph glyph-name="Wacute" unicode="&#x1e82;" horiz-adv-x="1873" 
d="M1113 1811h170l-255 -213h-143zM38 1434h145l321 -1135q9 -31 16 -72t8 -72h5q3 24 12.5 66t19.5 78l337 1135h105l320 -1144q15 -52 24 -134h4q3 43 27 138l311 1140h142l-413 -1434h-140l-308 1076q-9 29 -15 70.5t-8 75.5h-4q-7 -79 -26 -144l-321 -1078h-139z" />
    <glyph glyph-name="Wcircumflex" unicode="&#x174;" horiz-adv-x="1873" 
d="M920 1802h89l273 -220h-159l-161 125l-162 -125h-153zM38 1434h145l321 -1135q9 -31 16 -72t8 -72h5q3 24 12.5 66t19.5 78l337 1135h105l320 -1144q15 -52 24 -134h4q3 43 27 138l311 1140h142l-413 -1434h-140l-308 1076q-9 29 -15 70.5t-8 75.5h-4q-7 -79 -26 -144
l-321 -1078h-139z" />
    <glyph glyph-name="Wdieresis" unicode="&#x1e84;" horiz-adv-x="1873" 
d="M701.5 1598q-29.5 29 -29.5 71q0 41 29 69t69 28q41 0 71.5 -28t30.5 -69q0 -42 -29.5 -71t-70.5 -29t-70.5 29zM1061.5 1597.5q-29.5 28.5 -29.5 71.5q0 41 28.5 69t68.5 28q42 0 72 -28t30 -69q0 -42 -29 -71t-71 -29q-40 0 -69.5 28.5zM38 1434h145l321 -1135
q9 -31 16 -72t8 -72h5q3 24 12.5 66t19.5 78l337 1135h105l320 -1144q15 -52 24 -134h4q3 43 27 138l311 1140h142l-413 -1434h-140l-308 1076q-9 29 -15 70.5t-8 75.5h-4q-7 -79 -26 -144l-321 -1078h-139z" />
    <glyph glyph-name="Wgrave" unicode="&#x1e80;" horiz-adv-x="1873" 
d="M653 1807h153l208 -225h-126zM38 1434h145l321 -1135q9 -31 16 -72t8 -72h5q3 24 12.5 66t19.5 78l337 1135h105l320 -1144q15 -52 24 -134h4q3 43 27 138l311 1140h142l-413 -1434h-140l-308 1076q-9 29 -15 70.5t-8 75.5h-4q-7 -79 -26 -144l-321 -1078h-139z" />
    <glyph glyph-name="X" unicode="X" horiz-adv-x="1181" 
d="M512 723l-435 712h158l311 -527q10 -17 25 -47.5t25 -54.5h4q37 72 56 104l314 524h152l-441 -711l450 -723h-162l-342 570q-8 14 -17.5 34t-16.5 38h-4l-35 -71l-350 -571h-161z" />
    <glyph glyph-name="Y" unicode="Y" horiz-adv-x="1119" 
d="M490 536l-451 898h151l335 -684q6 -13 16 -38.5t19 -49.5h3q9 33 37 88l350 684h141l-467 -894v-540h-134v536z" />
    <glyph glyph-name="Yacute" unicode="&#xdd;" horiz-adv-x="1119" 
d="M721 1811h170l-255 -213h-143zM490 536l-451 898h151l335 -684q6 -13 16 -38.5t19 -49.5h3q9 33 37 88l350 684h141l-467 -894v-540h-134v536z" />
    <glyph glyph-name="Ycircumflex" unicode="&#x176;" horiz-adv-x="1119" 
d="M528 1802h89l273 -220h-159l-161 125l-162 -125h-153zM490 536l-451 898h151l335 -684q6 -13 16 -38.5t19 -49.5h3q9 33 37 88l350 684h141l-467 -894v-540h-134v536z" />
    <glyph glyph-name="Ydieresis" unicode="&#x178;" horiz-adv-x="1119" 
d="M309.5 1598q-29.5 29 -29.5 71q0 41 29 69t69 28q41 0 71.5 -28t30.5 -69q0 -42 -29.5 -71t-70.5 -29t-70.5 29zM669.5 1597.5q-29.5 28.5 -29.5 71.5q0 41 28.5 69t68.5 28q42 0 72 -28t30 -69q0 -42 -29 -71t-71 -29q-40 0 -69.5 28.5zM490 536l-451 898h151l335 -684
q6 -13 16 -38.5t19 -49.5h3q9 33 37 88l350 684h141l-467 -894v-540h-134v536z" />
    <glyph glyph-name="Ygrave" unicode="&#x1ef2;" horiz-adv-x="1119" 
d="M261 1807h153l208 -225h-126zM490 536l-451 898h151l335 -684q6 -13 16 -38.5t19 -49.5h3q9 33 37 88l350 684h141l-467 -894v-540h-134v536z" />
    <glyph glyph-name="Z" unicode="Z" horiz-adv-x="1168" 
d="M60 47l821 1266h-794v121h999v-40l-822 -1273h827v-121h-1031v47z" />
    <glyph glyph-name="Zacute" unicode="&#x179;" horiz-adv-x="1168" 
d="M745 1811h170l-255 -213h-143zM60 47l821 1266h-794v121h999v-40l-822 -1273h827v-121h-1031v47z" />
    <glyph glyph-name="Zcaron" unicode="&#x17d;" horiz-adv-x="1168" 
d="M263 1817h160l161 -136l162 136h156l-273 -235h-88zM60 47l821 1266h-794v121h999v-40l-822 -1273h827v-121h-1031v47z" />
    <glyph glyph-name="Zdotaccent" unicode="&#x17b;" horiz-adv-x="1168" 
d="M510 1603.5q-32 31.5 -32 76.5q0 44 31 73t75 29t75.5 -29t31.5 -73q0 -45 -31 -76.5t-75 -31.5q-43 0 -75 31.5zM60 47l821 1266h-794v121h999v-40l-822 -1273h827v-121h-1031v47z" />
    <glyph glyph-name="a" unicode="a" horiz-adv-x="1027" 
d="M860 -39q-55 107 -80 207q-18 -54 -67.5 -97.5t-120 -68.5t-151.5 -25q-159 0 -253 73.5t-94 213.5q0 148 101.5 228.5t280.5 80.5q150 0 283 -85v116q0 270 -247 270q-44 0 -125.5 -7.5t-151.5 -19.5l-18 127q122 14 191.5 20t116.5 6q175 0 265 -96t91 -286l2 -278
q1 -157 92 -322zM618 131q65 33 103 92t38 136v10q-53 39 -122.5 61t-145.5 22q-124 0 -193 -46.5t-69 -135.5q0 -80 66 -126t180 -46q78 0 143 33z" />
    <glyph glyph-name="aacute" unicode="&#xe1;" horiz-adv-x="1027" 
d="M860 -39q-55 107 -80 207q-18 -54 -67.5 -97.5t-120 -68.5t-151.5 -25q-159 0 -253 73.5t-94 213.5q0 148 101.5 228.5t280.5 80.5q150 0 283 -85v116q0 270 -247 270q-44 0 -125.5 -7.5t-151.5 -19.5l-18 127q122 14 191.5 20t116.5 6q175 0 265 -96t91 -286l2 -278
q1 -157 92 -322zM618 131q65 33 103 92t38 136v10q-53 39 -122.5 61t-145.5 22q-124 0 -193 -46.5t-69 -135.5q0 -80 66 -126t180 -46q78 0 143 33zM665 1531h155l-255 -328h-128z" />
    <glyph glyph-name="abreve" unicode="&#x103;" horiz-adv-x="1027" 
d="M860 -39q-55 107 -80 207q-18 -54 -67.5 -97.5t-120 -68.5t-151.5 -25q-159 0 -253 73.5t-94 213.5q0 148 101.5 228.5t280.5 80.5q150 0 283 -85v116q0 270 -247 270q-44 0 -125.5 -7.5t-151.5 -19.5l-18 127q122 14 191.5 20t116.5 6q175 0 265 -96t91 -286l2 -278
q1 -157 92 -322zM618 131q65 33 103 92t38 136v10q-53 39 -122.5 61t-145.5 22q-124 0 -193 -46.5t-69 -135.5q0 -80 66 -126t180 -46q78 0 143 33zM375 1224q-59 31 -93.5 88.5t-39.5 134.5h115q5 -72 45 -111t109 -39q61 0 104.5 41t51.5 109h118q-8 -76 -46 -133.5
t-97.5 -89t-132.5 -31.5q-75 0 -134 31z" />
    <glyph glyph-name="acircumflex" unicode="&#xe2;" horiz-adv-x="1027" 
d="M860 -39q-55 107 -80 207q-18 -54 -67.5 -97.5t-120 -68.5t-151.5 -25q-159 0 -253 73.5t-94 213.5q0 148 101.5 228.5t280.5 80.5q150 0 283 -85v116q0 270 -247 270q-44 0 -125.5 -7.5t-151.5 -19.5l-18 127q122 14 191.5 20t116.5 6q175 0 265 -96t91 -286l2 -278
q1 -157 92 -322zM618 131q65 33 103 92t38 136v10q-53 39 -122.5 61t-145.5 22q-124 0 -193 -46.5t-69 -135.5q0 -80 66 -126t180 -46q78 0 143 33zM470 1537h89l217 -334h-119l-145 220l-148 -220h-112z" />
    <glyph glyph-name="adieresis" unicode="&#xe4;" horiz-adv-x="1027" 
d="M860 -39q-55 107 -80 207q-18 -54 -67.5 -97.5t-120 -68.5t-151.5 -25q-159 0 -253 73.5t-94 213.5q0 148 101.5 228.5t280.5 80.5q150 0 283 -85v116q0 270 -247 270q-44 0 -125.5 -7.5t-151.5 -19.5l-18 127q122 14 191.5 20t116.5 6q175 0 265 -96t91 -286l2 -278
q1 -157 92 -322zM618 131q65 33 103 92t38 136v10q-53 39 -122.5 61t-145.5 22q-124 0 -193 -46.5t-69 -135.5q0 -80 66 -126t180 -46q78 0 143 33zM263.5 1203q-29.5 29 -29.5 71q0 41 29 69t69 28q41 0 71.5 -28t30.5 -69q0 -42 -29.5 -71t-70.5 -29t-70.5 29z
M623.5 1202.5q-29.5 28.5 -29.5 71.5q0 41 28.5 69t68.5 28q42 0 72 -28t30 -69q0 -42 -29 -71t-71 -29q-40 0 -69.5 28.5z" />
    <glyph glyph-name="agrave" unicode="&#xe0;" horiz-adv-x="1027" 
d="M860 -39q-55 107 -80 207q-18 -54 -67.5 -97.5t-120 -68.5t-151.5 -25q-159 0 -253 73.5t-94 213.5q0 148 101.5 228.5t280.5 80.5q150 0 283 -85v116q0 270 -247 270q-44 0 -125.5 -7.5t-151.5 -19.5l-18 127q122 14 191.5 20t116.5 6q175 0 265 -96t91 -286l2 -278
q1 -157 92 -322zM618 131q65 33 103 92t38 136v10q-53 39 -122.5 61t-145.5 22q-124 0 -193 -46.5t-69 -135.5q0 -80 66 -126t180 -46q78 0 143 33zM220 1536h153l208 -333h-126z" />
    <glyph glyph-name="amacron" unicode="&#x101;" horiz-adv-x="1027" 
d="M860 -39q-55 107 -80 207q-18 -54 -67.5 -97.5t-120 -68.5t-151.5 -25q-159 0 -253 73.5t-94 213.5q0 148 101.5 228.5t280.5 80.5q150 0 283 -85v116q0 270 -247 270q-44 0 -125.5 -7.5t-151.5 -19.5l-18 127q122 14 191.5 20t116.5 6q175 0 265 -96t91 -286l2 -278
q1 -157 92 -322zM618 131q65 33 103 92t38 136v10q-53 39 -122.5 61t-145.5 22q-124 0 -193 -46.5t-69 -135.5q0 -80 66 -126t180 -46q78 0 143 33zM139 1305h760v-115h-760v115z" />
    <glyph glyph-name="aogonek" unicode="&#x105;" horiz-adv-x="1027" 
d="M950 -281l11 -108q-39 -11 -89 -11q-89 0 -135.5 41.5t-46.5 120.5q0 59 39 119t113 116q-40 85 -62 171q-18 -54 -67.5 -97.5t-120 -68.5t-151.5 -25q-159 0 -253 73.5t-94 213.5q0 148 101.5 228.5t280.5 80.5q150 0 283 -85v116q0 270 -247 270q-44 0 -125.5 -7.5
t-151.5 -19.5l-18 127q122 14 191.5 20t116.5 6q175 0 265 -96t91 -286l2 -278q1 -157 92 -322q-83 -65 -126 -121t-43 -99t22 -66t64 -23q18 0 58 10zM618 131q65 33 103 92t38 136v10q-53 39 -122.5 61t-145.5 22q-124 0 -193 -46.5t-69 -135.5q0 -80 66 -126t180 -46
q78 0 143 33z" />
    <glyph glyph-name="aring" unicode="&#xe5;" horiz-adv-x="1027" 
d="M860 -39q-55 107 -80 207q-18 -54 -67.5 -97.5t-120 -68.5t-151.5 -25q-159 0 -253 73.5t-94 213.5q0 148 101.5 228.5t280.5 80.5q150 0 283 -85v116q0 270 -247 270q-44 0 -125.5 -7.5t-151.5 -19.5l-18 127q122 14 191.5 20t116.5 6q175 0 265 -96t91 -286l2 -278
q1 -157 92 -322zM618 131q65 33 103 92t38 136v10q-53 39 -122.5 61t-145.5 22q-124 0 -193 -46.5t-69 -135.5q0 -80 66 -126t180 -46q78 0 143 33zM409 1176.5q-46 24.5 -72.5 67.5t-26.5 95q0 54 27 97.5t73.5 68.5t104.5 25q57 0 103 -24.5t72.5 -67.5t26.5 -96
t-27 -96.5t-73.5 -68.5t-104.5 -25q-57 0 -103 24.5zM590.5 1270.5q30.5 28.5 30.5 70.5q0 43 -30.5 71.5t-76.5 28.5q-45 0 -75 -28.5t-30 -71.5q0 -42 30 -70.5t75 -28.5q46 0 76.5 28.5z" />
    <glyph glyph-name="atilde" unicode="&#xe3;" horiz-adv-x="1027" 
d="M860 -39q-55 107 -80 207q-18 -54 -67.5 -97.5t-120 -68.5t-151.5 -25q-159 0 -253 73.5t-94 213.5q0 148 101.5 228.5t280.5 80.5q150 0 283 -85v116q0 270 -247 270q-44 0 -125.5 -7.5t-151.5 -19.5l-18 127q122 14 191.5 20t116.5 6q175 0 265 -96t91 -286l2 -278
q1 -157 92 -322zM618 131q65 33 103 92t38 136v10q-53 39 -122.5 61t-145.5 22q-124 0 -193 -46.5t-69 -135.5q0 -80 66 -126t180 -46q78 0 143 33zM579.5 1196q-33.5 18 -78.5 52q-38 30 -65.5 45t-55.5 15q-44 0 -64.5 -28.5t-20.5 -89.5h-98q0 113 46.5 173.5t137.5 60.5
q40 0 73 -18t77 -53q37 -30 62.5 -45t54.5 -15q41 0 60.5 29t19.5 91h102q0 -114 -46 -174.5t-133 -60.5q-38 0 -71.5 18z" />
    <glyph glyph-name="ae" unicode="&#xe6;" horiz-adv-x="1711" 
d="M1461 942.5q92 -61.5 136 -160.5t44 -212q0 -78 -21 -150l-728 -6q20 -158 119.5 -238t276.5 -80q131 0 286 66l41 -115q-71 -30 -174.5 -50t-187.5 -20q-161 0 -273.5 59t-169.5 180q-12 -66 -64 -121t-133 -86.5t-174 -31.5q-159 0 -253 73.5t-94 213.5
q0 148 101.5 228.5t280.5 80.5q150 0 283 -85v5q0 29 1 42v69q0 270 -247 270q-44 0 -125.5 -7.5t-151.5 -19.5l-18 127q122 14 191.5 20t116.5 6q238 0 318 -178q60 89 159 135.5t232 46.5q136 0 228 -61.5zM1505 594q0 74 -31.5 140t-96 107t-160.5 41q-161 0 -240.5 -95
t-87.5 -256l611 6q5 30 5 57zM612.5 126q64.5 28 107 80t53.5 121q-3 13 -7 41q-54 42 -126 65.5t-151 23.5q-123 0 -192.5 -48t-69.5 -139q0 -80 66 -126t180 -46q75 0 139.5 28z" />
    <glyph glyph-name="b" unicode="b" horiz-adv-x="1176" 
d="M889 939.5q97 -60.5 145.5 -171t48.5 -259.5q0 -163 -52.5 -282.5t-155.5 -184.5t-251 -65q-135 0 -213 47t-112 132l-50 -156h-81l-2 1516h127v-666q140 150 357 150q142 0 239 -60.5zM791 138q71 44 113.5 137.5t42.5 235.5q0 105 -35 186.5t-103 127.5t-164 46
q-75 0 -129 -11.5t-105 -39.5t-118 -82v-295l1 -55q0 -102 47 -168t123.5 -96t166.5 -30q89 0 160 44z" />
    <glyph glyph-name="c" unicode="c" horiz-adv-x="928" 
d="M315.5 37.5q-108.5 60.5 -165.5 174.5t-57 273t58 275t170 177.5t269 60.5q79 1 153.5 -14t126.5 -42l-40 -125q-50 24 -109.5 39t-123.5 15q-181 0 -272 -98t-91 -283q0 -190 97 -288.5t278 -98.5q55 0 112.5 17t135.5 52l42 -119q-75 -36 -159 -56t-164 -20
q-152 0 -260.5 60.5z" />
    <glyph glyph-name="cacute" unicode="&#x107;" horiz-adv-x="928" 
d="M315.5 37.5q-108.5 60.5 -165.5 174.5t-57 273t58 275t170 177.5t269 60.5q79 1 153.5 -14t126.5 -42l-40 -125q-50 24 -109.5 39t-123.5 15q-181 0 -272 -98t-91 -283q0 -190 97 -288.5t278 -98.5q55 0 112.5 17t135.5 52l42 -119q-75 -36 -159 -56t-164 -20
q-152 0 -260.5 60.5zM615 1531h155l-255 -328h-128z" />
    <glyph glyph-name="ccaron" unicode="&#x10d;" horiz-adv-x="928" 
d="M315.5 37.5q-108.5 60.5 -165.5 174.5t-57 273t58 275t170 177.5t269 60.5q79 1 153.5 -14t126.5 -42l-40 -125q-50 24 -109.5 39t-123.5 15q-181 0 -272 -98t-91 -283q0 -190 97 -288.5t278 -98.5q55 0 112.5 17t135.5 52l42 -119q-75 -36 -159 -56t-164 -20
q-152 0 -260.5 60.5zM203 1536h100l161 -234l162 234h101l-218 -333h-88z" />
    <glyph glyph-name="ccedilla" unicode="&#xe7;" horiz-adv-x="928" 
d="M733 -149q54 -38 54 -111q0 -173 -264 -173q-37 0 -73 3v92q47 -6 78 -6q141 0 141 76q0 74 -127 74q-25 0 -53 -4v180q-190 25 -293 156t-103 347q0 159 58 275t170 177.5t269 60.5q79 1 153.5 -14t126.5 -42l-40 -125q-50 24 -109.5 39t-123.5 15q-181 0 -272 -98
t-91 -283q0 -190 97 -288.5t278 -98.5q55 0 112.5 17t135.5 52l42 -119q-75 -36 -158.5 -56t-163.5 -20v-88q102 0 156 -38z" />
    <glyph glyph-name="cdotaccent" unicode="&#x10b;" horiz-adv-x="928" 
d="M315.5 37.5q-108.5 60.5 -165.5 174.5t-57 273t58 275t170 177.5t269 60.5q79 1 153.5 -14t126.5 -42l-40 -125q-50 24 -109.5 39t-123.5 15q-181 0 -272 -98t-91 -283q0 -190 97 -288.5t278 -98.5q55 0 112.5 17t135.5 52l42 -119q-75 -36 -159 -56t-164 -20
q-152 0 -260.5 60.5zM390 1208.5q-32 31.5 -32 76.5q0 44 31 73t75 29t75.5 -29t31.5 -73q0 -45 -31 -76.5t-75 -31.5q-43 0 -75 31.5z" />
    <glyph glyph-name="d" unicode="d" horiz-adv-x="1177" 
d="M989 -39q-62 111 -87 212q-40 -96 -132.5 -146t-233.5 -50q-135 0 -234.5 59.5t-153 170t-53.5 260.5q0 164 59.5 284t171.5 184.5t264 64.5q150 0 293 -117v634h129v-1187q1 -147 87 -302zM740.5 139.5q69.5 40.5 106 116t36.5 177.5v330q-62 59 -137 88.5t-143 29.5
q-116 0 -199.5 -48t-128 -138.5t-44.5 -216.5q0 -108 38.5 -193.5t116.5 -135.5t190 -50q95 0 164.5 40.5z" />
    <glyph glyph-name="eth" unicode="&#xf0;" horiz-adv-x="1118" 
d="M307.5 40q-104.5 64 -159.5 183t-55 280q0 160 58.5 284t166 192.5t249.5 68.5q133 0 227 -86l4 4q-96 171 -209 281l-299 -150l-43 84l273 132q-29 27 -138 117l-22 18l93 63q72 -51 174 -142l295 147l45 -83l-272 -133q162 -160 245.5 -360.5t83.5 -421.5
q0 -158 -56.5 -281t-162.5 -192t-247 -69q-146 0 -250.5 64zM738 139q74 52 114 148t40 224q0 427 -322 427q-104 0 -182 -53.5t-120.5 -151.5t-42.5 -228q0 -128 40.5 -222.5t117 -145t181.5 -50.5q100 0 174 52z" />
    <glyph glyph-name="dcaron" unicode="&#x10f;" horiz-adv-x="1318" 
d="M989 -39q-62 111 -87 212q-40 -96 -132.5 -146t-233.5 -50q-135 0 -234.5 59.5t-153 170t-53.5 260.5q0 164 59.5 284t171.5 184.5t264 64.5q150 0 293 -117v634h129v-1187q1 -147 87 -302zM740.5 139.5q69.5 40.5 106 116t36.5 177.5v330q-62 59 -137 88.5t-143 29.5
q-116 0 -199.5 -48t-128 -138.5t-44.5 -216.5q0 -108 38.5 -193.5t116.5 -135.5t190 -50q95 0 164.5 40.5zM1136 1517h149l-119 -292h-68z" />
    <glyph glyph-name="dcroat" unicode="&#x111;" horiz-adv-x="1177" 
d="M1012 1189v-859q1 -147 87 -302l-110 -67q-62 111 -87 212q-40 -96 -132.5 -146t-233.5 -50q-135 0 -234.5 59.5t-153 170t-53.5 260.5q0 164 59.5 284t171.5 184.5t264 64.5q150 0 293 -117v306h-319v114h319v214h129v-214h125v-114h-125zM740.5 139.5
q69.5 40.5 106 116t36.5 177.5v330q-62 59 -137 88.5t-143 29.5q-116 0 -199.5 -48t-128 -138.5t-44.5 -216.5q0 -108 38.5 -193.5t116.5 -135.5t190 -50q95 0 164.5 40.5z" />
    <glyph glyph-name="e" unicode="e" horiz-adv-x="1053" 
d="M797 942.5q92 -61.5 136 -160.5t44 -211q0 -79 -21 -151l-728 -6q20 -158 119.5 -238t276.5 -80q132 0 286 66l41 -115q-71 -30 -174.5 -50t-187.5 -20q-236 0 -366 126.5t-130 389.5q0 164 56.5 278.5t163.5 173.5t256 59q136 0 228 -61.5zM841 594q0 74 -31.5 140
t-96 107t-160.5 41q-161 0 -240.5 -95t-87.5 -256l611 6q5 30 5 57z" />
    <glyph glyph-name="eacute" unicode="&#xe9;" horiz-adv-x="1053" 
d="M797 942.5q92 -61.5 136 -160.5t44 -211q0 -79 -21 -151l-728 -6q20 -158 119.5 -238t276.5 -80q132 0 286 66l41 -115q-71 -30 -174.5 -50t-187.5 -20q-236 0 -366 126.5t-130 389.5q0 164 56.5 278.5t163.5 173.5t256 59q136 0 228 -61.5zM841 594q0 74 -31.5 140
t-96 107t-160.5 41q-161 0 -240.5 -95t-87.5 -256l611 6q5 30 5 57zM692 1531h155l-255 -328h-128z" />
    <glyph glyph-name="ecaron" unicode="&#x11b;" horiz-adv-x="1053" 
d="M797 942.5q92 -61.5 136 -160.5t44 -211q0 -79 -21 -151l-728 -6q20 -158 119.5 -238t276.5 -80q132 0 286 66l41 -115q-71 -30 -174.5 -50t-187.5 -20q-236 0 -366 126.5t-130 389.5q0 164 56.5 278.5t163.5 173.5t256 59q136 0 228 -61.5zM841 594q0 74 -31.5 140
t-96 107t-160.5 41q-161 0 -240.5 -95t-87.5 -256l611 6q5 30 5 57zM279 1536h100l161 -234l162 234h101l-218 -333h-88z" />
    <glyph glyph-name="ecircumflex" unicode="&#xea;" horiz-adv-x="1053" 
d="M797 942.5q92 -61.5 136 -160.5t44 -211q0 -79 -21 -151l-728 -6q20 -158 119.5 -238t276.5 -80q132 0 286 66l41 -115q-71 -30 -174.5 -50t-187.5 -20q-236 0 -366 126.5t-130 389.5q0 164 56.5 278.5t163.5 173.5t256 59q136 0 228 -61.5zM841 594q0 74 -31.5 140
t-96 107t-160.5 41q-161 0 -240.5 -95t-87.5 -256l611 6q5 30 5 57zM497 1537h89l217 -334h-119l-145 220l-148 -220h-112z" />
    <glyph glyph-name="edieresis" unicode="&#xeb;" horiz-adv-x="1053" 
d="M797 942.5q92 -61.5 136 -160.5t44 -211q0 -79 -21 -151l-728 -6q20 -158 119.5 -238t276.5 -80q132 0 286 66l41 -115q-71 -30 -174.5 -50t-187.5 -20q-236 0 -366 126.5t-130 389.5q0 164 56.5 278.5t163.5 173.5t256 59q136 0 228 -61.5zM841 594q0 74 -31.5 140
t-96 107t-160.5 41q-161 0 -240.5 -95t-87.5 -256l611 6q5 30 5 57zM290.5 1203q-29.5 29 -29.5 71q0 41 29 69t69 28q41 0 71.5 -28t30.5 -69q0 -42 -29.5 -71t-70.5 -29t-70.5 29zM650.5 1202.5q-29.5 28.5 -29.5 71.5q0 41 28.5 69t68.5 28q42 0 72 -28t30 -69
q0 -42 -29 -71t-71 -29q-40 0 -69.5 28.5z" />
    <glyph glyph-name="edotaccent" unicode="&#x117;" horiz-adv-x="1053" 
d="M797 942.5q92 -61.5 136 -160.5t44 -211q0 -79 -21 -151l-728 -6q20 -158 119.5 -238t276.5 -80q132 0 286 66l41 -115q-71 -30 -174.5 -50t-187.5 -20q-236 0 -366 126.5t-130 389.5q0 164 56.5 278.5t163.5 173.5t256 59q136 0 228 -61.5zM841 594q0 74 -31.5 140
t-96 107t-160.5 41q-161 0 -240.5 -95t-87.5 -256l611 6q5 30 5 57zM466 1208.5q-32 31.5 -32 76.5q0 44 31 73t75 29t75.5 -29t31.5 -73q0 -45 -31 -76.5t-75 -31.5q-43 0 -75 31.5z" />
    <glyph glyph-name="egrave" unicode="&#xe8;" horiz-adv-x="1053" 
d="M797 942.5q92 -61.5 136 -160.5t44 -211q0 -79 -21 -151l-728 -6q20 -158 119.5 -238t276.5 -80q132 0 286 66l41 -115q-71 -30 -174.5 -50t-187.5 -20q-236 0 -366 126.5t-130 389.5q0 164 56.5 278.5t163.5 173.5t256 59q136 0 228 -61.5zM841 594q0 74 -31.5 140
t-96 107t-160.5 41q-161 0 -240.5 -95t-87.5 -256l611 6q5 30 5 57zM247 1536h153l208 -333h-126z" />
    <glyph glyph-name="emacron" unicode="&#x113;" horiz-adv-x="1053" 
d="M797 942.5q92 -61.5 136 -160.5t44 -211q0 -79 -21 -151l-728 -6q20 -158 119.5 -238t276.5 -80q132 0 286 66l41 -115q-71 -30 -174.5 -50t-187.5 -20q-236 0 -366 126.5t-130 389.5q0 164 56.5 278.5t163.5 173.5t256 59q136 0 228 -61.5zM841 594q0 74 -31.5 140
t-96 107t-160.5 41q-161 0 -240.5 -95t-87.5 -256l611 6q5 30 5 57zM166 1305h760v-115h-760v115z" />
    <glyph glyph-name="eogonek" unicode="&#x119;" horiz-adv-x="1053" 
d="M797 942.5q92 -61.5 136 -160.5t44 -211q0 -79 -21 -151l-728 -6q20 -158 119.5 -238t276.5 -80q132 0 286 66l41 -114v-1v0h-0.5t-0.5 -1q-91 -71 -138.5 -132.5t-47.5 -110.5q0 -46 24.5 -70t71.5 -24q22 0 56 25l35 -102q-46 -32 -111 -32q-94 0 -143 42.5t-49 124.5
q0 57 34.5 116t100.5 115q-107 -21 -194 -21q-236 0 -366 126.5t-130 389.5q0 164 56.5 278.5t163.5 173.5t256 59q136 0 228 -61.5zM841 594q0 74 -31.5 140t-96 107t-160.5 41q-161 0 -240.5 -95t-87.5 -256l611 6q5 30 5 57z" />
    <glyph glyph-name="f" unicode="f" horiz-adv-x="603" 
d="M419 1383.5q-37 -30.5 -51 -89t-14 -153.5v-166l252 1v-110h-252v-864h-129v864h-181v108l181 1v156q0 188 63 295.5t224 107.5q28 0 108 -10l37 -5l-26 -117l-41 5q-44 7 -65 7q-69 0 -106 -30.5z" />
    <glyph glyph-name="g" unicode="g" horiz-adv-x="1177" 
d="M1013 974v-974q0 -246 -167 -363t-471 -119l-16 119q193 9 307.5 54t166 128.5t51.5 215.5v99q-46 -77 -134 -117t-213 -40q-136 0 -235.5 59.5t-153 170t-53.5 260.5q0 164 60 284t172 184.5t264 64.5q90 0 163.5 -33t145.5 -98l25 105h88zM884 432v330
q-62 60 -136.5 89.5t-143.5 29.5q-116 0 -200 -48t-128.5 -138.5t-44.5 -216.5q0 -108 39 -193.5t117 -135.5t190 -50q95 0 164.5 40.5t106 116t36.5 177.5v-1z" />
    <glyph glyph-name="gbreve" unicode="&#x11f;" horiz-adv-x="1177" 
d="M1013 974v-974q0 -246 -167 -363t-471 -119l-16 119q193 9 307.5 54t166 128.5t51.5 215.5v99q-46 -77 -134 -117t-213 -40q-136 0 -235.5 59.5t-153 170t-53.5 260.5q0 164 60 284t172 184.5t264 64.5q90 0 163.5 -33t145.5 -98l25 105h88zM884 432v330
q-62 60 -136.5 89.5t-143.5 29.5q-116 0 -200 -48t-128.5 -138.5t-44.5 -216.5q0 -108 39 -193.5t117 -135.5t190 -50q95 0 164.5 40.5t106 116t36.5 177.5v-1zM450 1224q-59 31 -93.5 88.5t-39.5 134.5h115q5 -72 45 -111t109 -39q61 0 104.5 41t51.5 109h118
q-8 -76 -46 -133.5t-97.5 -89t-132.5 -31.5q-75 0 -134 31z" />
    <glyph glyph-name="uni0123" unicode="&#x123;" horiz-adv-x="1177" 
d="M1013 974v-974q0 -246 -167 -363t-471 -119l-16 119q193 9 307.5 54t166 128.5t51.5 215.5v99q-46 -77 -134 -117t-213 -40q-136 0 -235.5 59.5t-153 170t-53.5 260.5q0 164 60 284t172 184.5t264 64.5q90 0 163.5 -33t145.5 -98l25 105h88zM884 432v330
q-62 60 -136.5 89.5t-143.5 29.5q-116 0 -200 -48t-128.5 -138.5t-44.5 -216.5q0 -108 39 -193.5t117 -135.5t190 -50q95 0 164.5 40.5t106 116t36.5 177.5v-1zM760 1579q-61 -125 -84 -208t-28 -189h-130q7 115 45.5 238.5t103.5 218.5z" />
    <glyph glyph-name="gdotaccent" unicode="&#x121;" horiz-adv-x="1177" 
d="M1013 974v-974q0 -246 -167 -363t-471 -119l-16 119q193 9 307.5 54t166 128.5t51.5 215.5v99q-46 -77 -134 -117t-213 -40q-136 0 -235.5 59.5t-153 170t-53.5 260.5q0 164 60 284t172 184.5t264 64.5q90 0 163.5 -33t145.5 -98l25 105h88zM884 432v330
q-62 60 -136.5 89.5t-143.5 29.5q-116 0 -200 -48t-128.5 -138.5t-44.5 -216.5q0 -108 39 -193.5t117 -135.5t190 -50q95 0 164.5 40.5t106 116t36.5 177.5v-1zM514 1208.5q-32 31.5 -32 76.5q0 44 31 73t75 29t75.5 -29t31.5 -73q0 -45 -31 -76.5t-75 -31.5q-43 0 -75 31.5
z" />
    <glyph glyph-name="h" unicode="h" horiz-adv-x="1128" 
d="M822.5 950q81.5 -50 121.5 -138t40 -202v-610h-129v564q0 138 -54.5 226t-179.5 88q-97 0 -181.5 -39.5t-145.5 -107.5v-731h-129v1517h129v-653q120 136 328 136q119 0 200.5 -50z" />
    <glyph glyph-name="hbar" unicode="&#x127;" horiz-adv-x="1128" 
d="M822.5 950q81.5 -50 121.5 -138t40 -202v-610h-129v564q0 138 -54.5 226t-179.5 88q-97 0 -181.5 -39.5t-145.5 -107.5v-731h-129v1230h-125v114h125v173h129v-173h319v-114h-319v-366q120 136 328 136q119 0 200.5 -50z" />
    <glyph glyph-name="i" unicode="i" horiz-adv-x="458" 
d="M166 1311q-26 26 -26 65t26 65t65 26t65 -26t26 -65t-26 -65t-65 -26t-65 26zM165 974h129v-974h-129v974z" />
    <glyph glyph-name="dotlessi" unicode="&#x131;" horiz-adv-x="458" 
d="M165 974h129v-974h-129v974z" />
    <glyph glyph-name="iacute" unicode="&#xed;" horiz-adv-x="458" 
d="M165 974h129v-974h-129v974zM380 1531h155l-255 -328h-128z" />
    <glyph glyph-name="icircumflex" unicode="&#xee;" horiz-adv-x="458" 
d="M165 974h129v-974h-129v974zM185 1537h89l217 -334h-119l-145 220l-148 -220h-112z" />
    <glyph glyph-name="idieresis" unicode="&#xef;" horiz-adv-x="458" 
d="M165 974h129v-974h-129v974zM-21.5 1203q-29.5 29 -29.5 71q0 41 29 69t69 28q41 0 71.5 -28t30.5 -69q0 -42 -29.5 -71t-70.5 -29t-70.5 29zM338.5 1202.5q-29.5 28.5 -29.5 71.5q0 41 28.5 69t68.5 28q42 0 72 -28t30 -69q0 -42 -29 -71t-71 -29q-40 0 -69.5 28.5z" />
    <glyph glyph-name="i.locl" horiz-adv-x="458" 
d="M165 974h129v-974h-129v974zM155 1208.5q-32 31.5 -32 76.5q0 44 31 73t75 29t75.5 -29t31.5 -73q0 -45 -31 -76.5t-75 -31.5q-43 0 -75 31.5z" />
    <glyph glyph-name="igrave" unicode="&#xec;" horiz-adv-x="458" 
d="M165 974h129v-974h-129v974zM-65 1536h153l208 -333h-126z" />
    <glyph glyph-name="ij" unicode="&#x133;" horiz-adv-x="916" 
d="M166 1311q-26 26 -26 65t26 65t65 26t65 -26t26 -65t-26 -65t-65 -26t-65 26zM165 974h129v-974h-129v974zM623.5 1311.5q-26.5 26.5 -26.5 64.5t26.5 64.5t65.5 26.5q38 0 64 -26.5t26 -64.5t-26 -64.5t-64 -26.5q-39 0 -65.5 26.5zM286 -362q134 19 206.5 66t101 130.5
t27.5 223.5v916h130v-954q0 -253 -121 -371.5t-328 -130.5z" />
    <glyph glyph-name="imacron" unicode="&#x12b;" horiz-adv-x="458" 
d="M165 974h129v-974h-129v974zM-146 1305h760v-115h-760v115z" />
    <glyph glyph-name="iogonek" unicode="&#x12f;" horiz-adv-x="458" 
d="M165 974h129v-974h-129v974zM155 1208.5q-32 31.5 -32 76.5q0 44 31 73t75 29t75.5 -29t31.5 -73q0 -45 -31 -76.5t-75 -31.5q-43 0 -75 31.5zM100 -357.5q-53 42.5 -53 124.5q0 47 18.5 86.5t45.5 70.5t73 76h110q-72 -74 -103 -118t-31 -84q0 -46 29.5 -70t84.5 -24
q26 0 65 7l14 -100q-36 -11 -99 -11q-101 0 -154 42.5z" />
    <glyph glyph-name="j" unicode="j" horiz-adv-x="458" 
d="M165.5 1311.5q-26.5 26.5 -26.5 64.5t26.5 64.5t65.5 26.5q38 0 64 -26.5t26 -64.5t-26 -64.5t-64 -26.5q-39 0 -65.5 26.5zM-172 -362q134 19 206.5 66t101 130.5t27.5 223.5v916h130v-954q0 -253 -121 -371.5t-328 -130.5z" />
    <glyph glyph-name="uni0237" unicode="&#x237;" horiz-adv-x="458" 
d="M-172 -362q134 19 206.5 66t101 130.5t27.5 223.5v916h130v-954q0 -253 -121 -371.5t-328 -130.5z" />
    <glyph glyph-name="k" unicode="k" horiz-adv-x="964" 
d="M484 510l-190 -210v-300h-129v1516h129v-1047q16 24 34 43l440 488l135 -26l-331 -366l374 -610h-147z" />
    <glyph glyph-name="uni0137" unicode="&#x137;" horiz-adv-x="964" 
d="M484 510l-190 -210v-300h-129v1516h129v-1047q16 24 34 43l440 488l135 -26l-331 -366l374 -610h-147zM295 -546q70 135 96 225.5t32 206.5h139q-8 -125 -49.5 -257.5t-113.5 -234.5z" />
    <glyph glyph-name="l" unicode="l" horiz-adv-x="458" 
d="M165 1516h128v-1516h-128v1516z" />
    <glyph glyph-name="lacute" unicode="&#x13a;" horiz-adv-x="458" 
d="M165 1516h128v-1516h-128v1516zM381 1936h155l-255 -328h-128z" />
    <glyph glyph-name="lcaron" unicode="&#x13e;" horiz-adv-x="656" 
d="M165 1516h128v-1516h-128v1516zM469 1517h149l-119 -292h-68z" />
    <glyph glyph-name="uni013C" unicode="&#x13c;" horiz-adv-x="458" 
d="M165 1516h128v-1516h-128v1516zM42 -546q70 135 96 225.5t32 206.5h139q-8 -125 -49.5 -257.5t-113.5 -234.5z" />
    <glyph glyph-name="ldot" unicode="&#x140;" horiz-adv-x="592" 
d="M165 1516h128v-1516h-128v1516zM426 640.5q-27 27.5 -27 71.5q0 43 27 70.5t70 27.5t70 -27.5t27 -70.5q0 -44 -27 -71.5t-70 -27.5t-70 27.5z" />
    <glyph glyph-name="lslash" unicode="&#x142;" horiz-adv-x="532" 
d="M505 824l-177 -128v-696h-128v604l-176 -127v126l176 127v786h128v-693l177 127v-126z" />
    <glyph glyph-name="m" unicode="m" horiz-adv-x="1724" 
d="M1418.5 950q80.5 -50 120.5 -138t41 -202v-610h-129v564q-3 139 -61 226.5t-190 87.5q-80 0 -152.5 -37.5t-123.5 -102.5q15 -60 15 -128v-610h-129v564q-2 152 -56 235.5t-183 83.5q-79 0 -151 -38.5t-125 -105.5l-1 -739h-129l2 974h91l31 -112q56 66 134.5 102
t168.5 36q104 0 178 -42t116 -119q65 74 152 117.5t183 43.5q117 0 197.5 -50z" />
    <glyph glyph-name="n" unicode="n" horiz-adv-x="1128" 
d="M822.5 950q81.5 -50 121.5 -138t40 -202v-610h-129v564q0 139 -54.5 226.5t-179.5 88.5q-96 -1 -180 -40.5t-146 -107.5l-1 -731h-129l2 974h91l32 -114q122 140 332 140q119 0 200.5 -50z" />
    <glyph glyph-name="nacute" unicode="&#x144;" horiz-adv-x="1128" 
d="M822.5 950q81.5 -50 121.5 -138t40 -202v-610h-129v564q0 139 -54.5 226.5t-179.5 88.5q-96 -1 -180 -40.5t-146 -107.5l-1 -731h-129l2 974h91l32 -114q122 140 332 140q119 0 200.5 -50zM715 1531h155l-255 -328h-128z" />
    <glyph glyph-name="ncaron" unicode="&#x148;" horiz-adv-x="1128" 
d="M822.5 950q81.5 -50 121.5 -138t40 -202v-610h-129v564q0 139 -54.5 226.5t-179.5 88.5q-96 -1 -180 -40.5t-146 -107.5l-1 -731h-129l2 974h91l32 -114q122 140 332 140q119 0 200.5 -50zM303 1536h100l161 -234l162 234h101l-218 -333h-88z" />
    <glyph glyph-name="uni0146" unicode="&#x146;" horiz-adv-x="1128" 
d="M822.5 950q81.5 -50 121.5 -138t40 -202v-610h-129v564q0 139 -54.5 226.5t-179.5 88.5q-96 -1 -180 -40.5t-146 -107.5l-1 -731h-129l2 974h91l32 -114q122 140 332 140q119 0 200.5 -50zM377 -546q70 135 96 225.5t32 206.5h139q-8 -125 -49.5 -257.5t-113.5 -234.5z
" />
    <glyph glyph-name="eng" unicode="&#x14b;" horiz-adv-x="1128" 
d="M822.5 950q81.5 -50 121.5 -138t40 -202v-610q0 -243 -121 -357t-328 -125l-16 120q134 19 206 65.5t101 128.5t29 220v512q0 139 -54.5 226.5t-179.5 88.5q-96 -1 -180 -40.5t-146 -107.5l-1 -731h-129l2 974h91l32 -114q122 140 332 140q119 0 200.5 -50z" />
    <glyph glyph-name="ntilde" unicode="&#xf1;" horiz-adv-x="1128" 
d="M822.5 950q81.5 -50 121.5 -138t40 -202v-610h-129v564q0 139 -54.5 226.5t-179.5 88.5q-96 -1 -180 -40.5t-146 -107.5l-1 -731h-129l2 974h91l32 -114q122 140 332 140q119 0 200.5 -50zM630.5 1196q-33.5 18 -78.5 52q-38 30 -65.5 45t-55.5 15q-44 0 -64.5 -28.5
t-20.5 -89.5h-98q0 113 46.5 173.5t137.5 60.5q40 0 73 -18t77 -53q37 -30 62.5 -45t54.5 -15q41 0 60.5 29t19.5 91h102q0 -114 -46 -174.5t-133 -60.5q-38 0 -71.5 18z" />
    <glyph glyph-name="o" unicode="o" horiz-adv-x="1175" 
d="M330.5 38q-113.5 63 -175.5 178.5t-62 266.5q0 153 62 270t175.5 181t262.5 64q147 0 258 -64t171 -181t58 -270q0 -152 -60.5 -267t-170.5 -178t-256 -63q-149 0 -262.5 63zM774 146q79 48 124 135t48 202q-4 117 -49.5 206t-124 138t-179.5 49q-109 0 -191.5 -49
t-127.5 -139t-45 -207q0 -114 45 -201t127.5 -134.5t191.5 -47.5q102 0 181 48z" />
    <glyph glyph-name="oacute" unicode="&#xf3;" horiz-adv-x="1175" 
d="M330.5 38q-113.5 63 -175.5 178.5t-62 266.5q0 153 62 270t175.5 181t262.5 64q147 0 258 -64t171 -181t58 -270q0 -152 -60.5 -267t-170.5 -178t-256 -63q-149 0 -262.5 63zM774 146q79 48 124 135t48 202q-4 117 -49.5 206t-124 138t-179.5 49q-109 0 -191.5 -49
t-127.5 -139t-45 -207q0 -114 45 -201t127.5 -134.5t191.5 -47.5q102 0 181 48zM739 1531h155l-255 -328h-128z" />
    <glyph glyph-name="ocircumflex" unicode="&#xf4;" horiz-adv-x="1175" 
d="M330.5 38q-113.5 63 -175.5 178.5t-62 266.5q0 153 62 270t175.5 181t262.5 64q147 0 258 -64t171 -181t58 -270q0 -152 -60.5 -267t-170.5 -178t-256 -63q-149 0 -262.5 63zM774 146q79 48 124 135t48 202q-4 117 -49.5 206t-124 138t-179.5 49q-109 0 -191.5 -49
t-127.5 -139t-45 -207q0 -114 45 -201t127.5 -134.5t191.5 -47.5q102 0 181 48zM544 1537h89l217 -334h-119l-145 220l-148 -220h-112z" />
    <glyph glyph-name="odieresis" unicode="&#xf6;" horiz-adv-x="1175" 
d="M330.5 38q-113.5 63 -175.5 178.5t-62 266.5q0 153 62 270t175.5 181t262.5 64q147 0 258 -64t171 -181t58 -270q0 -152 -60.5 -267t-170.5 -178t-256 -63q-149 0 -262.5 63zM774 146q79 48 124 135t48 202q-4 117 -49.5 206t-124 138t-179.5 49q-109 0 -191.5 -49
t-127.5 -139t-45 -207q0 -114 45 -201t127.5 -134.5t191.5 -47.5q102 0 181 48zM337.5 1203q-29.5 29 -29.5 71q0 41 29 69t69 28q41 0 71.5 -28t30.5 -69q0 -42 -29.5 -71t-70.5 -29t-70.5 29zM697.5 1202.5q-29.5 28.5 -29.5 71.5q0 41 28.5 69t68.5 28q42 0 72 -28
t30 -69q0 -42 -29 -71t-71 -29q-40 0 -69.5 28.5z" />
    <glyph glyph-name="ograve" unicode="&#xf2;" horiz-adv-x="1175" 
d="M330.5 38q-113.5 63 -175.5 178.5t-62 266.5q0 153 62 270t175.5 181t262.5 64q147 0 258 -64t171 -181t58 -270q0 -152 -60.5 -267t-170.5 -178t-256 -63q-149 0 -262.5 63zM774 146q79 48 124 135t48 202q-4 117 -49.5 206t-124 138t-179.5 49q-109 0 -191.5 -49
t-127.5 -139t-45 -207q0 -114 45 -201t127.5 -134.5t191.5 -47.5q102 0 181 48zM294 1536h153l208 -333h-126z" />
    <glyph glyph-name="ohungarumlaut" unicode="&#x151;" horiz-adv-x="1175" 
d="M330.5 38q-113.5 63 -175.5 178.5t-62 266.5q0 153 62 270t175.5 181t262.5 64q147 0 258 -64t171 -181t58 -270q0 -152 -60.5 -267t-170.5 -178t-256 -63q-149 0 -262.5 63zM774 146q79 48 124 135t48 202q-4 117 -49.5 206t-124 138t-179.5 49q-109 0 -191.5 -49
t-127.5 -139t-45 -207q0 -114 45 -201t127.5 -134.5t191.5 -47.5q102 0 181 48zM620 1521h120l-244 -318h-85zM852 1521h122l-246 -318h-86z" />
    <glyph glyph-name="omacron" unicode="&#x14d;" horiz-adv-x="1175" 
d="M330.5 38q-113.5 63 -175.5 178.5t-62 266.5q0 153 62 270t175.5 181t262.5 64q147 0 258 -64t171 -181t58 -270q0 -152 -60.5 -267t-170.5 -178t-256 -63q-149 0 -262.5 63zM774 146q79 48 124 135t48 202q-4 117 -49.5 206t-124 138t-179.5 49q-109 0 -191.5 -49
t-127.5 -139t-45 -207q0 -114 45 -201t127.5 -134.5t191.5 -47.5q102 0 181 48zM213 1305h760v-115h-760v115z" />
    <glyph glyph-name="oslash" unicode="&#xf8;" horiz-adv-x="1175" 
d="M982 817q49 -66 74 -150.5t24 -183.5q0 -152 -60.5 -267t-170.5 -178t-256 -63q-95 0 -176 26t-144 75l-115 -121l-70 63l118 123q-55 65 -84 152t-29 190q0 153 62 270t175.5 181t262.5 64q97 0 179.5 -28.5t145.5 -83.5l118 124l69 -65zM299 238l525 550
q-46 43 -104.5 65.5t-126.5 22.5q-108 0 -190.5 -49t-128 -138t-45.5 -206q0 -145 70 -245zM883 713l-519 -542q93 -73 229 -73q102 0 181 48t124 135t48 202q-4 135 -63 230z" />
    <glyph glyph-name="otilde" unicode="&#xf5;" horiz-adv-x="1175" 
d="M330.5 38q-113.5 63 -175.5 178.5t-62 266.5q0 153 62 270t175.5 181t262.5 64q147 0 258 -64t171 -181t58 -270q0 -152 -60.5 -267t-170.5 -178t-256 -63q-149 0 -262.5 63zM774 146q79 48 124 135t48 202q-4 117 -49.5 206t-124 138t-179.5 49q-109 0 -191.5 -49
t-127.5 -139t-45 -207q0 -114 45 -201t127.5 -134.5t191.5 -47.5q102 0 181 48zM653.5 1196q-33.5 18 -78.5 52q-38 30 -65.5 45t-55.5 15q-44 0 -64.5 -28.5t-20.5 -89.5h-98q0 113 46.5 173.5t137.5 60.5q40 0 73 -18t77 -53q37 -30 62.5 -45t54.5 -15q41 0 60.5 29
t19.5 91h102q0 -114 -46 -174.5t-133 -60.5q-38 0 -71.5 18z" />
    <glyph glyph-name="oe" unicode="&#x153;" horiz-adv-x="1893" 
d="M1652 942.5q92 -61.5 136 -160.5t44 -212q0 -78 -21 -150l-728 -6q20 -158 119.5 -238t276.5 -80q131 0 286 66l41 -115q-71 -30 -174.5 -50t-187.5 -20q-155 0 -265.5 55t-169.5 167q-61 -107 -169.5 -165.5t-248.5 -58.5q-149 0 -262.5 63t-175.5 178.5t-62 266.5
q0 153 62 270t175.5 181t262.5 64q140 0 247.5 -57.5t168.5 -162.5q56 111 162.5 168.5t254.5 57.5q136 0 228 -61.5zM1696 594q0 74 -31.5 140t-96 107t-160.5 41q-161 0 -240.5 -95t-87.5 -256l611 6q5 30 5 57zM772 146q79 48 124.5 135t48.5 202q-4 117 -49.5 206
t-124.5 138t-180 49q-109 0 -191 -49t-127 -138.5t-45 -207.5q0 -114 45 -201t127.5 -134.5t190.5 -47.5q102 0 181 48z" />
    <glyph glyph-name="p" unicode="p" horiz-adv-x="1176" 
d="M886 941q97 -59 147 -169.5t50 -262.5q0 -163 -52.5 -282.5t-155.5 -184.5t-251 -65q-142 0 -219.5 50.5t-108.5 143.5v-641h-130l1 1444h91l35 -125q69 74 160 112.5t197 38.5q139 0 236 -59zM791 138q71 44 113.5 137.5t42.5 235.5q0 109 -35 190.5t-103 125.5t-164 44
q-99 0 -179.5 -30t-169.5 -101v-352q0 -102 46.5 -168t122.5 -96t166 -30q89 0 160 44z" />
    <glyph glyph-name="thorn" unicode="&#xfe;" horiz-adv-x="1176" 
d="M886 941q97 -59 147 -169.5t50 -262.5q0 -163 -52.5 -282.5t-155.5 -184.5t-251 -65q-142 0 -219.5 50.5t-108.5 143.5v-641h-130l1 1444h1v460h128v-582q69 72 159 110t195 38q139 0 236 -59zM791 138q71 44 113.5 137.5t42.5 235.5q0 109 -35 190.5t-103 125.5t-164 44
q-99 0 -179.5 -30t-169.5 -101v-352q0 -102 46.5 -168t122.5 -96t166 -30q89 0 160 44z" />
    <glyph glyph-name="q" unicode="q" horiz-adv-x="1177" 
d="M1012 974v-1446h-129v623q-46 -86 -133.5 -130t-213.5 -44q-135 0 -234.5 59.5t-153 170t-53.5 260.5q0 169 58 288.5t169 182t268 62.5q76 0 155.5 -33.5t150.5 -95.5l22 103h94zM740.5 139.5q69.5 40.5 106 116t36.5 177.5v330q-60 57 -132.5 87.5t-147.5 30.5
q-177 0 -274.5 -105.5t-97.5 -297.5q0 -108 38.5 -193.5t116.5 -135.5t190 -50q95 0 164.5 40.5z" />
    <glyph glyph-name="r" unicode="r" horiz-adv-x="694" 
d="M408.5 964.5q72.5 34.5 159.5 34.5q44 0 91 -9l-22 -126q-27 3 -54 3q-88 0 -161 -33.5t-127 -98.5v-735h-129v974h94l22 -111q54 67 126.5 101.5z" />
    <glyph glyph-name="racute" unicode="&#x155;" horiz-adv-x="694" 
d="M408.5 964.5q72.5 34.5 159.5 34.5q44 0 91 -9l-22 -126q-27 3 -54 3q-88 0 -161 -33.5t-127 -98.5v-735h-129v974h94l22 -111q54 67 126.5 101.5zM498 1531h155l-255 -328h-128z" />
    <glyph glyph-name="rcaron" unicode="&#x159;" horiz-adv-x="694" 
d="M408.5 964.5q72.5 34.5 159.5 34.5q44 0 91 -9l-22 -126q-27 3 -54 3q-88 0 -161 -33.5t-127 -98.5v-735h-129v974h94l22 -111q54 67 126.5 101.5zM85 1536h100l161 -234l162 234h101l-218 -333h-88z" />
    <glyph glyph-name="uni0157" unicode="&#x157;" horiz-adv-x="694" 
d="M408.5 964.5q72.5 34.5 159.5 34.5q44 0 91 -9l-22 -126q-27 3 -54 3q-88 0 -161 -33.5t-127 -98.5v-735h-129v974h94l22 -111q54 67 126.5 101.5zM38 -546q70 135 96 225.5t32 206.5h139q-8 -125 -49.5 -257.5t-113.5 -234.5z" />
    <glyph glyph-name="s" unicode="s" horiz-adv-x="832" 
d="M249 -6.5q-76 17.5 -163 55.5l41 121q87 -39 152.5 -57t125.5 -19q102 2 155 42.5t54 116.5q0 54 -29 89t-71 55.5t-114 45.5q-88 30 -142 58.5t-92.5 83t-38.5 142.5q1 134 90 204.5t256 70.5q134 0 235 -40l-38 -121q-111 43 -197 43q-103 -1 -160 -40t-61 -112
q0 -46 26 -76.5t64.5 -48.5t107.5 -43q91 -31 148.5 -61.5t99 -91t41.5 -158.5q0 -136 -85.5 -207t-248.5 -71q-80 1 -156 18.5z" />
    <glyph glyph-name="sacute" unicode="&#x15b;" horiz-adv-x="832" 
d="M249 -6.5q-76 17.5 -163 55.5l41 121q87 -39 152.5 -57t125.5 -19q102 2 155 42.5t54 116.5q0 54 -29 89t-71 55.5t-114 45.5q-88 30 -142 58.5t-92.5 83t-38.5 142.5q1 134 90 204.5t256 70.5q134 0 235 -40l-38 -121q-111 43 -197 43q-103 -1 -160 -40t-61 -112
q0 -46 26 -76.5t64.5 -48.5t107.5 -43q91 -31 148.5 -61.5t99 -91t41.5 -158.5q0 -136 -85.5 -207t-248.5 -71q-80 1 -156 18.5zM568 1531h155l-255 -328h-128z" />
    <glyph glyph-name="scaron" unicode="&#x161;" horiz-adv-x="832" 
d="M249 -6.5q-76 17.5 -163 55.5l41 121q87 -39 152.5 -57t125.5 -19q102 2 155 42.5t54 116.5q0 54 -29 89t-71 55.5t-114 45.5q-88 30 -142 58.5t-92.5 83t-38.5 142.5q1 134 90 204.5t256 70.5q134 0 235 -40l-38 -121q-111 43 -197 43q-103 -1 -160 -40t-61 -112
q0 -46 26 -76.5t64.5 -48.5t107.5 -43q91 -31 148.5 -61.5t99 -91t41.5 -158.5q0 -136 -85.5 -207t-248.5 -71q-80 1 -156 18.5zM155 1536h100l161 -234l162 234h101l-218 -333h-88z" />
    <glyph glyph-name="scedilla" unicode="&#x15f;" horiz-adv-x="832" 
d="M657.5 49q-81.5 -71 -238.5 -74v-86q102 0 156 -38t54 -111q0 -173 -264 -173q-37 0 -73 3v92q47 -6 78 -6q141 0 141 76q0 74 -127 74q-25 0 -53 -4v177q-117 13 -245 70l41 121q87 -39 152.5 -57t125.5 -19q102 2 155 42.5t54 116.5q0 54 -29 89t-71 55.5t-114 45.5
q-88 30 -142 58.5t-92.5 83t-38.5 142.5q1 134 90 204.5t256 70.5q134 0 235 -40l-38 -121q-111 43 -197 43q-103 -1 -160 -40t-61 -112q0 -46 26 -76.5t64.5 -48.5t107.5 -43q91 -31 148.5 -61.5t99 -91t41.5 -158.5q0 -133 -81.5 -204z" />
    <glyph glyph-name="uni0219" unicode="&#x219;" horiz-adv-x="832" 
d="M249 -6.5q-76 17.5 -163 55.5l41 121q87 -39 152.5 -57t125.5 -19q102 2 155 42.5t54 116.5q0 54 -29 89t-71 55.5t-114 45.5q-88 30 -142 58.5t-92.5 83t-38.5 142.5q1 134 90 204.5t256 70.5q134 0 235 -40l-38 -121q-111 43 -197 43q-103 -1 -160 -40t-61 -112
q0 -46 26 -76.5t64.5 -48.5t107.5 -43q91 -31 148.5 -61.5t99 -91t41.5 -158.5q0 -136 -85.5 -207t-248.5 -71q-80 1 -156 18.5zM190 -546q70 135 96 225.5t32 206.5h139q-8 -125 -49.5 -257.5t-113.5 -234.5z" />
    <glyph glyph-name="germandbls" unicode="&#xdf;" horiz-adv-x="1088" 
d="M607 698q24 -35 59 -54.5t97 -43.5q79 -31 128 -61.5t84 -92t35 -163.5q0 -146 -79.5 -227t-224.5 -81q-85 1 -157 15.5t-162 49.5l28 134q94 -41 159.5 -58.5t131.5 -18.5q83 2 128 49.5t45 136.5q0 60 -26 98t-63.5 60t-102.5 48q-76 31 -122.5 59.5t-79 84.5
t-32.5 147q0 70 24 117t59 74.5t91 59.5q52 30 81 52.5t49 58t20 87.5q0 85 -57.5 134.5t-156.5 49.5q-83 0 -144 -37.5t-93.5 -107.5t-32.5 -166v-1100h-128v1114q0 127 50.5 221t142.5 144.5t214 50.5q99 0 174 -36t116 -101.5t41 -151.5q0 -90 -26.5 -146.5t-64.5 -86
t-98 -61.5q-46 -25 -71 -42.5t-42.5 -46.5t-17.5 -72q0 -55 24 -90z" />
    <glyph glyph-name="t" unicode="t" horiz-adv-x="651" 
d="M610 95v-113q-66 -6 -132 -6q-85 0 -144.5 40t-89.5 107.5t-30 149.5v586h-181v114h181v350h121v-350h270v-114h-270v-560q0 -94 48 -152t136 -58q49 0 91 6z" />
    <glyph glyph-name="tbar" unicode="&#x167;" horiz-adv-x="651" 
d="M610 95v-113q-66 -6 -132 -6q-85 0 -144.5 40t-89.5 107.5t-30 149.5v304h-181v114h181v168h-181v114h181v350h121v-350h270v-114h-270v-168h271v-114h-271v-278q0 -94 48 -152t136 -58q49 0 91 6z" />
    <glyph glyph-name="tcaron" unicode="&#x165;" horiz-adv-x="783" 
d="M610 95v-113q-66 -6 -132 -6q-85 0 -144.5 40t-89.5 107.5t-30 149.5v586h-181v114h181v350h121v-350h270v-114h-270v-560q0 -94 48 -152t136 -58q49 0 91 6zM602 1436h149l-119 -292h-68z" />
    <glyph glyph-name="uni0163" unicode="&#x163;" horiz-adv-x="651" 
d="M378 -7v-104q102 0 156 -38t54 -111q0 -173 -264 -173q-37 0 -73 3v92q46 -6 78 -6q141 0 141 76q0 74 -127 74q-25 0 -53 -4v251q-37 40 -56.5 97.5t-19.5 122.5v586h-181v114h181v350h121v-350h270v-114h-270v-560q0 -94 48 -152t136 -58q49 0 91 6v-113
q-66 -6 -132 -6q-55 0 -100 17z" />
    <glyph glyph-name="uni021B" unicode="&#x21b;" horiz-adv-x="651" 
d="M610 95v-113q-66 -6 -132 -6q-85 0 -144.5 40t-89.5 107.5t-30 149.5v586h-181v114h181v350h121v-350h270v-114h-270v-560q0 -94 48 -152t136 -58q49 0 91 6zM149 -546q70 135 96 225.5t32 206.5h139q-8 -125 -49.5 -257.5t-113.5 -234.5z" />
    <glyph glyph-name="u" unicode="u" horiz-adv-x="1128" 
d="M941 -39q-60 105 -85 205q-15 -43 -56.5 -86t-111.5 -72.5t-165 -29.5q-200 0 -289.5 104t-89.5 281v610h129v-592q0 -131 59.5 -208.5t221.5 -77.5q76 0 139 28.5t102.5 91.5t39.5 162v597h129v-644q1 -146 91 -308z" />
    <glyph glyph-name="uacute" unicode="&#xfa;" horiz-adv-x="1128" 
d="M941 -39q-60 105 -85 205q-15 -43 -56.5 -86t-111.5 -72.5t-165 -29.5q-200 0 -289.5 104t-89.5 281v610h129v-592q0 -131 59.5 -208.5t221.5 -77.5q76 0 139 28.5t102.5 91.5t39.5 162v597h129v-644q1 -146 91 -308zM715 1531h155l-255 -328h-128z" />
    <glyph glyph-name="ucircumflex" unicode="&#xfb;" horiz-adv-x="1128" 
d="M941 -39q-60 105 -85 205q-15 -43 -56.5 -86t-111.5 -72.5t-165 -29.5q-200 0 -289.5 104t-89.5 281v610h129v-592q0 -131 59.5 -208.5t221.5 -77.5q76 0 139 28.5t102.5 91.5t39.5 162v597h129v-644q1 -146 91 -308zM520 1537h89l217 -334h-119l-145 220l-148 -220h-112
z" />
    <glyph glyph-name="udieresis" unicode="&#xfc;" horiz-adv-x="1128" 
d="M941 -39q-60 105 -85 205q-15 -43 -56.5 -86t-111.5 -72.5t-165 -29.5q-200 0 -289.5 104t-89.5 281v610h129v-592q0 -131 59.5 -208.5t221.5 -77.5q76 0 139 28.5t102.5 91.5t39.5 162v597h129v-644q1 -146 91 -308zM314.5 1203q-29.5 29 -29.5 71q0 41 29 69t69 28
q41 0 71.5 -28t30.5 -69q0 -42 -29.5 -71t-70.5 -29t-70.5 29zM674.5 1202.5q-29.5 28.5 -29.5 71.5q0 41 28.5 69t68.5 28q42 0 72 -28t30 -69q0 -42 -29 -71t-71 -29q-40 0 -69.5 28.5z" />
    <glyph glyph-name="ugrave" unicode="&#xf9;" horiz-adv-x="1128" 
d="M941 -39q-60 105 -85 205q-15 -43 -56.5 -86t-111.5 -72.5t-165 -29.5q-200 0 -289.5 104t-89.5 281v610h129v-592q0 -131 59.5 -208.5t221.5 -77.5q76 0 139 28.5t102.5 91.5t39.5 162v597h129v-644q1 -146 91 -308zM271 1536h153l208 -333h-126z" />
    <glyph glyph-name="uhungarumlaut" unicode="&#x171;" horiz-adv-x="1128" 
d="M941 -39q-60 105 -85 205q-15 -43 -56.5 -86t-111.5 -72.5t-165 -29.5q-200 0 -289.5 104t-89.5 281v610h129v-592q0 -131 59.5 -208.5t221.5 -77.5q76 0 139 28.5t102.5 91.5t39.5 162v597h129v-644q1 -146 91 -308zM597 1521h120l-244 -318h-85zM829 1521h122
l-246 -318h-86z" />
    <glyph glyph-name="umacron" unicode="&#x16b;" horiz-adv-x="1128" 
d="M941 -39q-60 105 -85 205q-15 -43 -56.5 -86t-111.5 -72.5t-165 -29.5q-200 0 -289.5 104t-89.5 281v610h129v-592q0 -131 59.5 -208.5t221.5 -77.5q76 0 139 28.5t102.5 91.5t39.5 162v597h129v-644q1 -146 91 -308zM189 1305h760v-115h-760v115z" />
    <glyph glyph-name="uogonek" unicode="&#x173;" horiz-adv-x="1128" 
d="M1028 -281l25 -108q-42 -11 -103 -11q-82 0 -129.5 42t-47.5 115q0 123 146 244q-41 80 -63 165q-15 -43 -56.5 -86t-111.5 -72.5t-165 -29.5q-200 0 -289.5 104t-89.5 281v610h129v-592q0 -131 59.5 -208.5t221.5 -77.5q76 0 139 28.5t102.5 91.5t39.5 162v597h129v-644
q1 -146 91 -308q-166 -132 -166 -219q0 -94 81 -94q18 0 58 10z" />
    <glyph glyph-name="uring" unicode="&#x16f;" horiz-adv-x="1128" 
d="M941 -39q-60 105 -85 205q-15 -43 -56.5 -86t-111.5 -72.5t-165 -29.5q-200 0 -289.5 104t-89.5 281v610h129v-592q0 -131 59.5 -208.5t221.5 -77.5q76 0 139 28.5t102.5 91.5t39.5 162v597h129v-644q1 -146 91 -308zM460 1176.5q-46 24.5 -72.5 67.5t-26.5 95
q0 54 27 97.5t73.5 68.5t104.5 25q57 0 103 -24.5t72.5 -67.5t26.5 -96t-27 -96.5t-73.5 -68.5t-104.5 -25q-57 0 -103 24.5zM641.5 1270.5q30.5 28.5 30.5 70.5q0 43 -30.5 71.5t-76.5 28.5q-45 0 -75 -28.5t-30 -71.5q0 -42 30 -70.5t75 -28.5q46 0 76.5 28.5z" />
    <glyph glyph-name="v" unicode="v" horiz-adv-x="955" 
d="M18 974h139l281 -714q8 -22 20.5 -70t14.5 -61h4q3 18 14 64t18 63l291 718h140l-407 -979h-123z" />
    <glyph glyph-name="w" unicode="w" horiz-adv-x="1433" 
d="M31 974h134l226 -736q4 -15 8 -43.5t5 -41.5h8q1 12 7.5 45t10.5 45l246 732h107l224 -736q3 -9 8 -41t6 -46h8q1 11 6.5 39t10.5 46l226 737h132l-313 -979h-127l-216 691q-4 15 -11 46t-9 48h-4q-1 -9 -9 -44t-13 -49l-237 -692h-124z" />
    <glyph glyph-name="wacute" unicode="&#x1e83;" horiz-adv-x="1433" 
d="M31 974h134l226 -736q4 -15 8 -43.5t5 -41.5h8q1 12 7.5 45t10.5 45l246 732h107l224 -736q3 -9 8 -41t6 -46h8q1 11 6.5 39t10.5 46l226 737h132l-313 -979h-127l-216 691q-4 15 -11 46t-9 48h-4q-1 -9 -9 -44t-13 -49l-237 -692h-124zM868 1531h155l-255 -328h-128z
" />
    <glyph glyph-name="wcircumflex" unicode="&#x175;" horiz-adv-x="1433" 
d="M31 974h134l226 -736q4 -15 8 -43.5t5 -41.5h8q1 12 7.5 45t10.5 45l246 732h107l224 -736q3 -9 8 -41t6 -46h8q1 11 6.5 39t10.5 46l226 737h132l-313 -979h-127l-216 691q-4 15 -11 46t-9 48h-4q-1 -9 -9 -44t-13 -49l-237 -692h-124zM673 1537h89l217 -334h-119
l-145 220l-148 -220h-112z" />
    <glyph glyph-name="wdieresis" unicode="&#x1e85;" horiz-adv-x="1433" 
d="M31 974h134l226 -736q4 -15 8 -43.5t5 -41.5h8q1 12 7.5 45t10.5 45l246 732h107l224 -736q3 -9 8 -41t6 -46h8q1 11 6.5 39t10.5 46l226 737h132l-313 -979h-127l-216 691q-4 15 -11 46t-9 48h-4q-1 -9 -9 -44t-13 -49l-237 -692h-124zM466.5 1203q-29.5 29 -29.5 71
q0 41 29 69t69 28q41 0 71.5 -28t30.5 -69q0 -42 -29.5 -71t-70.5 -29t-70.5 29zM826.5 1202.5q-29.5 28.5 -29.5 71.5q0 41 28.5 69t68.5 28q42 0 72 -28t30 -69q0 -42 -29 -71t-71 -29q-40 0 -69.5 28.5z" />
    <glyph glyph-name="wgrave" unicode="&#x1e81;" horiz-adv-x="1433" 
d="M31 974h134l226 -736q4 -15 8 -43.5t5 -41.5h8q1 12 7.5 45t10.5 45l246 732h107l224 -736q3 -9 8 -41t6 -46h8q1 11 6.5 39t10.5 46l226 737h132l-313 -979h-127l-216 691q-4 15 -11 46t-9 48h-4q-1 -9 -9 -44t-13 -49l-237 -692h-124zM423 1536h153l208 -333h-126z" />
    <glyph glyph-name="x" unicode="x" horiz-adv-x="901" 
d="M365 478l-325 496h143l264 -404h4l271 404h151l-337 -482l328 -492h-148l-264 406h-4l-271 -406h-147z" />
    <glyph glyph-name="y" unicode="y" horiz-adv-x="960" 
d="M108 -357q97 28 160.5 95.5t110.5 189.5l32 82l-393 964h147l290 -732l20 -78h6l20 76l302 734l146 1l-455 -1113q-42 -115 -96 -184.5t-116 -104.5t-142 -55z" />
    <glyph glyph-name="yacute" unicode="&#xfd;" horiz-adv-x="960" 
d="M108 -357q97 28 160.5 95.5t110.5 189.5l32 82l-393 964h147l290 -732l20 -78h6l20 76l302 734l146 1l-455 -1113q-42 -115 -96 -184.5t-116 -104.5t-142 -55zM631 1531h155l-255 -328h-128z" />
    <glyph glyph-name="ycircumflex" unicode="&#x177;" horiz-adv-x="960" 
d="M108 -357q97 28 160.5 95.5t110.5 189.5l32 82l-393 964h147l290 -732l20 -78h6l20 76l302 734l146 1l-455 -1113q-42 -115 -96 -184.5t-116 -104.5t-142 -55zM435 1537h89l217 -334h-119l-145 220l-148 -220h-112z" />
    <glyph glyph-name="ydieresis" unicode="&#xff;" horiz-adv-x="960" 
d="M108 -357q97 28 160.5 95.5t110.5 189.5l32 82l-393 964h147l290 -732l20 -78h6l20 76l302 734l146 1l-455 -1113q-42 -115 -96 -184.5t-116 -104.5t-142 -55zM229.5 1203q-29.5 29 -29.5 71q0 41 29 69t69 28q41 0 71.5 -28t30.5 -69q0 -42 -29.5 -71t-70.5 -29
t-70.5 29zM589.5 1202.5q-29.5 28.5 -29.5 71.5q0 41 28.5 69t68.5 28q42 0 72 -28t30 -69q0 -42 -29 -71t-71 -29q-40 0 -69.5 28.5z" />
    <glyph glyph-name="ygrave" unicode="&#x1ef3;" horiz-adv-x="960" 
d="M108 -357q97 28 160.5 95.5t110.5 189.5l32 82l-393 964h147l290 -732l20 -78h6l20 76l302 734l146 1l-455 -1113q-42 -115 -96 -184.5t-116 -104.5t-142 -55zM186 1536h153l208 -333h-126z" />
    <glyph glyph-name="z" unicode="z" horiz-adv-x="938" 
d="M58 51l618 808h-591v115h790v-47l-628 -809h630v-118h-819v51z" />
    <glyph glyph-name="zacute" unicode="&#x17a;" horiz-adv-x="938" 
d="M58 51l618 808h-591v115h790v-47l-628 -809h630v-118h-819v51zM620 1531h155l-255 -328h-128z" />
    <glyph glyph-name="zcaron" unicode="&#x17e;" horiz-adv-x="938" 
d="M58 51l618 808h-591v115h790v-47l-628 -809h630v-118h-819v51zM208 1536h100l161 -234l162 234h101l-218 -333h-88z" />
    <glyph glyph-name="zdotaccent" unicode="&#x17c;" horiz-adv-x="938" 
d="M58 51l618 808h-591v115h790v-47l-628 -809h630v-118h-819v51zM395 1208.5q-32 31.5 -32 76.5q0 44 31 73t75 29t75.5 -29t31.5 -73q0 -45 -31 -76.5t-75 -31.5q-43 0 -75 31.5z" />
    <glyph glyph-name="zero" unicode="0" horiz-adv-x="1080" 
d="M289 57q-97 84 -148 244t-51 386q0 244 54.5 417t158.5 263.5t251 90.5v-2q138 0 236 -86t149.5 -251t51.5 -397q0 -237 -55 -405t-160 -256t-253 -88q-137 0 -234 84zM541 89q98 0 168 72.5t106.5 211t36.5 333.5q0 202 -36 344.5t-104 217.5t-165 75q-100 0 -171 -76
t-108.5 -222t-37.5 -351q0 -192 36.5 -328t106 -207t167.5 -71z" />
    <glyph glyph-name="one" unicode="1" horiz-adv-x="917" 
d="M493 1311l-306 -104l-32 113l396 146h74l1 -1467h-133v1312z" />
    <glyph glyph-name="two" unicode="2" horiz-adv-x="1080" 
d="M101 61q0 155 53.5 265.5t129.5 180.5t200 157q100 71 156.5 120t94.5 117t38 157q0 275 -312 275q-67 0 -135 -10t-146 -26l-39 -8l-21 129q35 6 42 8q87 16 157.5 26t149.5 10q194 0 320.5 -86t126.5 -303q0 -129 -47.5 -222t-116 -154t-182.5 -140
q-105 -73 -165 -125.5t-101.5 -128t-41.5 -177.5h689v-126l-850 -4v65z" />
    <glyph glyph-name="three" unicode="3" horiz-adv-x="1080" 
d="M162 148q57 -17 131.5 -29.5t148.5 -12.5q148 0 245 64t97 220q0 155 -118.5 223t-331.5 68l-6 119q405 0 405 274q0 269 -286 269q-54 0 -106 -8t-110 -20q-23 -5 -26 -5l-15 121l25 4q63 11 122 18t124 7q176 0 293.5 -75.5t117.5 -269.5q0 -284 -242 -364v-4
q93 -11 158.5 -60.5t99 -123.5t33.5 -158q0 -237 -142 -331.5t-348 -94.5q-89 0 -170 13.5t-122 26.5z" />
    <glyph glyph-name="four" unicode="4" horiz-adv-x="1096" 
d="M711 320h-679v108l643 1006l163 -1v-997h204v-116h-204v-321h-127v321zM711 436v836l-532 -836h532z" />
    <glyph glyph-name="five" unicode="5" horiz-adv-x="1080" 
d="M161 162q39 -21 122 -40.5t169 -19.5q150 0 250 74.5t100 251.5q0 157 -100 236.5t-270 79.5q-40 0 -119.5 -5.5t-121.5 -11.5l49 707h623v-126h-502l-32 -453q23 4 63 7t62 3q161 0 269.5 -54.5t161 -150t52.5 -219.5q0 -254 -143 -358t-350 -104q-69 0 -135.5 9.5
t-114 23t-64.5 24.5z" />
    <glyph glyph-name="six" unicode="6" horiz-adv-x="1080" 
d="M817.5 836.5q93.5 -63.5 136.5 -164.5t43 -216q0 -153 -59 -262t-159.5 -164.5t-222.5 -55.5q-440 0 -440 656q0 290 60 471.5t182 267.5t313 86q97 0 220 -23l-24 -124q-100 18 -181 18q-167 0 -260.5 -74t-130 -203.5t-38.5 -319.5q43 71 123 121t202 50
q142 0 235.5 -63.5zM732 141.5q66 46.5 97 122.5t31 168t-30 170t-97 126.5t-172 48.5q-83 0 -145.5 -29t-101 -72t-56.5 -88q3 -136 21.5 -238t85 -178.5t199.5 -76.5q102 0 168 46.5z" />
    <glyph glyph-name="seven" unicode="7" horiz-adv-x="1063" 
d="M832 1312h-739v122h887l2 -93l-496 -1341h-146z" />
    <glyph glyph-name="eight" unicode="8" horiz-adv-x="1080" 
d="M305.5 32.5q-100.5 55.5 -153.5 151.5t-53 216q0 87 33.5 163t90 130.5t123.5 82.5q-86 53 -137.5 136.5t-51.5 177.5q0 103 46.5 187t134.5 132.5t206 48.5q104 0 192 -43t141 -126.5t53 -198.5q0 -94 -50 -177.5t-135 -136.5q66 -29 121 -84t88 -130.5t33 -161.5
q0 -120 -53.5 -216.5t-154 -151.5t-236.5 -55q-137 0 -237.5 55.5zM671.5 859.5q55.5 30.5 88.5 87.5t33 134q0 73 -29 133t-84 94.5t-129 34.5q-78 0 -137.5 -33.5t-92.5 -93t-33 -135.5q0 -68 31.5 -126t91 -92t138.5 -34q67 0 122.5 30.5zM710 140q68 42 103 113.5
t35 159.5q0 91 -40.5 158t-109 102.5t-151.5 35.5q-95 0 -164.5 -40t-106 -107t-36.5 -148q0 -99 40 -170.5t110 -108.5t158 -37q94 0 162 42z" />
    <glyph glyph-name="nine" unicode="9" horiz-adv-x="1080" 
d="M875.5 1291q97.5 -168 97.5 -492q0 -249 -47 -429t-168 -286.5t-333 -106.5q-89 0 -190 19l15 134q106 -23 184 -23q145 0 229.5 69t121.5 193.5t45 311.5q-48 -76 -131.5 -113.5t-209.5 -37.5q-104 0 -194 52.5t-144.5 156t-54.5 249.5q0 137 53.5 243.5t156 167
t242.5 60.5q230 0 327.5 -168zM832 843q-3 180 -32.5 287t-92.5 156.5t-170 49.5t-174.5 -45.5t-98 -118.5t-30.5 -161q0 -117 37.5 -197t104 -119t154.5 -39q222 0 302 187z" />
    <glyph glyph-name="onehalf" unicode="&#xbd;" horiz-adv-x="1764" 
d="M357 0l871 1468l110 -50l-870 -1468zM372 1297l-228 -76l-31 108l334 121h40l1 -863h-116v710zM1100 61q0 74 32 132t77 98.5t120 94.5q61 43 96 73t58.5 67.5t23.5 82.5q0 137 -169 137q-42 0 -84.5 -6.5t-72 -13t-37.5 -8.5l-25 116q13 2 32 6q125 26 207 26
q119 0 195.5 -53.5t76.5 -188.5q0 -73 -31.5 -130t-75 -96.5t-114.5 -91.5q-52 -37 -82 -62.5t-50 -56t-20 -65.5h398v-122h-555v61z" />
    <glyph glyph-name="onequarter" unicode="&#xbc;" horiz-adv-x="1685" 
d="M352 0l871 1468l110 -50l-870 -1468zM367 1297l-228 -76l-31 108l334 121h40l1 -863h-116v710zM1366 176h-396v122l365 556l142 -1v-572h111v-105h-111v-177h-111v177zM1366 281v415l-274 -415h274z" />
    <glyph glyph-name="threequarters" unicode="&#xbe;" horiz-adv-x="1732" 
d="M391 0l872 1468l109 -50l-870 -1468zM212 572q-63 9 -106 24l20 111q44 -13 104.5 -20.5t116.5 -7.5q65 0 104.5 36t39.5 96q0 43 -30.5 75t-86.5 50t-129 18l-4 118q101 0 162.5 42t61.5 112q0 52 -28.5 83t-75.5 31q-51 0 -108 -9.5t-100 -24.5l-20 111q44 17 109.5 27
t129.5 10t112.5 -25t75 -70.5t26.5 -105.5q0 -77 -39 -138t-104 -84v-4q78 -22 125 -82t47 -139q0 -72 -34.5 -127t-98 -85.5t-147.5 -30.5q-60 0 -123 9zM1393 176h-395v122l364 556l142 -1v-572h112v-105h-112v-177h-111v177zM1393 281v415l-274 -415h274z" />
    <glyph glyph-name="uni00B9" unicode="&#xb9;" horiz-adv-x="697" 
d="M384 1593l-228 -76l-31 108l334 121h40l1 -863h-116v710z" />
    <glyph glyph-name="uni00B2" unicode="&#xb2;" horiz-adv-x="712" 
d="M88 946q0 74 32 132t77 98.5t120 94.5q61 43 96 73t58.5 67.5t23.5 82.5q0 137 -169 137q-42 0 -84.5 -6.5t-72 -13t-37.5 -8.5l-25 116q13 2 32 6q125 26 207 26q119 0 195.5 -53.5t76.5 -188.5q0 -73 -31.5 -130t-75 -96.5t-114.5 -91.5q-52 -37 -82 -62.5t-50 -56
t-20 -65.5h398v-122h-555v61z" />
    <glyph glyph-name="uni00B3" unicode="&#xb3;" horiz-adv-x="712" 
d="M207 872q-63 9 -106 24l20 111q44 -13 104.5 -20.5t116.5 -7.5q65 0 104.5 36t39.5 96q0 43 -30.5 75t-86.5 50t-129 18l-4 119q67 0 117.5 19t78.5 53.5t28 80.5q0 52 -28.5 83t-75.5 31q-51 0 -108 -9.5t-100 -24.5l-20 111q44 17 109.5 27t129.5 10t112.5 -25
t75 -70.5t26.5 -105.5q0 -76 -39 -137t-104 -85v-4q78 -22 125 -82t47 -139q0 -72 -34.5 -127t-98 -85.5t-147.5 -30.5q-60 0 -123 9z" />
    <glyph glyph-name="asterisk" unicode="*" horiz-adv-x="843" 
d="M509 1078l253 -125l-61 -105l-235 156l18 -282h-121l17 282l-235 -156l-60 105l252 125l-252 126l60 105l235 -157l-17 282h121l-18 -282l235 157l61 -105z" />
    <glyph glyph-name="backslash" unicode="\" horiz-adv-x="763" 
d="M-26 1434l108 40l679 -1674l-104 -40z" />
    <glyph glyph-name="periodcentered" unicode="&#xb7;" horiz-adv-x="450" 
d="M155 588.5q-27 27.5 -27 71.5q0 43 27 70.5t70 27.5t70 -27.5t27 -70.5q0 -44 -27 -71.5t-70 -27.5t-70 27.5z" />
    <glyph glyph-name="bullet" unicode="&#x2022;" horiz-adv-x="822" 
d="M532 319q54 31 85 84t31 118t-31 119.5t-85 86t-119 31.5t-120 -32t-87 -86t-32 -119q0 -64 32 -117.5t86.5 -84.5t120.5 -31q65 0 119 31z" />
    <glyph glyph-name="colon" unicode=":" horiz-adv-x="450" 
d="M149.5 816.5q-30.5 30.5 -30.5 74.5t30.5 73.5t75.5 29.5q46 0 77 -29.5t31 -73.5t-31 -74.5t-77 -30.5q-45 0 -75.5 30.5zM149.5 10q-30.5 30 -30.5 74q0 45 30.5 74.5t75.5 29.5q46 0 77 -29.5t31 -74.5q0 -44 -31 -74t-77 -30q-45 0 -75.5 30z" />
    <glyph glyph-name="comma" unicode="," horiz-adv-x="450" 
d="M49 -204q70 135 96 225.5t32 206.5h139q-8 -125 -49.5 -257.5t-113.5 -234.5z" />
    <glyph glyph-name="ellipsis" unicode="&#x2026;" horiz-adv-x="1433" 
d="M167 5.5q-27 27.5 -27 71.5q0 43 27 70.5t70 27.5t70 -27.5t27 -70.5q0 -44 -27 -71.5t-70 -27.5t-70 27.5zM647 5.5q-27 27.5 -27 71.5q0 43 27 70.5t70 27.5t70 -27.5t27 -70.5q0 -44 -27 -71.5t-70 -27.5t-70 27.5zM1129 5.5q-27 27.5 -27 71.5q0 43 27 70.5t70 27.5
t70 -27.5t27 -70.5q0 -44 -27 -71.5t-70 -27.5t-70 27.5z" />
    <glyph glyph-name="exclam" unicode="!" horiz-adv-x="582" 
d="M218 1434h142l-19 -1115h-105zM221 5.5q-27 27.5 -27 71.5q0 43 27 70.5t70 27.5t70 -27.5t27 -70.5q0 -44 -27 -71.5t-70 -27.5t-70 27.5z" />
    <glyph glyph-name="exclamdown" unicode="&#xa1;" horiz-adv-x="582" 
d="M364 -431h-142l19 1115h105zM361 997.5q27 -27.5 27 -71.5q0 -43 -27 -70.5t-70 -27.5t-70 27.5t-27 70.5q0 44 27 71.5t70 27.5t70 -27.5z" />
    <glyph glyph-name="numbersign" unicode="#" horiz-adv-x="1224" 
d="M869 935l-69 -320h285l-24 -97h-282l-84 -395h-107l84 395h-256l-84 -399h-100l83 399h-278l24 97h275l67 320h-291l24 97h287l84 402h103l-85 -402h257l87 406h107l-87 -406h271l-24 -97h-267zM762 935h-257l-68 -320h256z" />
    <glyph glyph-name="period" unicode="." horiz-adv-x="450" 
d="M156 5.5q-27 27.5 -27 71.5q0 43 27 70.5t70 27.5t70 -27.5t27 -70.5q0 -44 -27 -71.5t-70 -27.5t-70 27.5z" />
    <glyph glyph-name="question" unicode="?" horiz-adv-x="900" 
d="M335 522q0 99 27 166t65 107t99 87q49 39 77 66t46.5 67t18.5 95q0 107 -67 166t-189 60q-97 0 -251 -35l-32 119q67 18 144.5 28t151.5 10q176 0 272.5 -87.5t96.5 -247.5q0 -91 -24 -152.5t-59 -99t-92 -83.5q-50 -40 -79.5 -70.5t-49 -77t-19.5 -112.5v-168h-136v162z
M345 5.5q-27 27.5 -27 71.5t27 71t70 27t69.5 -27t26.5 -71t-26.5 -71.5t-69.5 -27.5t-70 27.5z" />
    <glyph glyph-name="questiondown" unicode="&#xbf;" horiz-adv-x="900" 
d="M565 464q0 -99 -27 -166t-65 -107t-99 -87q-49 -39 -77 -66t-46.5 -67t-18.5 -95q0 -107 67 -166t189 -60q97 0 251 35l32 -119q-67 -18 -144.5 -28t-151.5 -10q-176 0 -272.5 87.5t-96.5 247.5q0 91 24 152.5t59 99t92 83.5q50 40 79.5 70.5t49 77t19.5 112.5v168h136
v-162zM555 980.5q27 -27.5 27 -71.5t-27 -71t-70 -27t-69.5 27t-26.5 71t26.5 71.5t69.5 27.5t70 -27.5z" />
    <glyph glyph-name="quotedbl" unicode="&#x22;" horiz-adv-x="745" 
d="M170 1469h116v-469h-116v469zM460 1469h116v-469h-116v469z" />
    <glyph glyph-name="quotesingle" unicode="'" horiz-adv-x="455" 
d="M170 1469h116v-469h-116v469z" />
    <glyph glyph-name="semicolon" unicode=";" horiz-adv-x="450" 
d="M159 872.5q-29 29.5 -29 72.5q0 42 29 70.5t72 28.5t72.5 -28.5t29.5 -70.5q0 -43 -29.5 -72.5t-72.5 -29.5t-72 29.5zM49 -204q70 135 96 225.5t32 206.5h139q-8 -125 -49.5 -257.5t-113.5 -234.5z" />
    <glyph glyph-name="slash" unicode="/" horiz-adv-x="774" 
d="M779 1434l-108 40l-679 -1674l104 -40z" />
    <glyph glyph-name="underscore" unicode="_" horiz-adv-x="850" 
d="M45 -182h760v-115h-760v115z" />
    <glyph glyph-name="braceleft" unicode="{" horiz-adv-x="598" 
d="M319 -249.5q-70 72.5 -70 223.5v299q0 220 -156 236v90q156 17 156 230v303q0 152 70 225t212 77v-106q-84 -4 -122 -55t-38 -162v-293q0 -215 -147 -262v-4q147 -45 147 -268v-283q0 -80 15.5 -127.5t50.5 -69.5t94 -25v-105q-142 4 -212 76.5z" />
    <glyph glyph-name="braceright" unicode="}" horiz-adv-x="598" 
d="M281 -249.5q70 72.5 70 223.5v299q0 220 156 236v90q-156 17 -156 230v303q0 152 -70 225t-212 77v-106q84 -4 122 -55t38 -162v-293q0 -215 147 -262v-4q-147 -45 -147 -268v-283q0 -80 -15.5 -127.5t-50.5 -69.5t-94 -25v-105q142 4 212 76.5z" />
    <glyph glyph-name="bracketleft" unicode="[" horiz-adv-x="598" 
d="M205 1434h342v-101h-223v-1558h223v-101h-342v1760z" />
    <glyph glyph-name="bracketright" unicode="]" horiz-adv-x="598" 
d="M395 1434h-342v-101h223v-1558h-223v-101h342v1760z" />
    <glyph glyph-name="parenleft" unicode="(" horiz-adv-x="598" 
d="M221.5 71q-73.5 208 -73.5 478q0 262 71 470t222 385l71 -65q-122 -175 -180 -367.5t-58 -422.5q0 -226 61 -418.5t189 -371.5l-73 -65q-156 169 -229.5 377z" />
    <glyph glyph-name="parenright" unicode=")" horiz-adv-x="598" 
d="M380.5 71q73.5 208 73.5 478q0 262 -71 470t-222 385l-71 -65q122 -175 180 -367.5t58 -422.5q0 -226 -61 -418.5t-189 -371.5l73 -65q156 169 229.5 377z" />
    <glyph glyph-name="emdash" unicode="&#x2014;" horiz-adv-x="2048" 
d="M2024 449h-2025v110h2025v-110z" />
    <glyph glyph-name="endash" unicode="&#x2013;" horiz-adv-x="1024" 
d="M1024 449h-1024v110h1024v-110z" />
    <glyph glyph-name="hyphen" unicode="-" horiz-adv-x="817" 
d="M145 559h546v-110h-546v110z" />
    <glyph glyph-name="uni00AD" unicode="&#xad;" horiz-adv-x="817" 
d="M145 559h546v-110h-546v110z" />
    <glyph glyph-name="guillemotleft" unicode="&#xab;" horiz-adv-x="994" 
d="M108 487l288 344h171l-294 -344l292 -336h-169zM461 487l289 344h170l-294 -344l292 -336h-168z" />
    <glyph glyph-name="guillemotright" unicode="&#xbb;" horiz-adv-x="994" 
d="M94 151l292 336l-294 344h170l289 -344l-289 -336h-168zM447 151l292 336l-294 344h171l288 -344l-288 -336h-169z" />
    <glyph glyph-name="guilsinglleft" unicode="&#x2039;" horiz-adv-x="641" 
d="M108 487l288 344h171l-294 -344l292 -336h-169z" />
    <glyph glyph-name="guilsinglright" unicode="&#x203a;" horiz-adv-x="641" 
d="M536 487l-288 344h-171l294 -344l-292 -336h169z" />
    <glyph glyph-name="quotedblbase" unicode="&#x201e;" horiz-adv-x="729" 
d="M340 -204q70 135 96 225.5t32 206.5h139q-8 -125 -49.5 -257.5t-113.5 -234.5zM54 -204q70 135 96 225.5t32 206.5h139q-8 -125 -49.5 -257.5t-113.5 -234.5z" />
    <glyph glyph-name="quotedblleft" unicode="&#x201c;" horiz-adv-x="729" 
d="M524 1413q-70 -135 -96 -225.5t-32 -206.5h-168q8 125 49.5 257.5t113.5 234.5l21 -12q2 4 8 12z" />
    <glyph glyph-name="quotedblright" unicode="&#x201d;" horiz-adv-x="729" 
d="M467 1187q-42 -133 -114 -234l-21 12q-2 -4 -8 -12l-103 60q70 135 95.5 225.5t31.5 206.5h169q-8 -125 -50 -258z" />
    <glyph glyph-name="quoteleft" unicode="&#x2018;" horiz-adv-x="454" 
d="M371 1413q-70 -135 -95.5 -225.5t-31.5 -206.5h-140q8 125 50 258t114 234z" />
    <glyph glyph-name="quoteright" unicode="&#x2019;" horiz-adv-x="454" 
d="M96 1013q70 135 96 225.5t32 206.5h139q-8 -125 -49.5 -257.5t-113.5 -234.5z" />
    <glyph glyph-name="quotesinglbase" unicode="&#x201a;" horiz-adv-x="454" 
d="M49 -204q70 135 96 225.5t32 206.5h139q-8 -125 -49.5 -257.5t-113.5 -234.5z" />
    <glyph glyph-name="uni000D" unicode="&#xd;" horiz-adv-x="199" 
 />
    <glyph glyph-name="cent" unicode="&#xa2;" horiz-adv-x="1080" 
d="M839 1.5q-75 -19.5 -147 -23.5v-196h-101v198q-132 13 -225 76.5t-142 172.5t-49 256q0 145 48.5 254.5t142 174.5t225.5 80v220h101v-216q75 -1 143.5 -15.5t116.5 -40.5l-40 -125q-103 51 -220 54v-768q55 0 112 17t135 52l43 -119q-68 -32 -143 -51.5zM386.5 232.5
q70.5 -95.5 204.5 -120.5v752q-137 -22 -206 -117.5t-69 -256.5q0 -162 70.5 -257.5z" />
    <glyph glyph-name="currency" unicode="&#xa4;" horiz-adv-x="1139" 
d="M117 232l137 132q-80 115 -80 239q0 134 80 238l-137 135l76 78l136 -136q111 81 241 81q133 0 238 -81l138 136l76 -78l-137 -135q81 -106 81 -238q0 -126 -81 -239l137 -132l-76 -79l-136 137q-105 -81 -240 -81q-139 0 -241 81l-136 -137zM700.5 377.5
q60.5 35.5 96 96t35.5 131.5t-36 131t-96.5 95t-128.5 35q-73 0 -133.5 -35.5t-95 -95.5t-34.5 -130t35.5 -130.5t96 -96.5t130.5 -36t130.5 35.5z" />
    <glyph glyph-name="dollar" unicode="$" horiz-adv-x="1080" 
d="M780 700q72 -47 120 -124t48 -190q0 -163 -91 -266t-258 -125v-203h-92v197q-101 0 -192.5 23t-209.5 76l45 119q114 -54 195.5 -75.5t161.5 -22.5v579q-117 51 -187.5 93.5t-119.5 113.5t-49 178q0 167 95.5 259.5t260.5 113.5v171h92v-165h10q150 0 289 -52l-45 -121
l-25 8q-57 18 -103.5 28t-112.5 10h-13v-527q109 -51 181 -98zM314.5 981.5q28.5 -43.5 75 -75.5t117.5 -66v476q-100 -18 -160.5 -75t-60.5 -158q0 -58 28.5 -101.5zM760 208.5q51 71.5 51 177.5q0 93 -55 151.5t-157 108.5v-530q110 21 161 92.5z" />
    <glyph glyph-name="Euro" unicode="&#x20ac;" horiz-adv-x="1080" 
d="M1030 65q-64 -36 -149 -60.5t-162 -24.5q-202 0 -330 132.5t-167 379.5h-132v112h120q-4 47 -4 109q0 52 3 101h-119v112h131q40 257 176 395.5t353 138.5q119 0 249 -44l-37 -122q-37 18 -99.5 29.5t-114.5 11.5q-156 0 -257.5 -106t-135.5 -303h525v-112h-538
q-3 -45 -3 -93q0 -55 5 -117h536v-112h-521q36 -189 134.5 -290.5t248.5 -101.5q102 0 244 79z" />
    <glyph glyph-name="florin" unicode="&#x192;" horiz-adv-x="1080" 
d="M94 -264l33 103q29 -8 53 -8q163 0 205 309l94 673h-104v110h120l31 225q19 136 100.5 211t206.5 75q54 0 99 -15l-25 -108q-25 12 -64 12q-162 0 -188 -180l-32 -220h169v-110h-186l-94 -676q-30 -214 -111 -315t-217 -101q-36 0 -90 15z" />
    <glyph glyph-name="sterling" unicode="&#xa3;" horiz-adv-x="1080" 
d="M888 111v-111h-808v111q257 155 257 358v187h-222v98l222 1v246q0 211 86.5 332t305.5 121q23 0 52 -4.5t59 -10.5l24 -5l-16 -100q-17 2 -42 8q-45 9 -64 9q-113 0 -174 -37.5t-84 -110t-23 -192.5v-256l290 1v-100h-290v-187q-6 -208 -218 -358h645z" />
    <glyph glyph-name="yen" unicode="&#xa5;" horiz-adv-x="1080" 
d="M653 674h306v-112h-350v-167h350v-112h-350v-283h-124v283h-365v112h365v167h-365v112h318l-369 760h144l302 -649q6 -13 16 -38.5t19 -49.5h3q5 17 19 48t18 40l293 649h133z" />
    <glyph glyph-name="asciitilde" unicode="~" horiz-adv-x="1366" 
d="M301.5 607q68.5 74 183.5 74q59 0 109 -24t116 -70q60 -41 98.5 -60.5t81.5 -19.5q64 0 101.5 44t43.5 125h106q-7 -131 -74.5 -203.5t-182.5 -72.5q-59 0 -109 24t-122 72q-57 39 -94.5 57.5t-74.5 18.5q-141 0 -150 -167h-106q5 128 73.5 202z" />
    <glyph glyph-name="divide" unicode="&#xf7;" horiz-adv-x="1366" 
d="M623.5 894q-26.5 27 -26.5 65q0 39 26 65.5t65 26.5q42 0 65.5 -24t23.5 -67q0 -40 -25.5 -66.5t-63.5 -26.5t-64.5 27zM223 652h923v-109h-923v109zM621 169.5q-27 26.5 -27 64.5q0 39 26.5 66t65.5 27q41 0 64.5 -24.5t23.5 -67.5q0 -39 -25.5 -65.5t-62.5 -26.5
q-38 0 -65 26.5z" />
    <glyph glyph-name="equal" unicode="=" horiz-adv-x="1366" 
d="M223 855h923v-108h-923v108zM223 448h923v-108h-923v108z" />
    <glyph glyph-name="greater" unicode="&#x3e;" horiz-adv-x="1366" 
d="M261 265l661 323v5l-661 368v122l847 -475v-38l-847 -427v122z" />
    <glyph glyph-name="less" unicode="&#x3c;" horiz-adv-x="1366" 
d="M1119 265l-661 323v5l661 368v122l-847 -475v-38l847 -427v122z" />
    <glyph glyph-name="logicalnot" unicode="&#xac;" horiz-adv-x="1366" 
d="M1037 620h-814v108h923v-527h-109v419z" />
    <glyph glyph-name="mu" unicode="&#xb5;" horiz-adv-x="1149" 
d="M961 -39q-57 100 -85 205q-15 -43 -56.5 -86t-111.5 -72.5t-165 -29.5q-161 0 -251 70v-442h-127v730q-1 9 -1 27v610h129v-592q0 -131 59.5 -208.5t221.5 -77.5q76 0 139 28.5t102.5 91.5t39.5 162v597h129v-644q1 -146 91 -308z" />
    <glyph glyph-name="multiply" unicode="&#xd7;" horiz-adv-x="1366" 
d="M270 260l337 336l-337 338l77 77l336 -338l337 338l77 -77l-337 -338l337 -336l-77 -76l-337 338l-336 -338z" />
    <glyph glyph-name="percent" unicode="%" horiz-adv-x="1641" 
d="M330 0l872 1468l109 -50l-870 -1468zM242 792.5q-75 45.5 -118 124.5t-43 176q0 100 45 181.5t123.5 128t174.5 46.5q91 0 165 -45t116.5 -124t42.5 -176q0 -100 -44 -181.5t-121.5 -128.5t-173.5 -47q-92 0 -167 45.5zM520.5 890q47.5 32 74.5 88t27 125
q0 66 -26.5 119.5t-72.5 84.5t-103 31q-59 0 -107.5 -31.5t-76 -87t-27.5 -123.5q0 -67 27 -121t74 -85.5t105 -31.5t105.5 32zM1062 29.5q-75 45.5 -118 124.5t-43 176q0 100 45 181.5t123 128t175 46.5q91 0 165 -45t116.5 -124t42.5 -176q0 -100 -44.5 -181.5
t-122 -128.5t-172.5 -47q-92 0 -167 45.5zM1340 127q47 32 74 88t27 125q0 66 -26 120t-72 84.5t-103 30.5q-60 0 -108.5 -31.5t-76 -87t-27.5 -123.5q0 -67 27 -121t74.5 -85.5t105.5 -31.5t105 32z" />
    <glyph glyph-name="perthousand" unicode="&#x2030;" horiz-adv-x="2462" 
d="M330 0l872 1468l109 -50l-870 -1468zM242 792.5q-75 45.5 -118 124.5t-43 176q0 100 45 181.5t123.5 128t174.5 46.5q91 0 165 -45t116.5 -124t42.5 -176q0 -100 -44 -181.5t-121.5 -128.5t-173.5 -47q-92 0 -167 45.5zM520.5 890q47.5 32 74.5 88t27 125
q0 66 -26.5 119.5t-72.5 84.5t-103 31q-59 0 -107.5 -31.5t-76 -87t-27.5 -123.5q0 -67 27 -121t74 -85.5t105 -31.5t105.5 32zM1062 29.5q-75 45.5 -118 124.5t-43 176q0 100 45 181.5t123 128t175 46.5q91 0 165 -45t116.5 -124t42.5 -176q0 -100 -44.5 -181.5
t-122 -128.5t-172.5 -47q-92 0 -167 45.5zM1874 26.5q-75 45.5 -118 124.5t-43 176q0 100 45 181.5t123 128.5t175 47q91 0 165 -45.5t116.5 -124t42.5 -175.5q0 -100 -44.5 -182t-122 -129t-172.5 -47q-92 0 -167 45.5zM1340 127q47 32 74 88t27 125q0 66 -26 120t-72 84.5
t-103 30.5q-60 0 -108.5 -31.5t-76 -87t-27.5 -123.5q0 -67 27 -121t74.5 -85.5t105.5 -31.5t105 32zM2152 124q47 32 74 88.5t27 125.5q0 66 -26 120t-72 84.5t-103 30.5q-60 0 -108.5 -31.5t-76 -87t-27.5 -123.5q0 -67 27 -121.5t74.5 -86t105.5 -31.5t105 32z" />
    <glyph glyph-name="plus" unicode="+" horiz-adv-x="1366" 
d="M630 543h-407v109h407v407h109v-407h407v-109h-407v-408h-109v408z" />
    <glyph glyph-name="plusminus" unicode="&#xb1;" horiz-adv-x="1366" 
d="M630 643h-407v109h407v407h109v-407h407v-109h-407v-408h-109v408zM223 109h923v-109h-923v109z" />
    <glyph glyph-name="bar" unicode="|" horiz-adv-x="477" 
d="M178 1567h122v-2049h-122v2049z" />
    <glyph glyph-name="brokenbar" unicode="&#xa6;" horiz-adv-x="477" 
d="M178 1567h122v-852h-122v852zM178 371h122v-853h-122v853z" />
    <glyph glyph-name="at" unicode="@" horiz-adv-x="1945" 
d="M1231 488v116q0 270 -247 270q-44 0 -125.5 -7.5t-151.5 -19.5l-18 127q122 14 191.5 20t116.5 6q175 0 265 -96t91 -286l2 -278q1 -135 65 -268q126 20 183 137t57 352q0 227 -68.5 368t-213.5 208t-378 67q-250 0 -406 -77.5t-230 -241.5t-74 -427q0 -250 76.5 -405.5
t238 -229t420.5 -73.5q145 0 266.5 27.5t245.5 88.5l40 -96q-107 -70 -241 -101.5t-324 -31.5q-297 0 -482 86t-272.5 267t-87.5 472q0 302 86.5 489.5t268 276.5t473.5 89q275 0 446.5 -77.5t252.5 -241t81 -426.5q0 -216 -46.5 -350t-144.5 -197.5t-255 -63.5
q-55 107 -80 207q-18 -54 -67.5 -97.5t-120 -68.5t-151.5 -25q-159 0 -253 73.5t-94 213.5q0 148 101.5 228.5t280.5 80.5q150 0 283 -85zM1090 131q65 33 103 92t38 136v11q-53 38 -122.5 60t-145.5 22q-124 0 -193 -46.5t-69 -135.5q0 -80 66 -126t180 -46q78 0 143 33z
" />
    <glyph glyph-name="ampersand" unicode="&#x26;" horiz-adv-x="1533" 
d="M1456 -42q-230 87 -443 221q-108 -98 -225 -150t-238 -52t-219.5 48t-155 131t-56.5 186q0 96 41.5 168.5t108.5 124.5t162 101q-117 197 -117 371q0 99 47 179.5t129 126.5t183 46q93 0 168.5 -43.5t119 -119.5t43.5 -169q0 -104 -53.5 -182t-132.5 -131.5t-204 -119.5
q143 -189 394 -361q74 85 140 195.5t119 238.5l102 -61q-108 -255 -266 -436q185 -115 395 -204zM546 792q112 54 180 96.5t113 103t45 141.5q0 60 -27.5 108t-76 75.5t-107.5 27.5q-63 0 -114 -31t-80.5 -85.5t-29.5 -120.5q0 -149 97 -315zM754 130.5q83 38.5 164 110.5
q-257 180 -417 392q-119 -66 -183 -134t-64 -162q0 -69 44 -125t121 -88t171 -32q81 0 164 38.5z" />
    <glyph glyph-name="paragraph" unicode="&#xb6;" horiz-adv-x="955" 
d="M403 903q-85 0 -154.5 35t-109.5 96t-40 135q0 77 34 137.5t92.5 94t129.5 33.5h494v-94h-129v-1340h-91v1340h-133v-1340h-93v903z" />
    <glyph glyph-name="copyright" unicode="&#xa9;" horiz-adv-x="1814" 
d="M532 71q-172 100 -272.5 271t-100.5 374t101 374.5t272.5 272t374.5 100.5t374.5 -100.5t272.5 -271.5t101 -374t-100.5 -374.5t-272 -271.5t-374.5 -100q-204 0 -376 100zM1227.5 164q145.5 85 229.5 231t84 321q0 176 -84.5 323t-229.5 232t-320 85q-174 0 -319.5 -85
t-230 -232t-84.5 -323q0 -175 84.5 -321t229.5 -231t320 -85t320.5 85zM710.5 317.5q-96.5 53.5 -147 155t-50.5 242.5t51.5 244t151 157.5t238.5 53.5q70 1 136 -12t113 -37l-36 -112q-96 48 -206 48q-161 0 -242 -87t-81 -251q0 -168 86.5 -255.5t246.5 -87.5q49 0 101 15
t119 46l38 -106q-67 -32 -141.5 -49.5t-145.5 -17.5q-135 0 -231.5 53.5z" />
    <glyph glyph-name="registered" unicode="&#xae;" horiz-adv-x="1814" 
d="M1281.5 1362.5q171.5 -100.5 272.5 -271.5t101 -374t-100.5 -374.5t-272 -271.5t-374.5 -100q-204 0 -376 100t-272.5 271t-100.5 374t101 374.5t272.5 272t374.5 100.5t374.5 -100.5zM1227.5 164q145.5 85 229.5 231t84 321q0 176 -84.5 323t-229.5 232t-320 85
q-174 0 -319.5 -85t-230 -232t-84.5 -323q0 -175 84.5 -321t229.5 -231t320 -85t320.5 85zM1125 759.5q-48 -61.5 -131 -86.5l233 -342h-131l-221 329h-78v-329h-108v810h228q120 0 188 -59.5t68 -170.5q0 -90 -48 -151.5zM888 761q82 0 128.5 34.5t46.5 101.5
q0 146 -162 144h-105v-280h92z" />
    <glyph glyph-name="section" unicode="&#xa7;" horiz-adv-x="918" 
d="M718.5 362q36.5 -59 36.5 -151q0 -85 -40.5 -147t-116 -95.5t-177.5 -33.5q-72 1 -157.5 20.5t-161.5 53.5l41 111q78 -35 152 -55t126 -21q101 2 159.5 47.5t59.5 121.5q0 55 -29 91t-72 57.5t-117 49.5q-89 33 -143 62.5t-92.5 84t-38.5 141.5q0 88 43 154t120 100
q-77 40 -120 100t-43 159q0 83 42 144t120 93.5t184 32.5q65 0 128 -10.5t107 -29.5l-38 -108q-51 19 -103.5 29.5t-93.5 10.5q-105 -1 -165 -40.5t-61 -121.5q0 -54 27.5 -89.5t69 -56t112.5 -45.5q91 -33 147.5 -64t97 -93t40.5 -163q0 -82 -39 -144.5t-106 -98.5
q65 -37 101.5 -96zM298.5 613.5q27.5 -33.5 68 -52.5t113.5 -45q79 23 122.5 71t44.5 114q0 52 -25 87.5t-65 58.5t-101 46q-82 -10 -132 -61.5t-53 -132.5q0 -52 27.5 -85.5z" />
    <glyph glyph-name="trademark" unicode="&#x2122;" horiz-adv-x="1584" 
d="M277 1321h-204v113h526v-113h-206v-549h-116v549zM689 1434h136l209 -490h4l216 490h132v-662h-110v471h-4l-208 -471h-63l-201 471h-4v-471h-107v662z" />
    <glyph glyph-name="degree" unicode="&#xb0;" horiz-adv-x="782" 
d="M256 948.5q-61 34.5 -95.5 95.5t-34.5 136q0 73 34.5 133t94.5 94.5t133 34.5q75 0 136 -34.5t96 -94.5t35 -133q0 -75 -34.5 -135.5t-95 -95.5t-134.5 -35t-135 34.5zM472 1032.5q38 22.5 59.5 61.5t21.5 86q0 46 -21.5 84t-58.5 60t-82 22q-46 0 -83.5 -22t-59 -60
t-21.5 -84q0 -47 21 -86t58 -61.5t82 -22.5q46 0 84 22.5z" />
    <glyph glyph-name="asciicircum" unicode="^" horiz-adv-x="1366" 
d="M649 1458h53l421 -795h-123l-320 616h-5l-308 -616h-122z" />
    <glyph glyph-name="dagger" unicode="&#x2020;" horiz-adv-x="762" 
d="M435 1069l30 365h-159l30 -365l-278 20v-131l258 18l30 -664h79l30 664l263 -18v131z" />
    <glyph glyph-name="daggerdbl" unicode="&#x2021;" horiz-adv-x="762" 
d="M445 1031l-22 -249l22 -250l273 18v-131l-283 20l30 -310h-159l30 310l-278 -20v131l268 -18l23 250l-23 249l-268 -18v131l278 -20l-30 310h159l-30 -310l283 20v-131z" />
    <glyph glyph-name="acutecomb" unicode="&#x301;" 
d="M-207 1531h155l-255 -328h-128z" />
    <glyph glyph-name="uni0306" unicode="&#x306;" 
d="M-446 1224q-59 31 -93.5 88.5t-39.5 134.5h115q5 -72 45 -111t109 -39q61 0 104.5 41t51.5 109h118q-8 -76 -46 -133.5t-97.5 -89t-132.5 -31.5q-75 0 -134 31z" />
    <glyph glyph-name="uni030C" unicode="&#x30c;" 
d="M-638 1536h100l161 -234l162 234h101l-218 -333h-88z" />
    <glyph glyph-name="uni0327" unicode="&#x327;" 
d="M-288 -430v92q46 -6 78 -6q141 0 141 76q0 74 -127 74q-25 0 -53 -4v263h88v-176q102 0 156 -38t54 -111q0 -173 -264 -173q-37 0 -73 3z" />
    <glyph glyph-name="uni0302" unicode="&#x302;" 
d="M-434 1537h89l217 -334h-119l-145 220l-148 -220h-112z" />
    <glyph glyph-name="uni0326" unicode="&#x326;" 
d="M-401 -546q70 135 96 225.5t32 206.5h139q-8 -125 -49.5 -257.5t-113.5 -234.5z" />
    <glyph glyph-name="uni0312" unicode="&#x312;" 
d="M-55 1579q-61 -125 -84 -208t-28 -189h-130q7 115 45.5 238.5t103.5 218.5z" />
    <glyph glyph-name="uni0308" unicode="&#x308;" 
d="M-669.5 1203q-29.5 29 -29.5 71q0 41 29 69t69 28q41 0 71.5 -28t30.5 -69q0 -42 -29.5 -71t-70.5 -29t-70.5 29zM-309.5 1202.5q-29.5 28.5 -29.5 71.5q0 41 28.5 69t68.5 28q42 0 72 -28t30 -69q0 -42 -29 -71t-71 -29q-40 0 -69.5 28.5z" />
    <glyph glyph-name="uni0307" unicode="&#x307;" 
d="M-269 1208.5q-32 31.5 -32 76.5q0 44 31 73t75 29t75.5 -29t31.5 -73q0 -45 -31 -76.5t-75 -31.5q-43 0 -75 31.5z" />
    <glyph glyph-name="gravecomb" unicode="&#x300;" 
d="M-452 1536h153l208 -333h-126z" />
    <glyph glyph-name="uni030B" unicode="&#x30b;" 
d="M-373 1521h120l-244 -318h-85zM-141 1521h122l-246 -318h-86z" />
    <glyph glyph-name="uni0304" unicode="&#x304;" 
d="M-805 1305h760v-115h-760v115z" />
    <glyph glyph-name="uni0328" unicode="&#x328;" 
d="M-243 -357.5q-53 42.5 -53 124.5q0 47 18.5 86.5t45.5 70.5t73 76h110q-72 -74 -103 -118t-31 -84q0 -46 29.5 -70t84.5 -24q26 0 65 7l14 -100q-36 -11 -99 -11q-101 0 -154 42.5z" />
    <glyph glyph-name="uni030A" unicode="&#x30a;" 
d="M-396 1176.5q-46 24.5 -72.5 67.5t-26.5 95q0 54 27 97.5t73.5 68.5t104.5 25q57 0 103 -24.5t72.5 -67.5t26.5 -96t-27 -96.5t-73.5 -68.5t-104.5 -25q-57 0 -103 24.5zM-214.5 1270.5q30.5 28.5 30.5 70.5q0 43 -30.5 71.5t-76.5 28.5q-45 0 -75 -28.5t-30 -71.5
q0 -42 30 -70.5t75 -28.5q46 0 76.5 28.5z" />
    <glyph glyph-name="uni0336" unicode="&#x336;" 
d="M45 1128h1331v-121h-1331v121z" />
    <glyph glyph-name="uni0335" unicode="&#x335;" 
d="M106 744h573v-114h-573v114z" />
    <glyph glyph-name="tildecomb" unicode="&#x303;" 
d="M-249.5 1196q-33.5 18 -78.5 52q-38 30 -65.5 45t-55.5 15q-44 0 -64.5 -28.5t-20.5 -89.5h-98q0 113 46.5 173.5t137.5 60.5q40 0 73 -18t77 -53q37 -30 62.5 -45t54.5 -15q41 0 60.5 29t19.5 91h102q0 -114 -46 -174.5t-133 -60.5q-38 0 -71.5 18z" />
    <glyph glyph-name="glyph337" 
d="M-191 1516h149l-119 -292h-68z" />
    <glyph glyph-name="acute" unicode="&#xb4;" horiz-adv-x="543" 
d="M352 1531h155l-255 -328h-128z" />
    <glyph glyph-name="breve" unicode="&#x2d8;" horiz-adv-x="616" 
d="M170 1224q-59 31 -93.5 88.5t-39.5 134.5h115q5 -72 45 -111t109 -39q61 0 104.5 41t51.5 109h118q-8 -76 -46 -133.5t-97.5 -89t-132.5 -31.5q-75 0 -134 31z" />
    <glyph glyph-name="caron" unicode="&#x2c7;" horiz-adv-x="763" 
d="M125 1536h100l161 -234l162 234h101l-218 -333h-88z" />
    <glyph glyph-name="cedilla" unicode="&#xb8;" horiz-adv-x="416" 
d="M54 -430v92q46 -6 78 -6q141 0 141 76q0 74 -127 74q-25 0 -53 -4v263h88v-176q102 0 156 -38t54 -111q0 -173 -264 -173q-37 0 -73 3z" />
    <glyph glyph-name="circumflex" unicode="&#x2c6;" horiz-adv-x="763" 
d="M329 1537h89l217 -334h-119l-145 220l-148 -220h-112z" />
    <glyph glyph-name="dieresis" unicode="&#xa8;" horiz-adv-x="833" 
d="M163.5 1203q-29.5 29 -29.5 71q0 41 29 69t69 28q41 0 71.5 -28t30.5 -69q0 -42 -29.5 -71t-70.5 -29t-70.5 29zM523.5 1202.5q-29.5 28.5 -29.5 71.5q0 41 28.5 69t68.5 28q42 0 72 -28t30 -69q0 -42 -29 -71t-71 -29q-40 0 -69.5 28.5z" />
    <glyph glyph-name="dotaccent" unicode="&#x2d9;" horiz-adv-x="389" 
d="M120 1208.5q-32 31.5 -32 76.5q0 44 31 73t75 29t75.5 -29t31.5 -73q0 -45 -31 -76.5t-75 -31.5q-43 0 -75 31.5z" />
    <glyph glyph-name="grave" unicode="`" horiz-adv-x="529" 
d="M97 1536h153l208 -333h-126z" />
    <glyph glyph-name="hungarumlaut" unicode="&#x2dd;" horiz-adv-x="649" 
d="M276 1521h120l-244 -318h-85zM508 1521h122l-246 -318h-86z" />
    <glyph glyph-name="macron" unicode="&#xaf;" horiz-adv-x="850" 
d="M45 1305h760v-115h-760v115z" />
    <glyph glyph-name="ogonek" unicode="&#x2db;" horiz-adv-x="371" 
d="M128 -357.5q-53 42.5 -53 124.5q0 47 18.5 86.5t45.5 70.5t73 76h110q-72 -74 -103 -118t-31 -84q0 -46 29.5 -70t84.5 -24q27 0 65 7l13 -100q-35 -11 -98 -11q-101 0 -154 42.5z" />
    <glyph glyph-name="ring" unicode="&#x2da;" horiz-adv-x="584" 
d="M188 1206.5q-46 24.5 -72.5 67.5t-26.5 95q0 54 27 97.5t73.5 68.5t104.5 25q57 0 103 -24.5t72.5 -67.5t26.5 -96t-27 -96.5t-73.5 -68.5t-104.5 -25q-57 0 -103 24.5zM369.5 1300.5q30.5 28.5 30.5 70.5q0 43 -30.5 71.5t-76.5 28.5q-45 0 -75 -28.5t-30 -71.5
q0 -42 30 -70.5t75 -28.5q46 0 76.5 28.5z" />
    <glyph glyph-name="tilde" unicode="&#x2dc;" horiz-adv-x="670" 
d="M420.5 1196q-33.5 18 -78.5 52q-38 30 -65.5 45t-55.5 15q-44 0 -64.5 -28.5t-20.5 -89.5h-98q0 113 46.5 173.5t137.5 60.5q40 0 73 -18t77 -53q37 -30 62.5 -45t54.5 -15q41 0 60.5 29t19.5 91h101q0 -114 -45.5 -174.5t-132.5 -60.5q-38 0 -71.5 18z" />
    <glyph glyph-name="glyph351" horiz-adv-x="448" 
d="M96 1013q48 135 65.5 225.5t21.5 206.5h130q-7 -125 -38 -258t-86 -234z" />
  </font>
</defs>
</svg>
