<svg xmlns="http://www.w3.org/2000/svg" viewBox="0 0 124 127"><defs><style>.cls-1{fill:none;}.cls-2{fill:#518c7d;}.cls-3{fill:#b2b3e2;}</style></defs><title>app</title><g id="Layer_2" data-name="Layer 2"><g id="Layer_1-2" data-name="Layer 1"><rect class="cls-1" width="124" height="127"/><polygon class="cls-2" points="121 53.88 112 53.88 112 13.88 72 13.88 72 5 52 5 52 13.88 12 13.88 12 53.88 3 53.88 3 73.88 12 73.88 12 113.88 52 113.88 52 123 72 123 72 113.88 112 113.88 112 73.88 121 73.88 121 53.88"/><rect class="cls-3" x="3" y="55" width="9" height="18"/><rect class="cls-3" x="112" y="55" width="9" height="18"/><rect class="cls-3" x="53" y="114" width="18" height="9"/><rect class="cls-3" x="53" y="5" width="18" height="9"/></g></g></svg>