<?xml version="1.0" standalone="no"?>
<!DOCTYPE svg PUBLIC "-//W3C//DTD SVG 1.1//EN" "http://www.w3.org/Graphics/SVG/1.1/DTD/svg11.dtd" >
<svg xmlns="http://www.w3.org/2000/svg" xmlns:xlink="http://www.w3.org/1999/xlink" version="1.1">
<metadata>
Created by FontForge 20170910 at Tue Apr 14 16:32:28 2015
 By Jimmy Wärting
(c) 2015 Microsoft Corporation (www.microsoft.com), with Reserved Font Name Selawik. Selawik is a trademark of Microsoft Corporation in the United States and/or other countries.
</metadata>
<defs>
<font id="Selawik-Semibold" horiz-adv-x="0" >
  <font-face 
    font-family="Selawik Semibold"
    font-weight="600"
    font-stretch="normal"
    units-per-em="2048"
    panose-1="2 11 7 2 4 2 4 2 2 3"
    ascent="1638"
    descent="-410"
    x-height="974"
    cap-height="1434"
    bbox="-833 -655 2457 1977"
    underline-thickness="50"
    underline-position="-100"
    unicode-range="U+000D-2122"
  />
<missing-glyph horiz-adv-x="1322" 
 />
    <glyph glyph-name=".notdef" horiz-adv-x="1322" 
 />
    <glyph glyph-name="space" unicode=" " horiz-adv-x="564" 
 />
    <glyph glyph-name="A" unicode="A" horiz-adv-x="1400" 
d="M998 277h-604l-92 -277h-287l531 1434h313l524 -1434h-292zM928 485l-208 618q-4 16 -11 44.5t-12 51.5h-4q-2 -15 -11 -51t-13 -45l-205 -618h464z" />
    <glyph glyph-name="Aacute" unicode="&#xc1;" horiz-adv-x="1400" 
d="M834 1607h-271l227 221h320zM998 277h-604l-92 -277h-287l531 1434h313l524 -1434h-292zM928 485l-208 618q-4 16 -11 44.5t-12 51.5h-4q-2 -15 -11 -51t-13 -45l-205 -618h464z" />
    <glyph glyph-name="Abreve" unicode="&#x102;" horiz-adv-x="1400" 
d="M453 1649.5q-84 62.5 -89 185.5h193q14 -85 143 -85q62 0 98 21.5t45 63.5h194q-13 -123 -99 -185.5t-241 -62.5q-160 0 -244 62.5zM998 277h-604l-92 -277h-287l531 1434h313l524 -1434h-292zM928 485l-208 618q-4 16 -11 44.5t-12 51.5h-4q-2 -15 -11 -51t-13 -45
l-205 -618h464z" />
    <glyph glyph-name="Acircumflex" unicode="&#xc2;" horiz-adv-x="1400" 
d="M548 1596h-232l282 255h209l290 -255h-236l-163 132zM998 277h-604l-92 -277h-287l531 1434h313l524 -1434h-292zM928 485l-208 618q-4 16 -11 44.5t-12 51.5h-4q-2 -15 -11 -51t-13 -45l-205 -618h464z" />
    <glyph glyph-name="Adieresis" unicode="&#xc4;" horiz-adv-x="1400" 
d="M372.5 1618.5q-41.5 38.5 -41.5 102.5q0 65 41 102.5t111 37.5t111.5 -37.5t41.5 -102.5t-41 -103t-111 -38t-111.5 38.5zM807 1618q-41 38 -41 103t40.5 102.5t110.5 37.5t111.5 -37.5t41.5 -102.5t-41 -103t-111 -38t-111 38zM998 277h-604l-92 -277h-287l531 1434h313
l524 -1434h-292zM928 485l-208 618q-4 16 -11 44.5t-12 51.5h-4q-2 -15 -11 -51t-13 -45l-205 -618h464z" />
    <glyph glyph-name="Agrave" unicode="&#xc0;" horiz-adv-x="1400" 
d="M563 1596l-230 225h300l194 -225h-264zM998 277h-604l-92 -277h-287l531 1434h313l524 -1434h-292zM928 485l-208 618q-4 16 -11 44.5t-12 51.5h-4q-2 -15 -11 -51t-13 -45l-205 -618h464z" />
    <glyph glyph-name="Amacron" unicode="&#x100;" horiz-adv-x="1400" 
d="M1048 1599h-696v193h696v-193zM998 277h-604l-92 -277h-287l531 1434h313l524 -1434h-292zM928 485l-208 618q-4 16 -11 44.5t-12 51.5h-4q-2 -15 -11 -51t-13 -45l-205 -618h464z" />
    <glyph glyph-name="Aogonek" unicode="&#x104;" horiz-adv-x="1400" 
d="M1313 -231l26 -165q-71 -17 -182 -17q-97 0 -148.5 45.5t-51.5 130.5q0 69 39 134.5t95 102.5l-93 277h-604l-92 -277h-287l531 1434h313l524 -1434q-71 -19 -123 -47.5t-79 -59t-27 -56.5q0 -38 24.5 -58.5t70.5 -20.5q34 0 64 11zM928 485l-208 618q-4 16 -11 44.5
t-12 51.5h-4q-2 -15 -11 -51t-13 -45l-205 -618h464z" />
    <glyph glyph-name="Aring" unicode="&#xc5;" horiz-adv-x="1400" 
d="M581 1584q-51 27 -80.5 74t-29.5 105q0 60 30 109t82.5 77t117.5 28q64 0 115.5 -27t81.5 -74.5t30 -106.5q0 -60 -30.5 -108.5t-83.5 -76t-119 -27.5q-63 0 -114 27zM639.5 1825q-24.5 -23 -24.5 -58q0 -34 24.5 -57t61.5 -23q35 0 59 23t24 57t-24 57.5t-59 23.5
q-37 0 -61.5 -23zM998 277h-604l-92 -277h-287l531 1434h313l524 -1434h-292zM928 485l-208 618q-4 16 -11 44.5t-12 51.5h-4q-2 -15 -11 -51t-13 -45l-205 -618h464z" />
    <glyph glyph-name="Atilde" unicode="&#xc3;" horiz-adv-x="1400" 
d="M518 1601h-158q0 129 52.5 201.5t147.5 72.5q35 0 68.5 -13.5t80.5 -38.5q41 -22 67 -32.5t51 -10.5q70 0 70 92h156q0 -128 -53 -201t-145 -73q-32 0 -66 13t-87 40q-39 20 -64 30t-44 10q-76 0 -76 -90zM998 277h-604l-92 -277h-287l531 1434h313l524 -1434h-292z
M928 485l-208 618q-4 16 -11 44.5t-12 51.5h-4q-2 -15 -11 -51t-13 -45l-205 -618h464z" />
    <glyph glyph-name="AE" unicode="&#xc6;" horiz-adv-x="1864" 
d="M1788 219v-219h-826v297h-504l-164 -297h-287l819 1434h930v-219h-529v-378h467v-221h-467v-397h561zM962 505v710l-390 -710h390z" />
    <glyph glyph-name="B" unicode="B" horiz-adv-x="1267" 
d="M172 1v1434h511q124 0 221.5 -39t153 -113t55.5 -176q0 -123 -72 -212.5t-202 -127.5v-4q106 -11 183.5 -57.5t119.5 -122t42 -171.5q0 -124 -64.5 -217.5t-176.5 -144t-250 -50.5zM589 838q115 0 180.5 53t65.5 151q0 94 -59 142t-167 48h-172v-394h152zM646 204
q123 0 192 57.5t69 164.5t-78 161t-219 54h-172v-437h208z" />
    <glyph glyph-name="C" unicode="C" horiz-adv-x="1275" 
d="M387.5 66q-150.5 86 -229 250.5t-78.5 396.5q0 236 90 404t262 255.5t414 87.5q150 0 324 -44l-69 -243q-47 16 -125.5 26t-143.5 10q-150 0 -256.5 -58t-162 -167.5t-55.5 -262.5q0 -154 48.5 -264t142 -167.5t224.5 -57.5q138 0 352 69l62 -243q-98 -38 -212.5 -58
t-224.5 -20q-212 0 -362.5 86z" />
    <glyph glyph-name="Cacute" unicode="&#x106;" horiz-adv-x="1275" 
d="M807 1818h320l-276 -221h-271zM387.5 66q-150.5 86 -229 250.5t-78.5 396.5q0 236 90 404t262 255.5t414 87.5q150 0 324 -44l-69 -243q-47 16 -125.5 26t-143.5 10q-150 0 -256.5 -58t-162 -167.5t-55.5 -262.5q0 -154 48.5 -264t142 -167.5t224.5 -57.5q138 0 352 69
l62 -243q-98 -38 -212.5 -58t-224.5 -20q-212 0 -362.5 86z" />
    <glyph glyph-name="Ccaron" unicode="&#x10c;" horiz-adv-x="1275" 
d="M323 1821h235l158 -110l159 110h229l-283 -235h-209zM387.5 66q-150.5 86 -229 250.5t-78.5 396.5q0 236 90 404t262 255.5t414 87.5q150 0 324 -44l-69 -243q-47 16 -125.5 26t-143.5 10q-150 0 -256.5 -58t-162 -167.5t-55.5 -262.5q0 -154 48.5 -264t142 -167.5
t224.5 -57.5q138 0 352 69l62 -243q-98 -38 -212.5 -58t-224.5 -20q-212 0 -362.5 86z" />
    <glyph glyph-name="Ccedilla" unicode="&#xc7;" horiz-adv-x="1275" 
d="M878 -112q60 -46 60 -132q0 -203 -337 -203q-43 0 -81 3v159q37 -6 72 -6q56 0 85.5 15.5t29.5 42.5q0 68 -103 68l-27 -2v163q-239 49 -368 234t-129 483q0 236 90 404t262 255.5t414 87.5q150 0 324 -44l-69 -243q-47 16 -125.5 26t-143.5 10q-150 0 -256.5 -58
t-162 -167.5t-55.5 -262.5q0 -154 48.5 -264t142 -167.5t224.5 -57.5q138 0 352 69l62 -243q-98 -38 -212.5 -58t-224.5 -20q-32 0 -48 1v-44q116 -3 176 -49z" />
    <glyph glyph-name="Cdotaccent" unicode="&#x10a;" horiz-adv-x="1275" 
d="M635.5 1585q-37.5 20 -59.5 55t-22 76q0 42 21.5 76t59 53t83.5 19q71 0 117 -41.5t46 -106.5q0 -42 -21 -76.5t-58 -54.5t-84 -20q-45 0 -82.5 20zM387.5 66q-150.5 86 -229 250.5t-78.5 396.5q0 236 90 404t262 255.5t414 87.5q150 0 324 -44l-69 -243
q-47 16 -125.5 26t-143.5 10q-150 0 -256.5 -58t-162 -167.5t-55.5 -262.5q0 -154 48.5 -264t142 -167.5t224.5 -57.5q138 0 352 69l62 -243q-98 -38 -212.5 -58t-224.5 -20q-212 0 -362.5 86z" />
    <glyph glyph-name="D" unicode="D" horiz-adv-x="1485" 
d="M172 1433h499q363 0 548 -172t185 -527q0 -224 -93 -389.5t-262.5 -255t-392.5 -89.5l-484 -2v1435zM658 225q150 0 256.5 59t162 171.5t55.5 272.5q0 243 -117.5 362.5t-347.5 118.5l-230 -2v-982h221z" />
    <glyph glyph-name="Eth" unicode="&#xd0;" horiz-adv-x="1485" 
d="M172 1433h499q363 0 548 -172t185 -527q0 -224 -93 -389.5t-262.5 -255t-392.5 -89.5l-484 -2v1435zM658 225q150 0 256.5 59t162 171.5t55.5 272.5q0 243 -117.5 362.5t-347.5 118.5l-230 -2v-982h221zM59 826h671v-203h-671v203z" />
    <glyph glyph-name="Dcaron" unicode="&#x10e;" horiz-adv-x="1485" 
d="M312 1821h235l158 -110l159 110h229l-283 -235h-209zM172 1433h499q363 0 548 -172t185 -527q0 -224 -93 -389.5t-262.5 -255t-392.5 -89.5l-484 -2v1435zM658 225q150 0 256.5 59t162 171.5t55.5 272.5q0 243 -117.5 362.5t-347.5 118.5l-230 -2v-982h221z" />
    <glyph glyph-name="Dcroat" unicode="&#x110;" horiz-adv-x="1485" 
d="M172 1433h499q363 0 548 -172t185 -527q0 -224 -93 -389.5t-262.5 -255t-392.5 -89.5l-484 -2v1435zM658 225q150 0 256.5 59t162 171.5t55.5 272.5q0 243 -117.5 362.5t-347.5 118.5l-230 -2v-982h221zM59 826h671v-203h-671v203z" />
    <glyph glyph-name="E" unicode="E" horiz-adv-x="1072" 
d="M172 1434h795v-219h-530v-378h468v-221h-468v-397h562v-219h-827v1434z" />
    <glyph glyph-name="Eacute" unicode="&#xc9;" horiz-adv-x="1072" 
d="M655 1818h320l-276 -221h-271zM172 1434h795v-219h-530v-378h468v-221h-468v-397h562v-219h-827v1434z" />
    <glyph glyph-name="Ecaron" unicode="&#x11a;" horiz-adv-x="1072" 
d="M172 1821h235l158 -110l159 110h229l-283 -235h-209zM172 1434h795v-219h-530v-378h468v-221h-468v-397h562v-219h-827v1434z" />
    <glyph glyph-name="Ecircumflex" unicode="&#xca;" horiz-adv-x="1072" 
d="M464 1841h209l290 -255h-236l-163 132l-150 -132h-232zM172 1434h795v-219h-530v-378h468v-221h-468v-397h562v-219h-827v1434z" />
    <glyph glyph-name="Edieresis" unicode="&#xcb;" horiz-adv-x="1072" 
d="M237.5 1608.5q-41.5 38.5 -41.5 102.5q0 65 41 102.5t111 37.5t111.5 -37.5t41.5 -102.5t-41 -103t-111 -38t-111.5 38.5zM672 1608q-41 38 -41 103t40.5 102.5t110.5 37.5t111.5 -37.5t41.5 -102.5t-41 -103t-111 -38t-111 38zM172 1434h795v-219h-530v-378h468v-221
h-468v-397h562v-219h-827v1434z" />
    <glyph glyph-name="Edotaccent" unicode="&#x116;" horiz-adv-x="1072" 
d="M483.5 1585q-37.5 20 -59.5 55t-22 76q0 42 21.5 76t59 53t83.5 19q71 0 117 -41.5t46 -106.5q0 -42 -21 -76.5t-58 -54.5t-84 -20q-45 0 -82.5 20zM172 1434h795v-219h-530v-378h468v-221h-468v-397h562v-219h-827v1434z" />
    <glyph glyph-name="Egrave" unicode="&#xc8;" horiz-adv-x="1072" 
d="M199 1811h300l194 -225h-264zM172 1434h795v-219h-530v-378h468v-221h-468v-397h562v-219h-827v1434z" />
    <glyph glyph-name="Emacron" unicode="&#x112;" horiz-adv-x="1072" 
d="M218 1782h696v-193h-696v193zM172 1434h795v-219h-530v-378h468v-221h-468v-397h562v-219h-827v1434z" />
    <glyph glyph-name="Eogonek" unicode="&#x118;" horiz-adv-x="1072" 
d="M1008 -396q-76 -17 -181 -17q-201 0 -201 176q0 77 47.5 138t120.5 99h-622v1434h795v-219h-530v-378h468v-221h-468v-397h562v-219q-56 -23 -96 -52.5t-60 -58.5t-20 -52q0 -40 23 -59.5t72 -19.5q34 0 65 11z" />
    <glyph glyph-name="F" unicode="F" horiz-adv-x="1043" 
d="M172 1434h795v-219h-530v-406h468v-223h-468v-586h-265v1434z" />
    <glyph glyph-name="G" unicode="G" horiz-adv-x="1439" 
d="M417.5 63.5q-158.5 85.5 -247.5 248.5t-89 388q0 237 99.5 408t276.5 261t407 90q98 0 209.5 -13.5t211.5 -32.5l-75 -231q-70 13 -162 25t-175 12q-160 0 -274 -59.5t-173.5 -173.5t-59.5 -275q0 -157 53.5 -270.5t155.5 -173.5t244 -60q67 0 127.5 15.5t104.5 44.5v308
h-284v217h546l1 -692q-114 -58 -253.5 -90t-280.5 -32q-204 0 -362.5 85.5z" />
    <glyph glyph-name="Gbreve" unicode="&#x11e;" horiz-adv-x="1439" 
d="M545 1639.5q-84 62.5 -89 185.5h193q14 -85 143 -85q62 0 98 21.5t45 63.5h194q-13 -123 -99 -185.5t-241 -62.5q-160 0 -244 62.5zM417.5 63.5q-158.5 85.5 -247.5 248.5t-89 388q0 237 99.5 408t276.5 261t407 90q98 0 209.5 -13.5t211.5 -32.5l-75 -231
q-70 13 -162 25t-175 12q-160 0 -274 -59.5t-173.5 -173.5t-59.5 -275q0 -157 53.5 -270.5t155.5 -173.5t244 -60q67 0 127.5 15.5t104.5 44.5v308h-284v217h546l1 -692q-114 -58 -253.5 -90t-280.5 -32q-204 0 -362.5 85.5z" />
    <glyph glyph-name="uni0122" unicode="&#x122;" horiz-adv-x="1439" 
d="M417.5 63.5q-158.5 85.5 -247.5 248.5t-89 388q0 237 99.5 408t276.5 261t407 90q98 0 209.5 -13.5t211.5 -32.5l-75 -231q-70 13 -162 25t-175 12q-160 0 -274 -59.5t-173.5 -173.5t-59.5 -275q0 -157 53.5 -270.5t155.5 -173.5t244 -60q67 0 127.5 15.5t104.5 44.5v308
h-284v217h546l1 -692q-114 -58 -253.5 -90t-280.5 -32q-204 0 -362.5 85.5zM518 -432q41 77 61.5 151t25.5 151h234q-1 -117 -34.5 -223.5t-95.5 -181.5z" />
    <glyph glyph-name="Gdotaccent" unicode="&#x120;" horiz-adv-x="1439" 
d="M710.5 1585q-37.5 20 -59.5 55t-22 76q0 42 21.5 76t59 53t83.5 19q71 0 117 -41.5t46 -106.5q0 -42 -21 -76.5t-58 -54.5t-84 -20q-45 0 -82.5 20zM417.5 63.5q-158.5 85.5 -247.5 248.5t-89 388q0 237 99.5 408t276.5 261t407 90q98 0 209.5 -13.5t211.5 -32.5
l-75 -231q-70 13 -162 25t-175 12q-160 0 -274 -59.5t-173.5 -173.5t-59.5 -275q0 -157 53.5 -270.5t155.5 -173.5t244 -60q67 0 127.5 15.5t104.5 44.5v308h-284v217h546l1 -692q-114 -58 -253.5 -90t-280.5 -32q-204 0 -362.5 85.5z" />
    <glyph glyph-name="H" unicode="H" horiz-adv-x="1531" 
d="M171 1434h264v-604h657v604h267v-1434h-267v601h-657v-601h-264v1434z" />
    <glyph glyph-name="Hbar" unicode="&#x126;" horiz-adv-x="1531" 
d="M1521 1011h-162v-1011h-267v601h-657v-601h-264v1011h-162v188h162v235h264v-235h657v235h267v-235h162v-188zM1092 1011h-657v-181h657v181z" />
    <glyph glyph-name="I" unicode="I" horiz-adv-x="614" 
d="M175 1434h264v-1434h-264v1434z" />
    <glyph glyph-name="IJ" unicode="&#x132;" horiz-adv-x="1466" 
d="M175 1434h264v-1434h-264v1434zM670 -239q130 13 207.5 37.5t123 86.5t45.5 179v1370h261v-1454q0 -238 -161.5 -344.5t-441.5 -117.5z" />
    <glyph glyph-name="Iacute" unicode="&#xcd;" horiz-adv-x="614" 
d="M397 1818h320l-276 -221h-271zM175 1434h264v-1434h-264v1434z" />
    <glyph glyph-name="Icircumflex" unicode="&#xce;" horiz-adv-x="614" 
d="M205 1841h209l290 -255h-236l-163 132l-150 -132h-232zM175 1434h264v-1434h-264v1434z" />
    <glyph glyph-name="Idieresis" unicode="&#xcf;" horiz-adv-x="614" 
d="M-20.5 1608.5q-41.5 38.5 -41.5 102.5q0 65 41 102.5t111 37.5t111.5 -37.5t41.5 -102.5t-41 -103t-111 -38t-111.5 38.5zM414 1608q-41 38 -41 103t40.5 102.5t110.5 37.5t111.5 -37.5t41.5 -102.5t-41 -103t-111 -38t-111 38zM175 1434h264v-1434h-264v1434z" />
    <glyph glyph-name="Idotaccent" unicode="&#x130;" horiz-adv-x="614" 
d="M225.5 1585q-37.5 20 -59.5 55t-22 76q0 42 21.5 76t59 53t83.5 19q71 0 117 -41.5t46 -106.5q0 -42 -21 -76.5t-58 -54.5t-84 -20q-45 0 -82.5 20zM175 1434h264v-1434h-264v1434z" />
    <glyph glyph-name="Igrave" unicode="&#xcc;" horiz-adv-x="614" 
d="M-60 1811h300l194 -225h-264zM175 1434h264v-1434h-264v1434z" />
    <glyph glyph-name="Imacron" unicode="&#x12a;" horiz-adv-x="614" 
d="M-40 1782h696v-193h-696v193zM175 1434h264v-1434h-264v1434z" />
    <glyph glyph-name="Iogonek" unicode="&#x12e;" horiz-adv-x="614" 
d="M472 -396q-76 -17 -181 -17q-201 0 -201 176q0 77 47.5 138t120.5 99h-83v1434h264v-1434h24q-56 -23 -96 -52.5t-60 -58.5t-20 -52q0 -40 23 -59.5t72 -19.5q34 0 65 11z" />
    <glyph glyph-name="J" unicode="J" horiz-adv-x="852" 
d="M56 -239q130 13 207.5 37.5t123 86.5t45.5 179v1370h261v-1454q0 -238 -161.5 -344.5t-441.5 -117.5z" />
    <glyph glyph-name="K" unicode="K" horiz-adv-x="1282" 
d="M632 684l-195 -236v-448h-265v1434h265v-637q35 64 89 129l453 558l291 -25l-457 -555l474 -904h-314z" />
    <glyph glyph-name="uni0136" unicode="&#x136;" horiz-adv-x="1282" 
d="M1287 0h-314l-341 684l-195 -236v-448h-265v1434h265v-637q35 64 89 129l453 558l291 -25l-457 -555zM501.5 -281q20.5 74 25.5 151h234q-1 -117 -34.5 -223.5t-95.5 -181.5l-191 103q41 77 61.5 151z" />
    <glyph glyph-name="L" unicode="L" horiz-adv-x="1019" 
d="M172 1434h265v-1189h552v-245h-817v1434z" />
    <glyph glyph-name="Lacute" unicode="&#x139;" horiz-adv-x="1019" 
d="M396 1815h320l-276 -221h-271zM172 1434h265v-1189h552v-245h-817v1434z" />
    <glyph glyph-name="Lcaron" unicode="&#x13d;" horiz-adv-x="1019" 
d="M172 1434h265v-1189h552v-245h-817v1434zM900 1976h229l-136 -325h-128z" />
    <glyph glyph-name="uni013B" unicode="&#x13b;" horiz-adv-x="1019" 
d="M172 1434h265v-1189h552v-245h-817v1434zM308 -432q41 77 61.5 151t25.5 151h234q-1 -117 -34.5 -223.5t-95.5 -181.5z" />
    <glyph glyph-name="Ldot" unicode="&#x13f;" horiz-adv-x="1019" 
d="M172 1434h265v-1189h552v-245h-817v1434zM674 657q-40 39 -40 104t40 105t107 40q66 0 106.5 -40t40.5 -105q0 -64 -40.5 -103.5t-106.5 -39.5q-67 0 -107 39z" />
    <glyph glyph-name="Lslash" unicode="&#x141;" horiz-adv-x="1019" 
d="M989 245v-245h-817v490l-160 -86v227l160 86v717h265v-574l304 165v-226l-304 -165v-389h552z" />
    <glyph glyph-name="M" unicode="M" horiz-adv-x="1920" 
d="M173 1434h402l315 -846l21 -71q7 -25 22.5 -76.5t24.5 -86.5h6l67 236l327 844h391v-1434h-256v863q0 217 4 330h-4q-16 -82 -37 -142l-402 -1051h-204l-405 1047q-18 39 -34 134h-4q5 -57 5 -326v-855h-239v1434z" />
    <glyph glyph-name="N" unicode="N" horiz-adv-x="1589" 
d="M172 1435h311l628 -952q12 -18 31.5 -56.5t29.5 -59.5h4q-5 37 -8 104t-3 126v837h252l1 -1434h-298l-646 978q-11 17 -27 51t-25 59h-6q4 -21 6 -88.5t2 -129.5v-870h-252v1435z" />
    <glyph glyph-name="Nacute" unicode="&#x143;" horiz-adv-x="1589" 
d="M884 1818h320l-276 -221h-271zM172 1435h311l628 -952q12 -18 31.5 -56.5t29.5 -59.5h4q-5 37 -8 104t-3 126v837h252l1 -1434h-298l-646 978q-11 17 -27 51t-25 59h-6q4 -21 6 -88.5t2 -129.5v-870h-252v1435z" />
    <glyph glyph-name="Ncaron" unicode="&#x147;" horiz-adv-x="1589" 
d="M400 1821h235l158 -110l159 110h229l-283 -235h-209zM172 1435h311l628 -952q12 -18 31.5 -56.5t29.5 -59.5h4q-5 37 -8 104t-3 126v837h252l1 -1434h-298l-646 978q-11 17 -27 51t-25 59h-6q4 -21 6 -88.5t2 -129.5v-870h-252v1435z" />
    <glyph glyph-name="uni0145" unicode="&#x145;" horiz-adv-x="1589" 
d="M172 1435h311l628 -952q12 -18 31.5 -56.5t29.5 -59.5h4q-5 37 -8 104t-3 126v837h252l1 -1434h-298l-646 978q-11 17 -27 51t-25 59h-6q4 -21 6 -88.5t2 -129.5v-870h-252v1435zM593 -432q41 77 61.5 151t25.5 151h234q-1 -117 -34.5 -223.5t-95.5 -181.5z" />
    <glyph glyph-name="Eng" unicode="&#x14a;" horiz-adv-x="1589" 
d="M1418 0v0q0 -243 -138 -357t-374 -125l-41 247q103 12 162.5 39.5t87.5 76t34 125.5l-668 959q-22 30 -52 110h-6q4 -21 6 -88.5t2 -129.5v-857h-259v1435h311l622 -892q12 -18 31.5 -56.5t29.5 -59.5h4q-5 37 -8 104t-3 126v777h258l1 -1313v-121z" />
    <glyph glyph-name="Ntilde" unicode="&#xd1;" horiz-adv-x="1589" 
d="M884 1601q-34 13 -87 40q-39 20 -64 30t-44 10q-76 0 -76 -90h-158q0 129 52.5 201.5t147.5 72.5q35 0 68.5 -13.5t80.5 -38.5q41 -22 67 -32.5t51 -10.5q70 0 70 92h156q0 -128 -53 -201t-145 -73q-32 0 -66 13zM172 1435h311l628 -952q12 -18 31.5 -56.5t29.5 -59.5h4
q-5 37 -8 104t-3 126v837h252l1 -1434h-298l-646 978q-11 17 -27 51t-25 59h-6q4 -21 6 -88.5t2 -129.5v-870h-252v1435z" />
    <glyph glyph-name="O" unicode="O" horiz-adv-x="1550" 
d="M406.5 67.5q-156.5 92.5 -241.5 260t-85 384.5q0 219 85 388t241.5 263t364.5 94q211 0 369.5 -94t243.5 -263t84 -388q0 -217 -85.5 -384.5t-243.5 -260t-368 -92.5q-208 0 -364.5 92.5zM991 270q93 62 142.5 175.5t49.5 263.5q0 154 -49 270t-141.5 180t-219.5 64
q-125 0 -217 -63.5t-141.5 -179t-49.5 -268.5q0 -151 49.5 -265t141.5 -176.5t217 -62.5t218 62z" />
    <glyph glyph-name="Oacute" unicode="&#xd3;" horiz-adv-x="1549" 
d="M866 1818h320l-276 -221h-271zM406.5 67.5q-156.5 92.5 -241.5 260t-85 384.5q0 219 85 388t241.5 263t364.5 94q211 0 369.5 -94t243.5 -263t84 -388q0 -217 -85.5 -384.5t-243.5 -260t-368 -92.5q-208 0 -364.5 92.5zM991 270q93 62 142.5 175.5t49.5 263.5
q0 154 -49 270t-141.5 180t-219.5 64q-125 0 -217 -63.5t-141.5 -179t-49.5 -268.5q0 -151 49.5 -265t141.5 -176.5t217 -62.5t218 62z" />
    <glyph glyph-name="Ocircumflex" unicode="&#xd4;" horiz-adv-x="1549" 
d="M674 1841h209l290 -255h-236l-163 132l-150 -132h-232zM406.5 67.5q-156.5 92.5 -241.5 260t-85 384.5q0 219 85 388t241.5 263t364.5 94q211 0 369.5 -94t243.5 -263t84 -388q0 -217 -85.5 -384.5t-243.5 -260t-368 -92.5q-208 0 -364.5 92.5zM991 270
q93 62 142.5 175.5t49.5 263.5q0 154 -49 270t-141.5 180t-219.5 64q-125 0 -217 -63.5t-141.5 -179t-49.5 -268.5q0 -151 49.5 -265t141.5 -176.5t217 -62.5t218 62z" />
    <glyph glyph-name="Odieresis" unicode="&#xd6;" horiz-adv-x="1549" 
d="M448.5 1608.5q-41.5 38.5 -41.5 102.5q0 65 41 102.5t111 37.5t111.5 -37.5t41.5 -102.5t-41 -103t-111 -38t-111.5 38.5zM883 1608q-41 38 -41 103t40.5 102.5t110.5 37.5t111.5 -37.5t41.5 -102.5t-41 -103t-111 -38t-111 38zM406.5 67.5q-156.5 92.5 -241.5 260
t-85 384.5q0 219 85 388t241.5 263t364.5 94q211 0 369.5 -94t243.5 -263t84 -388q0 -217 -85.5 -384.5t-243.5 -260t-368 -92.5q-208 0 -364.5 92.5zM991 270q93 62 142.5 175.5t49.5 263.5q0 154 -49 270t-141.5 180t-219.5 64q-125 0 -217 -63.5t-141.5 -179
t-49.5 -268.5q0 -151 49.5 -265t141.5 -176.5t217 -62.5t218 62z" />
    <glyph glyph-name="Ograve" unicode="&#xd2;" horiz-adv-x="1549" 
d="M409 1811h300l194 -225h-264zM406.5 67.5q-156.5 92.5 -241.5 260t-85 384.5q0 219 85 388t241.5 263t364.5 94q211 0 369.5 -94t243.5 -263t84 -388q0 -217 -85.5 -384.5t-243.5 -260t-368 -92.5q-208 0 -364.5 92.5zM991 270q93 62 142.5 175.5t49.5 263.5
q0 154 -49 270t-141.5 180t-219.5 64q-125 0 -217 -63.5t-141.5 -179t-49.5 -268.5q0 -151 49.5 -265t141.5 -176.5t217 -62.5t218 62z" />
    <glyph glyph-name="Ohungarumlaut" unicode="&#x150;" horiz-adv-x="1550" 
d="M659 1795h245l-218 -208h-210zM1022 1795h247l-223 -208h-209zM406.5 67.5q-156.5 92.5 -241.5 260t-85 384.5q0 219 85 388t241.5 263t364.5 94q211 0 369.5 -94t243.5 -263t84 -388q0 -217 -85.5 -384.5t-243.5 -260t-368 -92.5q-208 0 -364.5 92.5zM991 270
q93 62 142.5 175.5t49.5 263.5q0 154 -49 270t-141.5 180t-219.5 64q-125 0 -217 -63.5t-141.5 -179t-49.5 -268.5q0 -151 49.5 -265t141.5 -176.5t217 -62.5t218 62z" />
    <glyph glyph-name="Omacron" unicode="&#x14c;" horiz-adv-x="1550" 
d="M429 1782h696v-193h-696v193zM406.5 67.5q-156.5 92.5 -241.5 260t-85 384.5q0 219 85 388t241.5 263t364.5 94q211 0 369.5 -94t243.5 -263t84 -388q0 -217 -85.5 -384.5t-243.5 -260t-368 -92.5q-208 0 -364.5 92.5zM991 270q93 62 142.5 175.5t49.5 263.5
q0 154 -49 270t-141.5 180t-219.5 64q-125 0 -217 -63.5t-141.5 -179t-49.5 -268.5q0 -151 49.5 -265t141.5 -176.5t217 -62.5t218 62z" />
    <glyph glyph-name="Oslash" unicode="&#xd8;" horiz-adv-x="1550" 
d="M1424.5 1003.5q44.5 -133.5 43.5 -291.5q0 -217 -85.5 -384.5t-243.5 -260t-368 -92.5q-127 0 -236 35.5t-195 103.5l-146 -172l-109 91l153 181q-77 96 -117.5 223t-40.5 275q0 219 85 388t241.5 263t364.5 94q122 0 228 -32.5t191 -93.5l134 159l110 -90l-140 -164
q86 -99 130.5 -232.5zM422 430l601 705q-102 88 -250 88q-125 0 -217 -63.5t-141.5 -179t-49.5 -268.5q0 -162 57 -282zM991 270q93 62 142.5 175.5t49.5 263.5q0 183 -70 314l-606 -713q52 -50 119 -76t147 -26q125 0 218 62z" />
    <glyph glyph-name="Otilde" unicode="&#xd5;" horiz-adv-x="1549" 
d="M866 1601q-34 13 -87 40q-39 20 -64 30t-44 10q-76 0 -76 -90h-158q0 129 52.5 201.5t147.5 72.5q35 0 68.5 -13.5t80.5 -38.5q41 -22 67 -32.5t51 -10.5q70 0 70 92h156q0 -128 -53 -201t-145 -73q-32 0 -66 13zM406.5 67.5q-156.5 92.5 -241.5 260t-85 384.5
q0 219 85 388t241.5 263t364.5 94q211 0 369.5 -94t243.5 -263t84 -388q0 -217 -85.5 -384.5t-243.5 -260t-368 -92.5q-208 0 -364.5 92.5zM991 270q93 62 142.5 175.5t49.5 263.5q0 154 -49 270t-141.5 180t-219.5 64q-125 0 -217 -63.5t-141.5 -179t-49.5 -268.5
q0 -151 49.5 -265t141.5 -176.5t217 -62.5t218 62z" />
    <glyph glyph-name="OE" unicode="&#x152;" horiz-adv-x="1919" 
d="M1837 219v-219h-735q-48 0 -145 -11q-128 -14 -207 -14q-202 0 -354 92.5t-234.5 260t-82.5 384.5q0 219 90.5 388t257 263t386.5 94q39 0 82.5 -4t83.5 -9q88 -10 123 -10h703v-219h-529v-378h467v-221h-467v-397h561zM417 450.5q46 -112.5 131.5 -174t202.5 -61.5
q152 0 260 19v957q-83 25 -196 25q-136 0 -236.5 -62.5t-154 -176.5t-53.5 -265q0 -149 46 -261.5z" />
    <glyph glyph-name="P" unicode="P" horiz-adv-x="1221" 
d="M173 1434h497q153 0 263.5 -52.5t170 -155.5t59.5 -251q0 -142 -67 -247t-186 -161.5t-272 -56.5h-201v-510h-264v1434zM626 724q121 0 189.5 61.5t68.5 181.5q0 252 -236 252l-212 -1v-494h190z" />
    <glyph glyph-name="Thorn" unicode="&#xde;" horiz-adv-x="1221" 
d="M933.5 1150.5q110.5 -52.5 170 -155.5t59.5 -251q0 -142 -68 -247t-188.5 -161.5t-275.5 -56.5h-194v-279h-264v1434h263v-231h234q153 0 263.5 -52.5zM813.5 554.5q70.5 61.5 70.5 181.5q0 252 -243 252l-205 -1v-494h183q124 0 194.5 61.5z" />
    <glyph glyph-name="Q" unicode="Q" horiz-adv-x="1550" 
d="M1335 -55.5q90 -63.5 195 -94.5l-124 -218q-139 38 -259 132.5t-200 229.5q-80 -19 -176 -19q-208 0 -364.5 92.5t-241.5 260t-85 384.5q0 219 85 388t241.5 263t364.5 94q210 0 368 -93t243.5 -260.5t85.5 -384.5q0 -205 -74 -366t-211 -257q62 -88 152 -151.5z
M414.5 447q49.5 -114 141.5 -176.5t217 -62.5t218 62t142.5 175.5t49.5 263.5q0 154 -49 270t-141.5 180t-219.5 64q-125 0 -217 -63.5t-141.5 -179t-49.5 -268.5q0 -151 49.5 -265z" />
    <glyph glyph-name="R" unicode="R" horiz-adv-x="1300" 
d="M990 0l-394 612h-157v-612h-266v1434h506q143 0 249.5 -47.5t164.5 -139.5t58 -224q-1 -131 -73.5 -226.5t-198.5 -143.5l428 -653h-317zM580 776q139 0 216.5 59.5t77.5 170.5q0 112 -70.5 168.5t-201.5 54.5l-164 -1v-452h142z" />
    <glyph glyph-name="Racute" unicode="&#x154;" horiz-adv-x="1300" 
d="M750 1587h-271l227 221h320zM990 0l-394 612h-157v-612h-266v1434h506q143 0 249.5 -47.5t164.5 -139.5t58 -224q-1 -131 -73.5 -226.5t-198.5 -143.5l428 -653h-317zM580 776q139 0 216.5 59.5t77.5 170.5q0 112 -70.5 168.5t-201.5 54.5l-164 -1v-452h142z" />
    <glyph glyph-name="Rcaron" unicode="&#x158;" horiz-adv-x="1300" 
d="M512 1576l-289 235h235l158 -110l159 110h229l-283 -235h-209zM990 0l-394 612h-157v-612h-266v1434h506q143 0 249.5 -47.5t164.5 -139.5t58 -224q-1 -131 -73.5 -226.5t-198.5 -143.5l428 -653h-317zM580 776q139 0 216.5 59.5t77.5 170.5q0 112 -70.5 168.5
t-201.5 54.5l-164 -1v-452h142z" />
    <glyph glyph-name="uni0156" unicode="&#x156;" horiz-adv-x="1300" 
d="M1307 0h-317l-394 612h-157v-612h-266v1434h506q143 0 249.5 -47.5t164.5 -139.5t58 -224q-1 -131 -73.5 -226.5t-198.5 -143.5zM580 776q139 0 216.5 59.5t77.5 170.5q0 112 -70.5 168.5t-201.5 54.5l-164 -1v-452h142zM510.5 -281q20.5 74 25.5 151h234
q-1 -117 -34.5 -223.5t-95.5 -181.5l-191 103q41 77 61.5 151z" />
    <glyph glyph-name="S" unicode="S" horiz-adv-x="1128" 
d="M316 9q-103 27 -236 89l92 236q117 -59 197 -81t165 -22q132 0 193 49.5t61 132.5q0 50 -33.5 86t-84 60t-142.5 59q-128 48 -209 91.5t-138.5 122.5t-57.5 201q0 142 70 237t185 139.5t254 44.5q101 0 190 -19.5t176 -54.5l-85 -230l-25 9q-62 24 -116 37t-130 13
q-98 0 -167 -39t-69 -122q0 -43 29.5 -75t75 -54.5t127.5 -54.5q127 -51 209 -97t141 -131.5t59 -216.5q0 -134 -60.5 -232.5t-175.5 -151.5t-277 -53q-115 0 -218 27z" />
    <glyph glyph-name="Sacute" unicode="&#x15a;" horiz-adv-x="1128" 
d="M657 1818h320l-276 -221h-271zM316 9q-103 27 -236 89l92 236q117 -59 197 -81t165 -22q132 0 193 49.5t61 132.5q0 50 -33.5 86t-84 60t-142.5 59q-128 48 -209 91.5t-138.5 122.5t-57.5 201q0 142 70 237t185 139.5t254 44.5q101 0 190 -19.5t176 -54.5l-85 -230l-25 9
q-62 24 -116 37t-130 13q-98 0 -167 -39t-69 -122q0 -43 29.5 -75t75 -54.5t127.5 -54.5q127 -51 209 -97t141 -131.5t59 -216.5q0 -134 -60.5 -232.5t-175.5 -151.5t-277 -53q-115 0 -218 27z" />
    <glyph glyph-name="Scaron" unicode="&#x160;" horiz-adv-x="1128" 
d="M173 1821h235l158 -110l159 110h229l-283 -235h-209zM316 9q-103 27 -236 89l92 236q117 -59 197 -81t165 -22q132 0 193 49.5t61 132.5q0 50 -33.5 86t-84 60t-142.5 59q-128 48 -209 91.5t-138.5 122.5t-57.5 201q0 142 70 237t185 139.5t254 44.5q101 0 190 -19.5
t176 -54.5l-85 -230l-25 9q-62 24 -116 37t-130 13q-98 0 -167 -39t-69 -122q0 -43 29.5 -75t75 -54.5t127.5 -54.5q127 -51 209 -97t141 -131.5t59 -216.5q0 -134 -60.5 -232.5t-175.5 -151.5t-277 -53q-115 0 -218 27z" />
    <glyph glyph-name="Scedilla" unicode="&#x15e;" horiz-adv-x="1128" 
d="M435.5 973q29.5 -32 75 -54.5t127.5 -54.5q127 -51 209 -97t141 -131.5t59 -216.5q0 -121 -48.5 -213t-142.5 -148.5t-227 -70.5v-50q116 -3 176 -49t60 -132q0 -203 -337 -203q-44 0 -81 3v159q37 -6 72 -6q56 0 85.5 15.5t29.5 42.5q0 68 -103 68l-27 -2v150
q-104 3 -201.5 30t-222.5 85l92 236q117 -59 197 -81t165 -22q132 0 193 49.5t61 132.5q0 50 -33.5 86t-84 60t-142.5 59q-128 48 -209 91.5t-138.5 122.5t-57.5 201q0 142 70 237t185 139.5t254 44.5q101 0 190 -19.5t176 -54.5l-85 -230l-25 9q-62 24 -116 37t-130 13
q-98 0 -167 -39t-69 -122q0 -43 29.5 -75z" />
    <glyph glyph-name="uni0218" unicode="&#x218;" horiz-adv-x="1128" 
d="M316 9q-103 27 -236 89l92 236q117 -59 197 -81t165 -22q132 0 193 49.5t61 132.5q0 50 -33.5 86t-84 60t-142.5 59q-128 48 -209 91.5t-138.5 122.5t-57.5 201q0 142 70 237t185 139.5t254 44.5q101 0 190 -19.5t176 -54.5l-85 -230l-25 9q-62 24 -116 37t-130 13
q-98 0 -167 -39t-69 -122q0 -43 29.5 -75t75 -54.5t127.5 -54.5q127 -51 209 -97t141 -131.5t59 -216.5q0 -134 -60.5 -232.5t-175.5 -151.5t-277 -53q-115 0 -218 27zM362 -432q41 77 61.5 151t25.5 151h234q-1 -117 -34.5 -223.5t-95.5 -181.5z" />
    <glyph glyph-name="T" unicode="T" horiz-adv-x="1158" 
d="M447 1211h-413v223h1092v-223h-414v-1211h-265v1211z" />
    <glyph glyph-name="Tbar" unicode="&#x166;" horiz-adv-x="1158" 
d="M712 1211v-385h197v-203h-197v-623h-265v623h-209v203h209v385h-413v223h1092v-223h-414z" />
    <glyph glyph-name="Tcaron" unicode="&#x164;" horiz-adv-x="1158" 
d="M185 1821h235l158 -110l159 110h229l-283 -235h-209zM447 1211h-413v223h1092v-223h-414v-1211h-265v1211z" />
    <glyph glyph-name="uni0162" unicode="&#x162;" horiz-adv-x="1158" 
d="M646 0v-63q116 -3 176 -49t60 -132q0 -203 -337 -203q-43 0 -81 3v159q38 -6 72 -6q56 0 85.5 15.5t29.5 42.5q0 68 -103 68l-27 -2v167h-74v1211h-413v223h1092v-223h-414v-1211h-66z" />
    <glyph glyph-name="uni021A" unicode="&#x21a;" horiz-adv-x="1158" 
d="M447 1211h-413v223h1092v-223h-414v-1211h-265v1211zM379 -432q41 77 61.5 151t25.5 151h234q-1 -117 -34.5 -223.5t-95.5 -181.5z" />
    <glyph glyph-name="U" unicode="U" horiz-adv-x="1456" 
d="M292.5 125q-138.5 149 -138.5 432v877h266v-859q0 -362 316 -362q300 0 300 347v874h265v-854q0 -604 -582 -604q-288 0 -426.5 149z" />
    <glyph glyph-name="Uacute" unicode="&#xda;" horiz-adv-x="1456" 
d="M818 1818h320l-276 -221h-271zM292.5 125q-138.5 149 -138.5 432v877h266v-859q0 -362 316 -362q300 0 300 347v874h265v-854q0 -604 -582 -604q-288 0 -426.5 149z" />
    <glyph glyph-name="Ucircumflex" unicode="&#xdb;" horiz-adv-x="1456" 
d="M626 1841h209l290 -255h-236l-163 132l-150 -132h-232zM292.5 125q-138.5 149 -138.5 432v877h266v-859q0 -362 316 -362q300 0 300 347v874h265v-854q0 -604 -582 -604q-288 0 -426.5 149z" />
    <glyph glyph-name="Udieresis" unicode="&#xdc;" horiz-adv-x="1456" 
d="M400.5 1608.5q-41.5 38.5 -41.5 102.5q0 65 41 102.5t111 37.5t111.5 -37.5t41.5 -102.5t-41 -103t-111 -38t-111.5 38.5zM835 1608q-41 38 -41 103t40.5 102.5t110.5 37.5t111.5 -37.5t41.5 -102.5t-41 -103t-111 -38t-111 38zM292.5 125q-138.5 149 -138.5 432v877h266
v-859q0 -362 316 -362q300 0 300 347v874h265v-854q0 -604 -582 -604q-288 0 -426.5 149z" />
    <glyph glyph-name="Ugrave" unicode="&#xd9;" horiz-adv-x="1456" 
d="M361 1811h300l194 -225h-264zM292.5 125q-138.5 149 -138.5 432v877h266v-859q0 -362 316 -362q300 0 300 347v874h265v-854q0 -604 -582 -604q-288 0 -426.5 149z" />
    <glyph glyph-name="Uhungarumlaut" unicode="&#x170;" horiz-adv-x="1456" 
d="M611 1795h245l-218 -208h-210zM974 1795h247l-223 -208h-209zM292.5 125q-138.5 149 -138.5 432v877h266v-859q0 -362 316 -362q300 0 300 347v874h265v-854q0 -604 -582 -604q-288 0 -426.5 149z" />
    <glyph glyph-name="Umacron" unicode="&#x16a;" horiz-adv-x="1456" 
d="M381 1782h696v-193h-696v193zM292.5 125q-138.5 149 -138.5 432v877h266v-859q0 -362 316 -362q300 0 300 347v874h265v-854q0 -604 -582 -604q-288 0 -426.5 149z" />
    <glyph glyph-name="Uogonek" unicode="&#x172;" horiz-adv-x="1456" 
d="M1301 1434v-854q0 -524 -440 -594q-69 -33 -107 -75t-38 -74q0 -40 23 -59.5t72 -19.5q34 0 65 11l25 -165q-76 -17 -181 -17q-201 0 -201 176q0 67 36 121.5t95 93.5q-252 18 -374 165.5t-122 413.5v877h266v-859q0 -362 316 -362q300 0 300 347v874h265z" />
    <glyph glyph-name="Uring" unicode="&#x16e;" horiz-adv-x="1456" 
d="M610 1574q-51 27 -80.5 74t-29.5 105q0 60 30 109t82.5 77t117.5 28q64 0 115.5 -27t81.5 -74.5t30 -106.5q0 -60 -30.5 -108.5t-83.5 -76t-119 -27.5q-63 0 -114 27zM789 1700q24 23 24 57t-24 57.5t-59 23.5q-37 0 -61.5 -23t-24.5 -58q0 -34 24.5 -57t61.5 -23
q35 0 59 23zM292.5 125q-138.5 149 -138.5 432v877h266v-859q0 -362 316 -362q300 0 300 347v874h265v-854q0 -604 -582 -604q-288 0 -426.5 149z" />
    <glyph glyph-name="V" unicode="V" horiz-adv-x="1335" 
d="M12 1433h288l334 -1053q24 -72 30 -127h4q4 28 13.5 62.5t20.5 67.5l344 1051l278 -1l-508 -1434h-303z" />
    <glyph glyph-name="W" unicode="W" horiz-adv-x="2010" 
d="M20 1434h290l240 -1005q22 -97 24 -144h5q3 24 12.5 66t19.5 78l285 1005h271l263 -1013q17 -71 24 -134h4q1 21 10 62t17 76l234 1009h270l-388 -1434h-297l-261 980q-8 32 -15 73.5t-8 72.5h-4q-6 -71 -26 -144l-271 -982h-307z" />
    <glyph glyph-name="Wacute" unicode="&#x1e82;" horiz-adv-x="2010" 
d="M1111 1818h320l-276 -221h-271zM20 1434h290l240 -1005q22 -97 24 -144h5q3 24 12.5 66t19.5 78l285 1005h271l263 -1013q17 -71 24 -134h4q1 21 10 62t17 76l234 1009h270l-388 -1434h-297l-261 980q-8 32 -15 73.5t-8 72.5h-4q-6 -71 -26 -144l-271 -982h-307z" />
    <glyph glyph-name="Wcircumflex" unicode="&#x174;" horiz-adv-x="2010" 
d="M919 1841h209l290 -255h-236l-163 132l-150 -132h-232zM20 1434h290l240 -1005q22 -97 24 -144h5q3 24 12.5 66t19.5 78l285 1005h271l263 -1013q17 -71 24 -134h4q1 21 10 62t17 76l234 1009h270l-388 -1434h-297l-261 980q-8 32 -15 73.5t-8 72.5h-4q-6 -71 -26 -144
l-271 -982h-307z" />
    <glyph glyph-name="Wdieresis" unicode="&#x1e84;" horiz-adv-x="2010" 
d="M693.5 1608.5q-41.5 38.5 -41.5 102.5q0 65 41 102.5t111 37.5t111.5 -37.5t41.5 -102.5t-41 -103t-111 -38t-111.5 38.5zM1128 1608q-41 38 -41 103t40.5 102.5t110.5 37.5t111.5 -37.5t41.5 -102.5t-41 -103t-111 -38t-111 38zM20 1434h290l240 -1005q22 -97 24 -144h5
q3 24 12.5 66t19.5 78l285 1005h271l263 -1013q17 -71 24 -134h4q1 21 10 62t17 76l234 1009h270l-388 -1434h-297l-261 980q-8 32 -15 73.5t-8 72.5h-4q-6 -71 -26 -144l-271 -982h-307z" />
    <glyph glyph-name="Wgrave" unicode="&#x1e80;" horiz-adv-x="2010" 
d="M654 1811h300l194 -225h-264zM20 1434h290l240 -1005q22 -97 24 -144h5q3 24 12.5 66t19.5 78l285 1005h271l263 -1013q17 -71 24 -134h4q1 21 10 62t17 76l234 1009h270l-388 -1434h-297l-261 980q-8 32 -15 73.5t-8 72.5h-4q-6 -71 -26 -144l-271 -982h-307z" />
    <glyph glyph-name="X" unicode="X" horiz-adv-x="1297" 
d="M479 723l-435 712h324l235 -458q37 -71 50 -102h4l20 40q17 36 36 70l255 449h298l-430 -711l449 -723h-317l-276 505q-28 55 -34 72h-4l-35 -71l-287 -506h-319z" />
    <glyph glyph-name="Y" unicode="Y" horiz-adv-x="1206" 
d="M467 499l-461 935h313l250 -566q11 -27 35 -102h3q9 37 37 102l263 566h297l-472 -931v-503h-265v499z" />
    <glyph glyph-name="Yacute" unicode="&#xdd;" horiz-adv-x="1206" 
d="M693 1818h320l-276 -221h-271zM467 499l-461 935h313l250 -566q11 -27 35 -102h3q9 37 37 102l263 566h297l-472 -931v-503h-265v499z" />
    <glyph glyph-name="Ycircumflex" unicode="&#x176;" horiz-adv-x="1206" 
d="M501 1841h209l290 -255h-236l-163 132l-150 -132h-232zM467 499l-461 935h313l250 -566q11 -27 35 -102h3q9 37 37 102l263 566h297l-472 -931v-503h-265v499z" />
    <glyph glyph-name="Ydieresis" unicode="&#x178;" horiz-adv-x="1206" 
d="M275.5 1608.5q-41.5 38.5 -41.5 102.5q0 65 41 102.5t111 37.5t111.5 -37.5t41.5 -102.5t-41 -103t-111 -38t-111.5 38.5zM710 1608q-41 38 -41 103t40.5 102.5t110.5 37.5t111.5 -37.5t41.5 -102.5t-41 -103t-111 -38t-111 38zM467 499l-461 935h313l250 -566
q11 -27 35 -102h3q9 37 37 102l263 566h297l-472 -931v-503h-265v499z" />
    <glyph glyph-name="Ygrave" unicode="&#x1ef2;" horiz-adv-x="1206" 
d="M236 1811h300l194 -225h-264zM467 499l-461 935h313l250 -566q11 -27 35 -102h3q9 37 37 102l263 566h297l-472 -931v-503h-265v499z" />
    <glyph glyph-name="Z" unicode="Z" horiz-adv-x="1218" 
d="M46 47l690 1148h-656v239h1079v-40l-685 -1149h691v-245h-1119v47z" />
    <glyph glyph-name="Zacute" unicode="&#x179;" horiz-adv-x="1218" 
d="M699 1818h320l-276 -221h-271zM46 47l690 1148h-656v239h1079v-40l-685 -1149h691v-245h-1119v47z" />
    <glyph glyph-name="Zcaron" unicode="&#x17d;" horiz-adv-x="1218" 
d="M215 1821h235l158 -110l159 110h229l-283 -235h-209zM46 47l690 1148h-656v239h1079v-40l-685 -1149h691v-245h-1119v47z" />
    <glyph glyph-name="Zdotaccent" unicode="&#x17b;" horiz-adv-x="1218" 
d="M527.5 1585q-37.5 20 -59.5 55t-22 76q0 42 21.5 76t59 53t83.5 19q71 0 117 -41.5t46 -106.5q0 -42 -21 -76.5t-58 -54.5t-84 -20q-45 0 -82.5 20zM46 47l690 1148h-656v239h1079v-40l-685 -1149h691v-245h-1119v47z" />
    <glyph glyph-name="a" unicode="a" horiz-adv-x="1082" 
d="M795 -39q-48 100 -73 200q-19 -50 -65 -92t-107.5 -67t-124.5 -25q-102 0 -182.5 31t-127.5 96t-47 162q0 101 50.5 174.5t143.5 113t218 39.5q112 0 223 -53v64q0 92 -48 134.5t-141 42.5q-50 0 -142.5 -10.5t-171.5 -27.5l-28 218q141 20 221 29.5t134 9.5
q211 0 320.5 -96t110.5 -286l2 -288q1 -147 74 -302zM597.5 201.5q50.5 24.5 78 66.5t27.5 94q-92 28 -198 28q-85 0 -134 -30.5t-48 -84.5q0 -43 44 -70.5t115 -27.5q65 0 115.5 24.5z" />
    <glyph glyph-name="aacute" unicode="&#xe1;" horiz-adv-x="1082" 
d="M795 -39q-48 100 -73 200q-19 -50 -65 -92t-107.5 -67t-124.5 -25q-102 0 -182.5 31t-127.5 96t-47 162q0 101 50.5 174.5t143.5 113t218 39.5q112 0 223 -53v64q0 92 -48 134.5t-141 42.5q-50 0 -142.5 -10.5t-171.5 -27.5l-28 218q141 20 221 29.5t134 9.5
q211 0 320.5 -96t110.5 -286l2 -288q1 -147 74 -302zM597.5 201.5q50.5 24.5 78 66.5t27.5 94q-92 28 -198 28q-85 0 -134 -30.5t-48 -84.5q0 -43 44 -70.5t115 -27.5q65 0 115.5 24.5zM624 1521h272l-276 -324h-224z" />
    <glyph glyph-name="abreve" unicode="&#x103;" horiz-adv-x="1082" 
d="M795 -39q-48 100 -73 200q-19 -50 -65 -92t-107.5 -67t-124.5 -25q-102 0 -182.5 31t-127.5 96t-47 162q0 101 50.5 174.5t143.5 113t218 39.5q112 0 223 -53v64q0 92 -48 134.5t-141 42.5q-50 0 -142.5 -10.5t-171.5 -27.5l-28 218q141 20 221 29.5t134 9.5
q211 0 320.5 -96t110.5 -286l2 -288q1 -147 74 -302zM597.5 201.5q50.5 24.5 78 66.5t27.5 94q-92 28 -198 28q-85 0 -134 -30.5t-48 -84.5q0 -43 44 -70.5t115 -27.5q65 0 115.5 24.5zM377 1224.5q-70 37.5 -110 105t-43 155.5h186q12 -121 130 -121q55 0 88.5 31t40.5 90
h188q-7 -90 -49 -157.5t-112 -104t-159 -36.5q-90 0 -160 37.5z" />
    <glyph glyph-name="acircumflex" unicode="&#xe2;" horiz-adv-x="1082" 
d="M795 -39q-48 100 -73 200q-19 -50 -65 -92t-107.5 -67t-124.5 -25q-102 0 -182.5 31t-127.5 96t-47 162q0 101 50.5 174.5t143.5 113t218 39.5q112 0 223 -53v64q0 92 -48 134.5t-141 42.5q-50 0 -142.5 -10.5t-171.5 -27.5l-28 218q141 20 221 29.5t134 9.5
q211 0 320.5 -96t110.5 -286l2 -288q1 -147 74 -302zM597.5 201.5q50.5 24.5 78 66.5t27.5 94q-92 28 -198 28q-85 0 -134 -30.5t-48 -84.5q0 -43 44 -70.5t115 -27.5q65 0 115.5 24.5zM436 1524h209l230 -327h-206l-133 175l-126 -175h-203z" />
    <glyph glyph-name="adieresis" unicode="&#xe4;" horiz-adv-x="1082" 
d="M795 -39q-48 100 -73 200q-19 -50 -65 -92t-107.5 -67t-124.5 -25q-102 0 -182.5 31t-127.5 96t-47 162q0 101 50.5 174.5t143.5 113t218 39.5q112 0 223 -53v64q0 92 -48 134.5t-141 42.5q-50 0 -142.5 -10.5t-171.5 -27.5l-28 218q141 20 221 29.5t134 9.5
q211 0 320.5 -96t110.5 -286l2 -288q1 -147 74 -302zM597.5 201.5q50.5 24.5 78 66.5t27.5 94q-92 28 -198 28q-85 0 -134 -30.5t-48 -84.5q0 -43 44 -70.5t115 -27.5q65 0 115.5 24.5zM212.5 1208.5q-41.5 38.5 -41.5 102.5q0 65 41 102.5t111 37.5t111.5 -37.5
t41.5 -102.5t-41 -103t-111 -38t-111.5 38.5zM647 1208q-41 38 -41 103t40.5 102.5t110.5 37.5t111.5 -37.5t41.5 -102.5t-41 -103t-111 -38t-111 38z" />
    <glyph glyph-name="agrave" unicode="&#xe0;" horiz-adv-x="1082" 
d="M795 -39q-48 100 -73 200q-19 -50 -65 -92t-107.5 -67t-124.5 -25q-102 0 -182.5 31t-127.5 96t-47 162q0 101 50.5 174.5t143.5 113t218 39.5q112 0 223 -53v64q0 92 -48 134.5t-141 42.5q-50 0 -142.5 -10.5t-171.5 -27.5l-28 218q141 20 221 29.5t134 9.5
q211 0 320.5 -96t110.5 -286l2 -288q1 -147 74 -302zM597.5 201.5q50.5 24.5 78 66.5t27.5 94q-92 28 -198 28q-85 0 -134 -30.5t-48 -84.5q0 -43 44 -70.5t115 -27.5q65 0 115.5 24.5zM224 1538h266l167 -341h-230z" />
    <glyph glyph-name="amacron" unicode="&#x101;" horiz-adv-x="1082" 
d="M795 -39q-48 100 -73 200q-19 -50 -65 -92t-107.5 -67t-124.5 -25q-102 0 -182.5 31t-127.5 96t-47 162q0 101 50.5 174.5t143.5 113t218 39.5q112 0 223 -53v64q0 92 -48 134.5t-141 42.5q-50 0 -142.5 -10.5t-171.5 -27.5l-28 218q141 20 221 29.5t134 9.5
q211 0 320.5 -96t110.5 -286l2 -288q1 -147 74 -302zM597.5 201.5q50.5 24.5 78 66.5t27.5 94q-92 28 -198 28q-85 0 -134 -30.5t-48 -84.5q0 -43 44 -70.5t115 -27.5q65 0 115.5 24.5zM133 1382h816v-193h-816v193z" />
    <glyph glyph-name="aogonek" unicode="&#x105;" horiz-adv-x="1082" 
d="M1010 -235l12 -161q-53 -17 -117 -17q-108 0 -166 44.5t-58 128.5q0 56 27.5 110.5t80.5 103.5q-44 95 -67 187q-19 -50 -65 -92t-107.5 -67t-124.5 -25q-102 0 -182.5 31t-127.5 96t-47 162q0 101 50.5 174.5t143.5 113t218 39.5q112 0 223 -53v64q0 92 -48 134.5
t-141 42.5q-50 0 -142.5 -10.5t-171.5 -27.5l-28 218q141 20 221 29.5t134 9.5q211 0 320.5 -96t110.5 -286l2 -288q1 -147 74 -302q-76 -55 -115.5 -104.5t-39.5 -89.5q0 -39 18.5 -60t52.5 -21q33 0 60 12zM597.5 201.5q50.5 24.5 78 66.5t27.5 94q-92 28 -198 28
q-85 0 -134 -30.5t-48 -84.5q0 -43 44 -70.5t115 -27.5q65 0 115.5 24.5z" />
    <glyph glyph-name="aring" unicode="&#xe5;" horiz-adv-x="1082" 
d="M795 -39q-48 100 -73 200q-19 -50 -65 -92t-107.5 -67t-124.5 -25q-102 0 -182.5 31t-127.5 96t-47 162q0 101 50.5 174.5t143.5 113t218 39.5q112 0 223 -53v64q0 92 -48 134.5t-141 42.5q-50 0 -142.5 -10.5t-171.5 -27.5l-28 218q141 20 221 29.5t134 9.5
q211 0 320.5 -96t110.5 -286l2 -288q1 -147 74 -302zM597.5 201.5q50.5 24.5 78 66.5t27.5 94q-92 28 -198 28q-85 0 -134 -30.5t-48 -84.5q0 -43 44 -70.5t115 -27.5q65 0 115.5 24.5zM422 1180q-51 27 -80.5 74t-29.5 105q0 60 30 109t82.5 77t117.5 28q64 0 115.5 -27
t81.5 -74.5t30 -106.5q0 -60 -30.5 -108.5t-83.5 -76t-119 -27.5q-63 0 -114 27zM601 1306q24 23 24 57t-24 57.5t-59 23.5q-37 0 -61.5 -23t-24.5 -58q0 -34 24.5 -57t61.5 -23q35 0 59 23z" />
    <glyph glyph-name="atilde" unicode="&#xe3;" horiz-adv-x="1082" 
d="M795 -39q-48 100 -73 200q-19 -50 -65 -92t-107.5 -67t-124.5 -25q-102 0 -182.5 31t-127.5 96t-47 162q0 101 50.5 174.5t143.5 113t218 39.5q112 0 223 -53v64q0 92 -48 134.5t-141 42.5q-50 0 -142.5 -10.5t-171.5 -27.5l-28 218q141 20 221 29.5t134 9.5
q211 0 320.5 -96t110.5 -286l2 -288q1 -147 74 -302zM597.5 201.5q50.5 24.5 78 66.5t27.5 94q-92 28 -198 28q-85 0 -134 -30.5t-48 -84.5q0 -43 44 -70.5t115 -27.5q65 0 115.5 24.5zM630 1201q-34 13 -87 40q-39 20 -64 30t-44 10q-76 0 -76 -90h-158q0 129 52.5 201.5
t147.5 72.5q35 0 68.5 -13.5t80.5 -38.5q41 -22 67 -32.5t51 -10.5q70 0 70 92h156q0 -128 -53 -201t-145 -73q-32 0 -66 13z" />
    <glyph glyph-name="ae" unicode="&#xe6;" horiz-adv-x="1699" 
d="M1454.5 940.5q100.5 -62.5 148.5 -163.5t48 -219q0 -80 -24 -163l-658 -5q25 -92 96.5 -143.5t183.5 -51.5q67 0 142 15t150 44l51 -207q-71 -30 -180 -50t-198 -20q-152 0 -263 50t-174 152q-17 -54 -71 -100.5t-129 -74t-153 -27.5q-102 0 -182.5 31t-127.5 96t-47 162
q0 95 50.5 164t143.5 106t218 37q113 0 223 -54l1 8v77q0 85 -48 124t-141 39q-51 0 -143 -10t-171 -27l-28 231q141 20 221 29.5t134 9.5q224 0 331 -106q129 109 346 109q150 0 250.5 -62.5zM1395 600q0 80 -48.5 133.5t-151.5 53.5q-104 0 -161.5 -59t-71.5 -160l431 4
q2 18 2 28zM634 206q65 29 96 79q-12 36 -18 77q-96 32 -208 32q-84 0 -133 -31.5t-49 -85.5q0 -44 44 -72t115 -28q88 0 153 29z" />
    <glyph glyph-name="b" unicode="b" horiz-adv-x="1248" 
d="M960 939q101 -61 154.5 -172t53.5 -258q0 -163 -54.5 -282.5t-162.5 -184.5t-263 -65q-213 0 -274 172l-48 -149h-220l-2 1516h266v-655q52 60 133.5 99.5t177.5 39.5q138 0 239 -61zM832.5 272.5q60.5 82.5 60.5 238.5q0 127 -63.5 199.5t-178.5 72.5
q-72 0 -128.5 -22.5t-112.5 -70.5v-95l1 -117q0 -97 35 -161.5t93 -95.5t128 -31q105 0 165.5 82.5z" />
    <glyph glyph-name="c" unicode="c" horiz-adv-x="971" 
d="M307.5 38q-110.5 61 -168.5 175.5t-58 271.5q0 155 59 271.5t172.5 179.5t272.5 62q91 1 179.5 -14.5t149.5 -41.5l-47 -219q-109 41 -226 41q-150 0 -217.5 -69t-67.5 -205q0 -144 72.5 -214.5t210.5 -70.5q59 0 104.5 10.5t118.5 34.5l65 -212q-88 -29 -180.5 -45
t-175.5 -16q-153 0 -263.5 61z" />
    <glyph glyph-name="cacute" unicode="&#x107;" horiz-adv-x="971" 
d="M307.5 38q-110.5 61 -168.5 175.5t-58 271.5q0 155 59 271.5t172.5 179.5t272.5 62q91 1 179.5 -14.5t149.5 -41.5l-47 -219q-109 41 -226 41q-150 0 -217.5 -69t-67.5 -205q0 -144 72.5 -214.5t210.5 -70.5q59 0 104.5 10.5t118.5 34.5l65 -212q-88 -29 -180.5 -45
t-175.5 -16q-153 0 -263.5 61zM629 1521h272l-276 -324h-224z" />
    <glyph glyph-name="ccaron" unicode="&#x10d;" horiz-adv-x="971" 
d="M307.5 38q-110.5 61 -168.5 175.5t-58 271.5q0 155 59 271.5t172.5 179.5t272.5 62q91 1 179.5 -14.5t149.5 -41.5l-47 -219q-109 41 -226 41q-150 0 -217.5 -69t-67.5 -205q0 -144 72.5 -214.5t210.5 -70.5q59 0 104.5 10.5t118.5 34.5l65 -212q-88 -29 -180.5 -45
t-175.5 -16q-153 0 -263.5 61zM211 1523h175l158 -201l159 201h176l-230 -326h-209z" />
    <glyph glyph-name="ccedilla" unicode="&#xe7;" horiz-adv-x="971" 
d="M765 -133.5q48 -41.5 48 -117.5q0 -196 -303 -196q-44 0 -81 3v129q37 -6 72 -6q122 0 122 68q0 65 -110 65q-12 0 -39 -3v175q-124 18 -212.5 83.5t-134.5 172t-46 245.5q0 155 59 271.5t172.5 179.5t272.5 62q91 1 179.5 -14.5t149.5 -41.5l-47 -219q-109 41 -226 41
q-150 0 -217.5 -69t-67.5 -205q0 -144 72.5 -214.5t210.5 -70.5q59 0 104.5 10.5t118.5 34.5l65 -212q-155 -50 -302 -59v-68q92 -3 140 -44.5z" />
    <glyph glyph-name="cdotaccent" unicode="&#x10b;" horiz-adv-x="971" 
d="M307.5 38q-110.5 61 -168.5 175.5t-58 271.5q0 155 59 271.5t172.5 179.5t272.5 62q91 1 179.5 -14.5t149.5 -41.5l-47 -219q-109 41 -226 41q-150 0 -217.5 -69t-67.5 -205q0 -144 72.5 -214.5t210.5 -70.5q59 0 104.5 10.5t118.5 34.5l65 -212q-88 -29 -180.5 -45
t-175.5 -16q-153 0 -263.5 61zM463.5 1185q-37.5 20 -59.5 55t-22 76q0 42 21.5 76t59 53t83.5 19q71 0 117 -41.5t46 -106.5q0 -42 -21 -76.5t-58 -54.5t-84 -20q-45 0 -82.5 20z" />
    <glyph glyph-name="d" unicode="d" horiz-adv-x="1247" 
d="M935 -39q-52 108 -73 202q-82 -186 -325 -186q-148 0 -250 61t-154 172t-52 262q0 157 63 276.5t179 185t268 65.5q134 0 252 -79v597h260v-1107q0 -87 12 -151t30.5 -112t51.5 -112zM774 269q68 75 68 211l1 -1v235q-53 36 -115 54.5t-124 18.5q-117 0 -183 -80
t-66 -224q0 -128 57 -208.5t165 -80.5q129 0 197 75z" />
    <glyph glyph-name="eth" unicode="&#xf0;" horiz-adv-x="1192" 
d="M315.5 40.5q-114.5 64.5 -175 184.5t-60.5 284q0 156 60 277t168.5 188.5t250.5 67.5q119 0 207 -76l4 2q-84 150 -196 247l-294 -146l-71 127l251 120q-34 29 -147 115l165 105q14 -9 102 -79l65 -51l278 137l70 -123l-231 -113q349 -295 349 -756q0 -168 -65 -298.5
t-183.5 -203.5t-274.5 -73q-158 0 -272.5 64.5zM727 223.5q55 40.5 84.5 116t29.5 177.5q0 324 -239 324q-78 0 -134.5 -40t-87 -114.5t-30.5 -175.5q0 -154 65.5 -241t182.5 -87q74 0 129 40.5z" />
    <glyph glyph-name="dcaron" unicode="&#x10f;" horiz-adv-x="1405" 
d="M935 -39q-52 108 -73 202q-82 -186 -325 -186q-148 0 -250 61t-154 172t-52 262q0 157 63 276.5t179 185t268 65.5q134 0 252 -79v597h260v-1107q0 -87 12 -151t30.5 -112t51.5 -112zM774 269q68 75 68 211l1 -1v235q-53 36 -115 54.5t-124 18.5q-117 0 -183 -80
t-66 -224q0 -128 57 -208.5t165 -80.5q129 0 197 75zM1192 1516h229l-136 -325h-128z" />
    <glyph glyph-name="dcroat" unicode="&#x111;" horiz-adv-x="1265" 
d="M1103 1155v-745q0 -87 12 -151t30.5 -112t51.5 -112l-262 -74q-52 108 -73 202q-82 -186 -325 -186q-148 0 -250 61t-154 172t-52 262q0 157 63 276.5t179 185t268 65.5q134 0 252 -79v235h-271v203h271v159h260v-159h140v-203h-140zM774 269q68 75 68 211l1 -1v235
q-53 36 -115 54.5t-124 18.5q-117 0 -183 -80t-66 -224q0 -128 57 -208.5t165 -80.5q129 0 197 75z" />
    <glyph glyph-name="e" unicode="e" horiz-adv-x="1096" 
d="M832.5 940.5q100.5 -62.5 148.5 -163.5t48 -219q0 -80 -24 -163l-657 -5q25 -93 95.5 -144t183.5 -51q67 0 142 15t150 44l51 -207q-71 -30 -180 -50t-198 -20q-243 0 -377.5 126.5t-134.5 389.5q0 164 59.5 278.5t172 173t270.5 58.5q150 0 250.5 -62.5zM773 598
q0 80 -48.5 134.5t-151.5 54.5q-104 0 -161 -58.5t-72 -160.5l432 4q1 9 1 26z" />
    <glyph glyph-name="eacute" unicode="&#xe9;" horiz-adv-x="1096" 
d="M832.5 940.5q100.5 -62.5 148.5 -163.5t48 -219q0 -80 -24 -163l-657 -5q25 -93 95.5 -144t183.5 -51q67 0 142 15t150 44l51 -207q-71 -30 -180 -50t-198 -20q-243 0 -377.5 126.5t-134.5 389.5q0 164 59.5 278.5t172 173t270.5 58.5q150 0 250.5 -62.5zM773 598
q0 80 -48.5 134.5t-151.5 54.5q-104 0 -161 -58.5t-72 -160.5l432 4q1 9 1 26zM645 1521h272l-276 -324h-224z" />
    <glyph glyph-name="ecaron" unicode="&#x11b;" horiz-adv-x="1096" 
d="M832.5 940.5q100.5 -62.5 148.5 -163.5t48 -219q0 -80 -24 -163l-657 -5q25 -93 95.5 -144t183.5 -51q67 0 142 15t150 44l51 -207q-71 -30 -180 -50t-198 -20q-243 0 -377.5 126.5t-134.5 389.5q0 164 59.5 278.5t172 173t270.5 58.5q150 0 250.5 -62.5zM773 598
q0 80 -48.5 134.5t-151.5 54.5q-104 0 -161 -58.5t-72 -160.5l432 4q1 9 1 26zM227 1523h175l158 -201l159 201h176l-230 -326h-209z" />
    <glyph glyph-name="ecircumflex" unicode="&#xea;" horiz-adv-x="1096" 
d="M832.5 940.5q100.5 -62.5 148.5 -163.5t48 -219q0 -80 -24 -163l-657 -5q25 -93 95.5 -144t183.5 -51q67 0 142 15t150 44l51 -207q-71 -30 -180 -50t-198 -20q-243 0 -377.5 126.5t-134.5 389.5q0 164 59.5 278.5t172 173t270.5 58.5q150 0 250.5 -62.5zM773 598
q0 80 -48.5 134.5t-151.5 54.5q-104 0 -161 -58.5t-72 -160.5l432 4q1 9 1 26zM456 1524h209l230 -327h-206l-133 175l-126 -175h-203z" />
    <glyph glyph-name="edieresis" unicode="&#xeb;" horiz-adv-x="1096" 
d="M832.5 940.5q100.5 -62.5 148.5 -163.5t48 -219q0 -80 -24 -163l-657 -5q25 -93 95.5 -144t183.5 -51q67 0 142 15t150 44l51 -207q-71 -30 -180 -50t-198 -20q-243 0 -377.5 126.5t-134.5 389.5q0 164 59.5 278.5t172 173t270.5 58.5q150 0 250.5 -62.5zM773 598
q0 80 -48.5 134.5t-151.5 54.5q-104 0 -161 -58.5t-72 -160.5l432 4q1 9 1 26zM233.5 1208.5q-41.5 38.5 -41.5 102.5q0 65 41 102.5t111 37.5t111.5 -37.5t41.5 -102.5t-41 -103t-111 -38t-111.5 38.5zM668 1208q-41 38 -41 103t40.5 102.5t110.5 37.5t111.5 -37.5
t41.5 -102.5t-41 -103t-111 -38t-111 38z" />
    <glyph glyph-name="edotaccent" unicode="&#x117;" horiz-adv-x="1096" 
d="M832.5 940.5q100.5 -62.5 148.5 -163.5t48 -219q0 -80 -24 -163l-657 -5q25 -93 95.5 -144t183.5 -51q67 0 142 15t150 44l51 -207q-71 -30 -180 -50t-198 -20q-243 0 -377.5 126.5t-134.5 389.5q0 164 59.5 278.5t172 173t270.5 58.5q150 0 250.5 -62.5zM773 598
q0 80 -48.5 134.5t-151.5 54.5q-104 0 -161 -58.5t-72 -160.5l432 4q1 9 1 26zM479.5 1185q-37.5 20 -59.5 55t-22 76q0 42 21.5 76t59 53t83.5 19q71 0 117 -41.5t46 -106.5q0 -42 -21 -76.5t-58 -54.5t-84 -20q-45 0 -82.5 20z" />
    <glyph glyph-name="egrave" unicode="&#xe8;" horiz-adv-x="1096" 
d="M832.5 940.5q100.5 -62.5 148.5 -163.5t48 -219q0 -80 -24 -163l-657 -5q25 -93 95.5 -144t183.5 -51q67 0 142 15t150 44l51 -207q-71 -30 -180 -50t-198 -20q-243 0 -377.5 126.5t-134.5 389.5q0 164 59.5 278.5t172 173t270.5 58.5q150 0 250.5 -62.5zM773 598
q0 80 -48.5 134.5t-151.5 54.5q-104 0 -161 -58.5t-72 -160.5l432 4q1 9 1 26zM244 1538h266l167 -341h-230z" />
    <glyph glyph-name="emacron" unicode="&#x113;" horiz-adv-x="1096" 
d="M832.5 940.5q100.5 -62.5 148.5 -163.5t48 -219q0 -80 -24 -163l-657 -5q25 -93 95.5 -144t183.5 -51q67 0 142 15t150 44l51 -207q-71 -30 -180 -50t-198 -20q-243 0 -377.5 126.5t-134.5 389.5q0 164 59.5 278.5t172 173t270.5 58.5q150 0 250.5 -62.5zM773 598
q0 80 -48.5 134.5t-151.5 54.5q-104 0 -161 -58.5t-72 -160.5l432 4q1 9 1 26zM153 1382h816v-193h-816v193z" />
    <glyph glyph-name="eogonek" unicode="&#x119;" horiz-adv-x="1096" 
d="M832.5 940.5q100.5 -62.5 148.5 -163.5t48 -219q0 -80 -24 -163l-657 -5q25 -93 95.5 -144t183.5 -51q67 0 142 15t150 44l51 -206v-1l-3 -1q-78 -59 -119.5 -114t-41.5 -98q0 -39 20 -60t58 -21q36 0 58 16l39 -157q-62 -25 -142 -25q-112 0 -171 44.5t-59 128.5
q0 59 27.5 116.5t81.5 109.5q-66 -9 -126 -9q-243 0 -377.5 126.5t-134.5 389.5q0 164 59.5 278.5t172 173t270.5 58.5q150 0 250.5 -62.5zM773 598q0 80 -48.5 134.5t-151.5 54.5q-104 0 -161 -58.5t-72 -160.5l432 4q1 9 1 26z" />
    <glyph glyph-name="f" unicode="f" horiz-adv-x="737" 
d="M536.5 1286q-29.5 -18 -40.5 -53t-11 -92v-166l235 1v-204h-235v-770h-264v770h-172v202l172 1v156q0 188 85 295.5t302 107.5q34 0 128 -10l42 -5l-41 -223l-51 4q-48 4 -65 4q-55 0 -84.5 -18z" />
    <glyph glyph-name="g" unicode="g" horiz-adv-x="1247" 
d="M1105 974l-1 -974q0 -246 -191 -363t-538 -119l-19 231q178 7 284.5 41.5t154.5 99t48 165.5v60q-89 -138 -306 -138q-137 0 -240.5 61.5t-160.5 173.5t-57 260q0 157 63.5 276.5t179.5 185.5t269 66q143 0 276 -98l17 72h221zM843 452q0 212 1 279q-54 33 -113.5 46.5
t-113.5 13.5q-80 0 -139 -37t-91 -106.5t-32 -164.5q0 -71 25 -137.5t78 -109t132 -42.5q123 0 188 67.5t65 191.5v-1z" />
    <glyph glyph-name="gbreve" unicode="&#x11f;" horiz-adv-x="1247" 
d="M1105 974l-1 -974q0 -246 -191 -363t-538 -119l-19 231q178 7 284.5 41.5t154.5 99t48 165.5v60q-89 -138 -306 -138q-137 0 -240.5 61.5t-160.5 173.5t-57 260q0 157 63.5 276.5t179.5 185.5t269 66q143 0 276 -98l17 72h221zM843 452q0 212 1 279q-54 33 -113.5 46.5
t-113.5 13.5q-80 0 -139 -37t-91 -106.5t-32 -164.5q0 -71 25 -137.5t78 -109t132 -42.5q123 0 188 67.5t65 191.5v-1zM460 1224.5q-70 37.5 -110 105t-43 155.5h186q12 -121 130 -121q55 0 88.5 31t40.5 90h188q-7 -90 -49 -157.5t-112 -104t-159 -36.5q-90 0 -160 37.5z
" />
    <glyph glyph-name="uni0123" unicode="&#x123;" horiz-adv-x="1247" 
d="M1105 974l-1 -974q0 -246 -191 -363t-538 -119l-19 231q178 7 284.5 41.5t154.5 99t48 165.5v60q-89 -138 -306 -138q-137 0 -240.5 61.5t-160.5 173.5t-57 260q0 157 63.5 276.5t179.5 185.5t269 66q143 0 276 -98l17 72h221zM843 452q0 212 1 279q-54 33 -113.5 46.5
t-113.5 13.5q-80 0 -139 -37t-91 -106.5t-32 -164.5q0 -71 25 -137.5t78 -109t132 -42.5q123 0 188 67.5t65 191.5v-1zM845 1580q-59 -102 -89.5 -199.5t-37.5 -199.5h-220q1 144 45 277t125 225z" />
    <glyph glyph-name="gdotaccent" unicode="&#x121;" horiz-adv-x="1247" 
d="M1105 974l-1 -974q0 -246 -191 -363t-538 -119l-19 231q178 7 284.5 41.5t154.5 99t48 165.5v60q-89 -138 -306 -138q-137 0 -240.5 61.5t-160.5 173.5t-57 260q0 157 63.5 276.5t179.5 185.5t269 66q143 0 276 -98l17 72h221zM843 452q0 212 1 279q-54 33 -113.5 46.5
t-113.5 13.5q-80 0 -139 -37t-91 -106.5t-32 -164.5q0 -71 25 -137.5t78 -109t132 -42.5q123 0 188 67.5t65 191.5v-1zM541.5 1185q-37.5 20 -59.5 55t-22 76q0 42 21.5 76t59 53t83.5 19q71 0 117 -41.5t46 -106.5q0 -42 -21 -76.5t-58 -54.5t-84 -20q-45 0 -82.5 20z" />
    <glyph glyph-name="h" unicode="h" horiz-adv-x="1208" 
d="M912 950q86 -50 128.5 -138t42.5 -202v-610h-264v537q0 109 -46.5 177.5t-153.5 68.5q-59 0 -112.5 -22t-97.5 -62v-699h-265v1517h265v-624q113 107 291 107q126 0 212 -50z" />
    <glyph glyph-name="hbar" unicode="&#x127;" horiz-adv-x="1228" 
d="M934 950q86 -50 128.5 -138t42.5 -202v-610h-264v537q0 109 -46.5 177.5t-153.5 68.5q-59 0 -112.5 -22t-97.5 -62v-699h-265v1173h-138v203h138v141h265v-141h268v-203h-268v-279q112 106 291 106q126 0 212 -50z" />
    <glyph glyph-name="i" unicode="i" horiz-adv-x="553" 
d="M200.5 1239q-34.5 20 -54.5 54.5t-20 77.5q0 42 20 76.5t54.5 54t77.5 19.5q42 0 76.5 -19.5t54 -54t19.5 -76.5q0 -43 -19.5 -77.5t-54 -54.5t-76.5 -20q-43 0 -77.5 20zM144 974h265v-974h-265v974z" />
    <glyph glyph-name="dotlessi" unicode="&#x131;" horiz-adv-x="553" 
d="M144 974h265v-974h-265v974z" />
    <glyph glyph-name="iacute" unicode="&#xed;" horiz-adv-x="553" 
d="M144 974h265v-974h-265v974zM360 1521h272l-276 -324h-224z" />
    <glyph glyph-name="icircumflex" unicode="&#xee;" horiz-adv-x="553" 
d="M144 974h265v-974h-265v974zM171 1524h209l230 -327h-206l-133 175l-126 -175h-203z" />
    <glyph glyph-name="idieresis" unicode="&#xef;" horiz-adv-x="553" 
d="M144 974h265v-974h-265v974zM-51.5 1208.5q-41.5 38.5 -41.5 102.5q0 65 41 102.5t111 37.5t111.5 -37.5t41.5 -102.5t-41 -103t-111 -38t-111.5 38.5zM383 1208q-41 38 -41 103t40.5 102.5t110.5 37.5t111.5 -37.5t41.5 -102.5t-41 -103t-111 -38t-111 38z" />
    <glyph glyph-name="i.locl" horiz-adv-x="553" 
d="M144 974h265v-974h-265v974zM194.5 1185q-37.5 20 -59.5 55t-22 76q0 42 21.5 76t59 53t83.5 19q71 0 117 -41.5t46 -106.5q0 -42 -21 -76.5t-58 -54.5t-84 -20q-45 0 -82.5 20z" />
    <glyph glyph-name="igrave" unicode="&#xec;" horiz-adv-x="553" 
d="M144 974h265v-974h-265v974zM-40 1538h266l167 -341h-230z" />
    <glyph glyph-name="ij" unicode="&#x133;" horiz-adv-x="1163" 
d="M200.5 1239q-34.5 20 -54.5 54.5t-20 77.5q0 42 20 76.5t54.5 54t77.5 19.5q42 0 76.5 -19.5t54 -54t19.5 -76.5q0 -43 -19.5 -77.5t-54 -54.5t-76.5 -20q-43 0 -77.5 20zM144 974h265v-974h-265v974zM812 1239q-35 20 -55 55t-20 77q0 41 20 75.5t55 54.5t77 20t76 -20
t54 -54.5t20 -75.5q0 -42 -19.5 -77t-54 -55t-76.5 -20t-77 20zM470 -235q114 14 175.5 46.5t86 90.5t24.5 156v916h265v-954q0 -253 -137.5 -371.5t-372.5 -130.5z" />
    <glyph glyph-name="imacron" unicode="&#x12b;" horiz-adv-x="553" 
d="M144 974h265v-974h-265v974zM-131 1382h816v-193h-816v193z" />
    <glyph glyph-name="iogonek" unicode="&#x12f;" horiz-adv-x="553" 
d="M144 974h265v-974h-265v974zM194.5 1185q-37.5 20 -59.5 55t-22 76q0 42 21.5 76t59 53t83.5 19q71 0 117 -41.5t46 -106.5q0 -42 -21 -76.5t-58 -54.5t-84 -20q-45 0 -82.5 20zM76 -237q0 53 33 109.5t95 127.5h205q-136 -97 -136 -163q0 -40 23 -59.5t72 -19.5
q34 0 65 11l25 -165q-76 -17 -181 -17q-201 0 -201 176z" />
    <glyph glyph-name="j" unicode="j" horiz-adv-x="553" 
d="M201 1239q-35 20 -55 55t-20 77q0 41 20 75.5t55 54.5t77 20t76 -20t54 -54.5t20 -75.5q0 -42 -19.5 -77t-54 -55t-76.5 -20t-77 20zM-141 -235q114 14 175.5 46.5t86 90.5t24.5 156v916h265v-954q0 -253 -137.5 -371.5t-372.5 -130.5z" />
    <glyph glyph-name="uni0237" unicode="&#x237;" horiz-adv-x="553" 
d="M-141 -235q114 14 175.5 46.5t86 90.5t24.5 156v916h265v-954q0 -253 -137.5 -371.5t-372.5 -130.5z" />
    <glyph glyph-name="k" unicode="k" horiz-adv-x="1103" 
d="M559 414l-149 -166v-248h-266v1516h266v-983q47 117 98 170l289 297l265 -26l-333 -371l363 -605h-282z" />
    <glyph glyph-name="uni0137" unicode="&#x137;" horiz-adv-x="1103" 
d="M559 414l-149 -166v-248h-266v1516h266v-983q47 117 98 170l289 297l265 -26l-333 -371l363 -605h-282zM340 -552q65 109 97.5 211.5t39.5 210.5h240q0 -150 -46.5 -288.5t-133.5 -236.5z" />
    <glyph glyph-name="l" unicode="l" horiz-adv-x="553" 
d="M144 1516h265v-1516h-265v1516z" />
    <glyph glyph-name="lacute" unicode="&#x13a;" horiz-adv-x="553" 
d="M144 1516h265v-1516h-265v1516zM363 1931h272l-276 -324h-224z" />
    <glyph glyph-name="lcaron" unicode="&#x13e;" horiz-adv-x="759" 
d="M144 1516h265v-1516h-265v1516zM574 1516h229l-136 -325h-128z" />
    <glyph glyph-name="uni013C" unicode="&#x13c;" horiz-adv-x="553" 
d="M144 1516h265v-1516h-265v1516zM65 -552q65 109 97.5 211.5t39.5 210.5h240q0 -150 -46.5 -288.5t-133.5 -236.5z" />
    <glyph glyph-name="ldot" unicode="&#x140;" horiz-adv-x="806" 
d="M144 1516h265v-1516h-265v1516zM554 634q-40 39 -40 104t40 105t107 40q66 0 106.5 -40t40.5 -105q0 -64 -40.5 -103.5t-106.5 -39.5q-67 0 -107 39z" />
    <glyph glyph-name="lslash" unicode="&#x142;" horiz-adv-x="616" 
d="M583 773l-144 -94v-679h-266v507l-146 -95v225l146 94v785h266v-613l144 93v-223z" />
    <glyph glyph-name="m" unicode="m" horiz-adv-x="1839" 
d="M1545.5 950q83.5 -50 124.5 -138t42 -202v-610h-264v564q3 96 -38.5 157.5t-137.5 61.5q-129 0 -221 -69q10 -55 10 -104v-610h-264v564q-2 97 -42 158t-132 61q-64 0 -115.5 -25t-96.5 -76l-2 -682h-265l2 974h222l33 -105q69 68 138.5 99.5t164.5 31.5q93 0 162.5 -32
t115.5 -91q78 58 164 90.5t194 32.5q122 0 205.5 -50z" />
    <glyph glyph-name="n" unicode="n" horiz-adv-x="1212" 
d="M912 950q86 -50 128.5 -138t42.5 -202v-610h-264v537q0 109 -46.5 177.5t-153.5 68.5q-59 0 -112 -21.5t-96 -61.5l-2 -700h-265l2 974h222l29 -92q115 118 303 118q126 0 212 -50z" />
    <glyph glyph-name="nacute" unicode="&#x144;" horiz-adv-x="1212" 
d="M912 950q86 -50 128.5 -138t42.5 -202v-610h-264v537q0 109 -46.5 177.5t-153.5 68.5q-59 0 -112 -21.5t-96 -61.5l-2 -700h-265l2 974h222l29 -92q115 118 303 118q126 0 212 -50zM690 1521h272l-276 -324h-224z" />
    <glyph glyph-name="ncaron" unicode="&#x148;" horiz-adv-x="1212" 
d="M912 950q86 -50 128.5 -138t42.5 -202v-610h-264v537q0 109 -46.5 177.5t-153.5 68.5q-59 0 -112 -21.5t-96 -61.5l-2 -700h-265l2 974h222l29 -92q115 118 303 118q126 0 212 -50zM272 1523h175l158 -201l159 201h176l-230 -326h-209z" />
    <glyph glyph-name="uni0146" unicode="&#x146;" horiz-adv-x="1212" 
d="M912 950q86 -50 128.5 -138t42.5 -202v-610h-264v537q0 109 -46.5 177.5t-153.5 68.5q-59 0 -112 -21.5t-96 -61.5l-2 -700h-265l2 974h222l29 -92q115 118 303 118q126 0 212 -50zM395 -552q65 109 97.5 211.5t39.5 210.5h240q0 -150 -46.5 -288.5t-133.5 -236.5z" />
    <glyph glyph-name="eng" unicode="&#x14b;" horiz-adv-x="1212" 
d="M912 950q86 -50 128.5 -138t42.5 -202v-610h-1q0 -243 -137.5 -357t-371.5 -125l-41 247q107 13 168 42.5t88 81.5t31 136v512q0 109 -46.5 177.5t-153.5 68.5q-59 0 -112 -21.5t-96 -61.5l-2 -700h-265l2 974h222l29 -92q115 118 303 118q126 0 212 -50z" />
    <glyph glyph-name="ntilde" unicode="&#xf1;" horiz-adv-x="1212" 
d="M912 950q86 -50 128.5 -138t42.5 -202v-610h-264v537q0 109 -46.5 177.5t-153.5 68.5q-59 0 -112 -21.5t-96 -61.5l-2 -700h-265l2 974h222l29 -92q115 118 303 118q126 0 212 -50zM696 1201q-34 13 -87 40q-39 20 -64 30t-44 10q-76 0 -76 -90h-158q0 129 52.5 201.5
t147.5 72.5q35 0 68.5 -13.5t80.5 -38.5q41 -22 67 -32.5t51 -10.5q70 0 70 92h156q0 -128 -53 -201t-145 -73q-32 0 -66 13z" />
    <glyph glyph-name="o" unicode="o" horiz-adv-x="1235" 
d="M336 38q-122 63 -189 178t-67 266q0 154 67 271t189 181t282 64q161 0 283 -64t187.5 -181t64.5 -271q0 -152 -66.5 -266.5t-187.5 -177.5t-281 -63t-282 63zM759.5 235q60.5 35 94.5 99t35 148q-2 85 -36.5 149.5t-94.5 100t-138 35.5q-82 0 -144.5 -36t-97 -101
t-34.5 -150q0 -84 34.5 -147.5t97 -98t144.5 -34.5q79 0 139.5 35z" />
    <glyph glyph-name="oacute" unicode="&#xf3;" horiz-adv-x="1234" 
d="M336 38q-122 63 -189 178t-67 266q0 154 67 271t189 181t282 64q161 0 283 -64t187.5 -181t64.5 -271q0 -152 -66.5 -266.5t-187.5 -177.5t-281 -63t-282 63zM759.5 235q60.5 35 94.5 99t35 148q-2 85 -36.5 149.5t-94.5 100t-138 35.5q-82 0 -144.5 -36t-97 -101
t-34.5 -150q0 -84 34.5 -147.5t97 -98t144.5 -34.5q79 0 139.5 35zM701 1521h272l-276 -324h-224z" />
    <glyph glyph-name="ocircumflex" unicode="&#xf4;" horiz-adv-x="1234" 
d="M336 38q-122 63 -189 178t-67 266q0 154 67 271t189 181t282 64q161 0 283 -64t187.5 -181t64.5 -271q0 -152 -66.5 -266.5t-187.5 -177.5t-281 -63t-282 63zM759.5 235q60.5 35 94.5 99t35 148q-2 85 -36.5 149.5t-94.5 100t-138 35.5q-82 0 -144.5 -36t-97 -101
t-34.5 -150q0 -84 34.5 -147.5t97 -98t144.5 -34.5q79 0 139.5 35zM512 1524h209l230 -327h-206l-133 175l-126 -175h-203z" />
    <glyph glyph-name="odieresis" unicode="&#xf6;" horiz-adv-x="1233" 
d="M336 38q-122 63 -189 178t-67 266q0 154 67 271t189 181t282 64q161 0 283 -64t187.5 -181t64.5 -271q0 -152 -66.5 -266.5t-187.5 -177.5t-281 -63t-282 63zM759.5 235q60.5 35 94.5 99t35 148q-2 85 -36.5 149.5t-94.5 100t-138 35.5q-82 0 -144.5 -36t-97 -101
t-34.5 -150q0 -84 34.5 -147.5t97 -98t144.5 -34.5q79 0 139.5 35zM289.5 1208.5q-41.5 38.5 -41.5 102.5q0 65 41 102.5t111 37.5t111.5 -37.5t41.5 -102.5t-41 -103t-111 -38t-111.5 38.5zM724 1208q-41 38 -41 103t40.5 102.5t110.5 37.5t111.5 -37.5t41.5 -102.5
t-41 -103t-111 -38t-111 38z" />
    <glyph glyph-name="ograve" unicode="&#xf2;" horiz-adv-x="1234" 
d="M336 38q-122 63 -189 178t-67 266q0 154 67 271t189 181t282 64q161 0 283 -64t187.5 -181t64.5 -271q0 -152 -66.5 -266.5t-187.5 -177.5t-281 -63t-282 63zM759.5 235q60.5 35 94.5 99t35 148q-2 85 -36.5 149.5t-94.5 100t-138 35.5q-82 0 -144.5 -36t-97 -101
t-34.5 -150q0 -84 34.5 -147.5t97 -98t144.5 -34.5q79 0 139.5 35zM300 1538h266l167 -341h-230z" />
    <glyph glyph-name="ohungarumlaut" unicode="&#x151;" horiz-adv-x="1235" 
d="M336 38q-122 63 -189 178t-67 266q0 154 67 271t189 181t282 64q161 0 283 -64t187.5 -181t64.5 -271q0 -152 -66.5 -266.5t-187.5 -177.5t-281 -63t-282 63zM759.5 235q60.5 35 94.5 99t35 148q-2 85 -36.5 149.5t-94.5 100t-138 35.5q-82 0 -144.5 -36t-97 -101
t-34.5 -150q0 -84 34.5 -147.5t97 -98t144.5 -34.5q79 0 139.5 35zM560 1515h208l-245 -318h-173zM892 1515h211l-250 -318h-172z" />
    <glyph glyph-name="omacron" unicode="&#x14d;" horiz-adv-x="1235" 
d="M336 38q-122 63 -189 178t-67 266q0 154 67 271t189 181t282 64q161 0 283 -64t187.5 -181t64.5 -271q0 -152 -66.5 -266.5t-187.5 -177.5t-281 -63t-282 63zM759.5 235q60.5 35 94.5 99t35 148q-2 85 -36.5 149.5t-94.5 100t-138 35.5q-82 0 -144.5 -36t-97 -101
t-34.5 -150q0 -84 34.5 -147.5t97 -98t144.5 -34.5q79 0 139.5 35zM209 1382h816v-193h-816v193z" />
    <glyph glyph-name="oslash" unicode="&#xf8;" horiz-adv-x="1235" 
d="M1054 805q49 -64 74.5 -146t24.5 -177q0 -152 -66.5 -266.5t-187.5 -177.5t-281 -63q-177 0 -304 75l-129 -127l-172 169l131 129q-64 116 -64 261q0 154 67 271t189 181t282 64q132 0 242 -45l150 155l175 -167zM759.5 235q60.5 35 94.5 99t35 148q-2 85 -36.5 149.5
t-94.5 100t-138 35.5q-82 0 -144.5 -36t-97 -101t-34.5 -150q0 -84 34.5 -147.5t97 -98t144.5 -34.5q79 0 139.5 35z" />
    <glyph glyph-name="otilde" unicode="&#xf5;" horiz-adv-x="1234" 
d="M336 38q-122 63 -189 178t-67 266q0 154 67 271t189 181t282 64q161 0 283 -64t187.5 -181t64.5 -271q0 -152 -66.5 -266.5t-187.5 -177.5t-281 -63t-282 63zM759.5 235q60.5 35 94.5 99t35 148q-2 85 -36.5 149.5t-94.5 100t-138 35.5q-82 0 -144.5 -36t-97 -101
t-34.5 -150q0 -84 34.5 -147.5t97 -98t144.5 -34.5q79 0 139.5 35zM706 1201q-34 13 -87 40q-39 20 -64 30t-44 10q-76 0 -76 -90h-158q0 129 52.5 201.5t147.5 72.5q35 0 68.5 -13.5t80.5 -38.5q41 -22 67 -32.5t51 -10.5q70 0 70 92h156q0 -128 -53 -201t-145 -73
q-32 0 -66 13z" />
    <glyph glyph-name="oe" unicode="&#x153;" horiz-adv-x="1895" 
d="M1653.5 940.5q100.5 -62.5 148.5 -163.5t48 -219q0 -80 -24 -163l-658 -5q25 -92 96.5 -143.5t183.5 -51.5q67 0 142 15t150 44l51 -207q-71 -30 -180 -50t-198 -20q-268 0 -398 148q-71 -72 -173.5 -111t-226.5 -39q-160 0 -282 63t-189 178t-67 266q0 154 67 271
t189 181t282 64q124 0 225.5 -38.5t172.5 -109.5q65 75 163.5 114t226.5 39q150 0 250.5 -62.5zM1594 598q0 80 -48.5 134.5t-151.5 54.5q-104 0 -161.5 -59t-71.5 -160l432 4q1 9 1 26zM756.5 235q60.5 35 94.5 99t35 148q-2 85 -36.5 149.5t-94.5 100t-138 35.5
q-82 0 -144.5 -36t-97 -101t-34.5 -150q0 -84 34.5 -147.5t97 -98t144.5 -34.5q79 0 139.5 35z" />
    <glyph glyph-name="p" unicode="p" horiz-adv-x="1248" 
d="M962.5 942.5q100.5 -57.5 153 -168t52.5 -265.5q0 -163 -54.5 -282.5t-162.5 -184.5t-263 -65q-120 0 -185.5 50t-92.5 135v-632h-266l2 1444h221l37 -118q53 69 135 106.5t182 37.5q141 0 241.5 -57.5zM832.5 272.5q60.5 82.5 60.5 238.5q0 130 -63.5 201t-178.5 71
q-70 0 -132.5 -23t-108.5 -65v-100l1 -117q0 -97 35 -161.5t93 -95.5t128 -31q105 0 165.5 82.5z" />
    <glyph glyph-name="thorn" unicode="&#xfe;" horiz-adv-x="1248" 
d="M962.5 942.5q100.5 -57.5 153 -168t52.5 -265.5q0 -163 -54.5 -282.5t-162.5 -184.5t-263 -65q-120 0 -185.5 50t-92.5 135v-632h-266l2 1444v460h264v-571q53 66 133.5 101.5t177.5 35.5q141 0 241.5 -57.5zM832.5 272.5q60.5 82.5 60.5 238.5q0 130 -63.5 201
t-178.5 71q-70 0 -132.5 -23t-108.5 -65v-100l1 -117q0 -97 35 -161.5t93 -95.5t128 -31q105 0 165.5 82.5z" />
    <glyph glyph-name="q" unicode="q" horiz-adv-x="1247" 
d="M1103 975v-1446l-261 -1v606q-90 -157 -305 -157q-148 0 -250 61t-154 172t-52 262q0 167 60 285.5t174.5 180.5t275.5 62q69 0 139.5 -25t134.5 -72l17 71zM774 269q68 75 68 211v236q-52 35 -112.5 53.5t-125.5 18.5q-119 0 -184 -80t-65 -225q0 -128 57 -208.5
t165 -80.5q129 0 197 75z" />
    <glyph glyph-name="r" unicode="r" horiz-adv-x="781" 
d="M668 1004q51 0 103 -14l-28 -256q-28 3 -54 3q-172 0 -278 -117l-1 -620h-266l2 974h223l33 -167q88 197 266 197z" />
    <glyph glyph-name="racute" unicode="&#x155;" horiz-adv-x="781" 
d="M668 1004q51 0 103 -14l-28 -256q-28 3 -54 3q-172 0 -278 -117l-1 -620h-266l2 974h223l33 -167q88 197 266 197zM507 1521h272l-276 -324h-224z" />
    <glyph glyph-name="rcaron" unicode="&#x159;" horiz-adv-x="781" 
d="M668 1004q51 0 103 -14l-28 -256q-28 3 -54 3q-172 0 -278 -117l-1 -620h-266l2 974h223l33 -167q88 197 266 197zM90 1523h175l158 -201l159 201h176l-230 -326h-209z" />
    <glyph glyph-name="uni0157" unicode="&#x157;" horiz-adv-x="781" 
d="M668 1004q51 0 103 -14l-28 -256q-28 3 -54 3q-172 0 -278 -117l-1 -620h-266l2 974h223l33 -167q88 197 266 197zM67 -552q65 109 97.5 211.5t39.5 210.5h240q0 -150 -46.5 -288.5t-133.5 -236.5z" />
    <glyph glyph-name="s" unicode="s" horiz-adv-x="890" 
d="M73 53l67 214q161 -72 275 -74q161 1 162 100q0 35 -23 56.5t-57.5 34t-94.5 27.5q-92 24 -149.5 49t-100 81t-42.5 152q3 307 368 307q187 0 323 -60l-57 -218q-134 54 -246 54q-66 -1 -98 -18t-35 -58q0 -25 20 -42.5t50 -29t85 -27.5q93 -26 155 -54.5t107.5 -88
t45.5 -158.5q0 -325 -413 -325q-165 1 -342 78z" />
    <glyph glyph-name="sacute" unicode="&#x15b;" horiz-adv-x="890" 
d="M73 53l67 214q161 -72 275 -74q161 1 162 100q0 35 -23 56.5t-57.5 34t-94.5 27.5q-92 24 -149.5 49t-100 81t-42.5 152q3 307 368 307q187 0 323 -60l-57 -218q-134 54 -246 54q-66 -1 -98 -18t-35 -58q0 -25 20 -42.5t50 -29t85 -27.5q93 -26 155 -54.5t107.5 -88
t45.5 -158.5q0 -325 -413 -325q-165 1 -342 78zM529 1521h272l-276 -324h-224z" />
    <glyph glyph-name="scaron" unicode="&#x161;" horiz-adv-x="890" 
d="M73 53l67 214q161 -72 275 -74q161 1 162 100q0 35 -23 56.5t-57.5 34t-94.5 27.5q-92 24 -149.5 49t-100 81t-42.5 152q3 307 368 307q187 0 323 -60l-57 -218q-134 54 -246 54q-66 -1 -98 -18t-35 -58q0 -25 20 -42.5t50 -29t85 -27.5q93 -26 155 -54.5t107.5 -88
t45.5 -158.5q0 -325 -413 -325q-165 1 -342 78zM111 1523h175l158 -201l159 201h176l-230 -326h-209z" />
    <glyph glyph-name="scedilla" unicode="&#x15f;" horiz-adv-x="890" 
d="M488 -22v-67q92 -3 140 -44.5t48 -117.5q0 -196 -303 -196q-43 0 -81 3v129q38 -6 72 -6q122 0 122 68q0 65 -110 65q-12 0 -39 -3v171q-129 15 -264 73l67 214q161 -72 275 -74q161 1 162 100q0 35 -23 56.5t-57.5 34t-94.5 27.5q-92 24 -149.5 49t-100 81t-42.5 152
q3 307 368 307q187 0 323 -60l-57 -218q-134 54 -246 54q-66 -1 -98 -18t-35 -58q0 -25 20 -42.5t50 -29t85 -27.5q93 -26 155 -54.5t107.5 -88t45.5 -158.5q0 -295 -340 -322z" />
    <glyph glyph-name="uni0219" unicode="&#x219;" horiz-adv-x="890" 
d="M73 53l67 214q161 -72 275 -74q161 1 162 100q0 35 -23 56.5t-57.5 34t-94.5 27.5q-92 24 -149.5 49t-100 81t-42.5 152q3 307 368 307q187 0 323 -60l-57 -218q-134 54 -246 54q-66 -1 -98 -18t-35 -58q0 -25 20 -42.5t50 -29t85 -27.5q93 -26 155 -54.5t107.5 -88
t45.5 -158.5q0 -325 -413 -325q-165 1 -342 78zM204 -552q65 109 97.5 211.5t39.5 210.5h240q0 -150 -46.5 -288.5t-133.5 -236.5z" />
    <glyph glyph-name="germandbls" unicode="&#xdf;" horiz-adv-x="1229" 
d="M780.5 706.5q18.5 -21.5 46 -34t77.5 -30.5q80 -27 132.5 -57t91 -95.5t38.5 -176.5q0 -161 -86.5 -249.5t-244.5 -88.5q-157 1 -345 47l44 227q66 -24 127 -37t108 -13q157 0 157 107q0 33 -20 56.5t-49 39t-83 37.5q-82 33 -134.5 65t-90.5 94t-38 160q0 69 22.5 115.5
t55.5 74t86 59.5q48 30 74.5 51t45 55t18.5 84q0 55 -49.5 88t-130.5 33q-69 0 -121 -28t-80.5 -78.5t-28.5 -116.5v-1093h-259v1114q0 124 60 218.5t170 146t254 51.5q130 0 228 -41.5t152 -117t54 -175.5q0 -107 -29 -172t-69 -96t-101 -61q-52 -25 -76 -47t-25 -61
q0 -33 18.5 -54.5z" />
    <glyph glyph-name="t" unicode="t" horiz-adv-x="763" 
d="M504 259.5q36 -50.5 120 -50.5q40 0 91 7v-234q-64 -6 -132 -6q-189 0 -280 78.5t-91 218.5v497h-170l1 203h169v350h256v-350q87 1 156 1h91l-1 -203h-90.5t-155.5 -1v-388q0 -72 36 -122.5z" />
    <glyph glyph-name="tbar" unicode="&#x167;" horiz-adv-x="763" 
d="M504 259.5q36 -50.5 120 -50.5q40 0 91 7v-234q-64 -6 -132 -6q-189 0 -280 78.5t-91 218.5v179h-170v203h170v115h-170l1 203h169v350h256v-350q87 1 156 1h91l-1 -203h-90.5t-155.5 -1v-115h245v-203h-245v-70q0 -72 36 -122.5z" />
    <glyph glyph-name="tcaron" unicode="&#x165;" horiz-adv-x="1000" 
d="M504 259.5q36 -50.5 120 -50.5q40 0 91 7v-234q-64 -6 -132 -6q-189 0 -280 78.5t-91 218.5v497h-170l1 203h169v350h256v-350q87 1 156 1h91l-1 -203h-90.5t-155.5 -1v-388q0 -72 36 -122.5zM704 1429h229l-136 -325h-128z" />
    <glyph glyph-name="uni0163" unicode="&#x163;" horiz-adv-x="763" 
d="M504 259.5q36 -50.5 120 -50.5q40 0 91 7v-234q-64 -6 -132 -6q-67 0 -125 11v-76q92 -3 140 -44.5t48 -117.5q0 -196 -303 -196q-44 0 -81 3v129q38 -6 72 -6q122 0 122 68q0 65 -110 65q-12 0 -39 -3v242q-95 76 -95 222v497h-170l1 203h169v350h256v-350q87 1 156 1
h91l-1 -203h-90.5t-155.5 -1v-388q0 -72 36 -122.5z" />
    <glyph glyph-name="uni021B" unicode="&#x21b;" horiz-adv-x="763" 
d="M504 259.5q36 -50.5 120 -50.5q40 0 91 7v-234q-64 -6 -132 -6q-189 0 -280 78.5t-91 218.5v497h-170l1 203h169v350h256v-350q87 1 156 1h91l-1 -203h-90.5t-155.5 -1v-388q0 -72 36 -122.5zM173 -552q65 109 97.5 211.5t39.5 210.5h240q0 -150 -46.5 -288.5
t-133.5 -236.5z" />
    <glyph glyph-name="u" unicode="u" horiz-adv-x="1212" 
d="M901 -39q-46 93 -69 182q-14 -36 -53 -74t-105 -64.5t-154 -26.5q-143 0 -231 55t-125.5 142.5t-37.5 192.5v605h265v-554q0 -107 43 -171.5t162 -64.5q58 0 106.5 28.5t77 83t28.5 127.5v552h261v-564q0 -87 11.5 -151t30 -112t51.5 -112z" />
    <glyph glyph-name="uacute" unicode="&#xfa;" horiz-adv-x="1212" 
d="M901 -39q-46 93 -69 182q-14 -36 -53 -74t-105 -64.5t-154 -26.5q-143 0 -231 55t-125.5 142.5t-37.5 192.5v605h265v-554q0 -107 43 -171.5t162 -64.5q58 0 106.5 28.5t77 83t28.5 127.5v552h261v-564q0 -87 11.5 -151t30 -112t51.5 -112zM690 1521h272l-276 -324h-224z
" />
    <glyph glyph-name="ucircumflex" unicode="&#xfb;" horiz-adv-x="1212" 
d="M901 -39q-46 93 -69 182q-14 -36 -53 -74t-105 -64.5t-154 -26.5q-143 0 -231 55t-125.5 142.5t-37.5 192.5v605h265v-554q0 -107 43 -171.5t162 -64.5q58 0 106.5 28.5t77 83t28.5 127.5v552h261v-564q0 -87 11.5 -151t30 -112t51.5 -112zM501 1524h209l230 -327h-206
l-133 175l-126 -175h-203z" />
    <glyph glyph-name="udieresis" unicode="&#xfc;" horiz-adv-x="1212" 
d="M901 -39q-46 93 -69 182q-14 -36 -53 -74t-105 -64.5t-154 -26.5q-143 0 -231 55t-125.5 142.5t-37.5 192.5v605h265v-554q0 -107 43 -171.5t162 -64.5q58 0 106.5 28.5t77 83t28.5 127.5v552h261v-564q0 -87 11.5 -151t30 -112t51.5 -112zM278.5 1208.5
q-41.5 38.5 -41.5 102.5q0 65 41 102.5t111 37.5t111.5 -37.5t41.5 -102.5t-41 -103t-111 -38t-111.5 38.5zM713 1208q-41 38 -41 103t40.5 102.5t110.5 37.5t111.5 -37.5t41.5 -102.5t-41 -103t-111 -38t-111 38z" />
    <glyph glyph-name="ugrave" unicode="&#xf9;" horiz-adv-x="1212" 
d="M901 -39q-46 93 -69 182q-14 -36 -53 -74t-105 -64.5t-154 -26.5q-143 0 -231 55t-125.5 142.5t-37.5 192.5v605h265v-554q0 -107 43 -171.5t162 -64.5q58 0 106.5 28.5t77 83t28.5 127.5v552h261v-564q0 -87 11.5 -151t30 -112t51.5 -112zM290 1538h266l167 -341h-230z
" />
    <glyph glyph-name="uhungarumlaut" unicode="&#x171;" horiz-adv-x="1212" 
d="M901 -39q-46 93 -69 182q-14 -36 -53 -74t-105 -64.5t-154 -26.5q-143 0 -231 55t-125.5 142.5t-37.5 192.5v605h265v-554q0 -107 43 -171.5t162 -64.5q58 0 106.5 28.5t77 83t28.5 127.5v552h261v-564q0 -87 11.5 -151t30 -112t51.5 -112zM550 1515h208l-245 -318h-173z
M882 1515h211l-250 -318h-172z" />
    <glyph glyph-name="umacron" unicode="&#x16b;" horiz-adv-x="1212" 
d="M901 -39q-46 93 -69 182q-14 -36 -53 -74t-105 -64.5t-154 -26.5q-143 0 -231 55t-125.5 142.5t-37.5 192.5v605h265v-554q0 -107 43 -171.5t162 -64.5q58 0 106.5 28.5t77 83t28.5 127.5v552h261v-564q0 -87 11.5 -151t30 -112t51.5 -112zM199 1382h816v-193h-816v193z
" />
    <glyph glyph-name="uogonek" unicode="&#x173;" horiz-adv-x="1212" 
d="M1121 -235l30 -161q-59 -17 -135 -17q-104 0 -162.5 44t-58.5 122q0 117 99 222q-40 83 -62 168q-14 -36 -53 -74t-105 -64.5t-154 -26.5q-143 0 -231 55t-125.5 142.5t-37.5 192.5v605h265v-554q0 -107 43 -171.5t162 -64.5q58 0 106.5 28.5t77 83t28.5 127.5v552h261
v-564q0 -87 11.5 -151t30 -112t51.5 -112q-169 -119 -169 -201q0 -81 68 -81q35 0 60 12z" />
    <glyph glyph-name="uring" unicode="&#x16f;" horiz-adv-x="1212" 
d="M901 -39q-46 93 -69 182q-14 -36 -53 -74t-105 -64.5t-154 -26.5q-143 0 -231 55t-125.5 142.5t-37.5 192.5v605h265v-554q0 -107 43 -171.5t162 -64.5q58 0 106.5 28.5t77 83t28.5 127.5v552h261v-564q0 -87 11.5 -151t30 -112t51.5 -112zM488 1180q-51 27 -80.5 74
t-29.5 105q0 60 30 109t82.5 77t117.5 28q64 0 115.5 -27t81.5 -74.5t30 -106.5q0 -60 -30.5 -108.5t-83.5 -76t-119 -27.5q-63 0 -114 27zM667 1306q24 23 24 57t-24 57.5t-59 23.5q-37 0 -61.5 -23t-24.5 -58q0 -34 24.5 -57t61.5 -23q35 0 59 23z" />
    <glyph glyph-name="v" unicode="v" horiz-adv-x="1067" 
d="M8 974h283l209 -629q7 -20 19.5 -77.5t14.5 -73.5h4q2 20 13.5 76t16.5 71l216 633h279l-391 -979h-294z" />
    <glyph glyph-name="w" unicode="w" horiz-adv-x="1582" 
d="M19 974h270l165 -647q3 -19 7 -51t6 -55h8q2 21 8 60.5t10 50.5l196 642h250l177 -655q4 -18 8.5 -51.5t5.5 -47.5h8q2 18 6.5 52t7.5 45l160 657l251 1l-299 -980h-278l-175 605q-3 13 -8 49t-7 55h-4q-2 -19 -8.5 -55t-9.5 -48l-186 -606h-273z" />
    <glyph glyph-name="wacute" unicode="&#x1e83;" horiz-adv-x="1582" 
d="M19 974h270l165 -647q3 -19 7 -51t6 -55h8q2 21 8 60.5t10 50.5l196 642h250l177 -655q4 -18 8.5 -51.5t5.5 -47.5h8q2 18 6.5 52t7.5 45l160 657l251 1l-299 -980h-278l-175 605q-3 13 -8 49t-7 55h-4q-2 -19 -8.5 -55t-9.5 -48l-186 -606h-273zM875 1521h272l-276 -324
h-224z" />
    <glyph glyph-name="wcircumflex" unicode="&#x175;" horiz-adv-x="1582" 
d="M19 974h270l165 -647q3 -19 7 -51t6 -55h8q2 21 8 60.5t10 50.5l196 642h250l177 -655q4 -18 8.5 -51.5t5.5 -47.5h8q2 18 6.5 52t7.5 45l160 657l251 1l-299 -980h-278l-175 605q-3 13 -8 49t-7 55h-4q-2 -19 -8.5 -55t-9.5 -48l-186 -606h-273zM686 1524h209l230 -327
h-206l-133 175l-126 -175h-203z" />
    <glyph glyph-name="wdieresis" unicode="&#x1e85;" horiz-adv-x="1582" 
d="M19 974h270l165 -647q3 -19 7 -51t6 -55h8q2 21 8 60.5t10 50.5l196 642h250l177 -655q4 -18 8.5 -51.5t5.5 -47.5h8q2 18 6.5 52t7.5 45l160 657l251 1l-299 -980h-278l-175 605q-3 13 -8 49t-7 55h-4q-2 -19 -8.5 -55t-9.5 -48l-186 -606h-273zM463.5 1208.5
q-41.5 38.5 -41.5 102.5q0 65 41 102.5t111 37.5t111.5 -37.5t41.5 -102.5t-41 -103t-111 -38t-111.5 38.5zM898 1208q-41 38 -41 103t40.5 102.5t110.5 37.5t111.5 -37.5t41.5 -102.5t-41 -103t-111 -38t-111 38z" />
    <glyph glyph-name="wgrave" unicode="&#x1e81;" horiz-adv-x="1582" 
d="M19 974h270l165 -647q3 -19 7 -51t6 -55h8q2 21 8 60.5t10 50.5l196 642h250l177 -655q4 -18 8.5 -51.5t5.5 -47.5h8q2 18 6.5 52t7.5 45l160 657l251 1l-299 -980h-278l-175 605q-3 13 -8 49t-7 55h-4q-2 -19 -8.5 -55t-9.5 -48l-186 -606h-273zM474 1538h266l167 -341
h-230z" />
    <glyph glyph-name="x" unicode="x" horiz-adv-x="1067" 
d="M393 485l-351 489h285l214 -330h4l222 330h286l-360 -475l361 -499h-295l-220 327h-4l-219 -327h-296z" />
    <glyph glyph-name="y" unicode="y" horiz-adv-x="1065" 
d="M73 -242q126 19 197.5 64.5t118.5 135.5l18 47l-405 969h298l218 -625l20 -78h6l20 76l229 627l274 2l-455 -1114q-62 -131 -137.5 -200t-150 -94.5t-189.5 -45.5l-25 -4z" />
    <glyph glyph-name="yacute" unicode="&#xfd;" horiz-adv-x="1065" 
d="M73 -242q126 19 197.5 64.5t118.5 135.5l18 47l-405 969h298l218 -625l20 -78h6l20 76l229 627l274 2l-455 -1114q-62 -131 -137.5 -200t-150 -94.5t-189.5 -45.5l-25 -4zM616 1521h272l-276 -324h-224z" />
    <glyph glyph-name="ycircumflex" unicode="&#x177;" horiz-adv-x="1065" 
d="M73 -242q126 19 197.5 64.5t118.5 135.5l18 47l-405 969h298l218 -625l20 -78h6l20 76l229 627l274 2l-455 -1114q-62 -131 -137.5 -200t-150 -94.5t-189.5 -45.5l-25 -4zM427 1524h209l230 -327h-206l-133 175l-126 -175h-203z" />
    <glyph glyph-name="ydieresis" unicode="&#xff;" horiz-adv-x="1065" 
d="M73 -242q126 19 197.5 64.5t118.5 135.5l18 47l-405 969h298l218 -625l20 -78h6l20 76l229 627l274 2l-455 -1114q-62 -131 -137.5 -200t-150 -94.5t-189.5 -45.5l-25 -4zM204.5 1208.5q-41.5 38.5 -41.5 102.5q0 65 41 102.5t111 37.5t111.5 -37.5t41.5 -102.5t-41 -103
t-111 -38t-111.5 38.5zM639 1208q-41 38 -41 103t40.5 102.5t110.5 37.5t111.5 -37.5t41.5 -102.5t-41 -103t-111 -38t-111 38z" />
    <glyph glyph-name="ygrave" unicode="&#x1ef3;" horiz-adv-x="1065" 
d="M73 -242q126 19 197.5 64.5t118.5 135.5l18 47l-405 969h298l218 -625l20 -78h6l20 76l229 627l274 2l-455 -1114q-62 -131 -137.5 -200t-150 -94.5t-189.5 -45.5l-25 -4zM215 1538h266l167 -341h-230z" />
    <glyph glyph-name="z" unicode="z" horiz-adv-x="963" 
d="M40 51l511 708h-471v215h838v-47l-496 -725h499v-202h-881v51z" />
    <glyph glyph-name="zacute" unicode="&#x17a;" horiz-adv-x="963" 
d="M40 51l511 708h-471v215h838v-47l-496 -725h499v-202h-881v51zM572 1521h272l-276 -324h-224z" />
    <glyph glyph-name="zcaron" unicode="&#x17e;" horiz-adv-x="963" 
d="M40 51l511 708h-471v215h838v-47l-496 -725h499v-202h-881v51zM154 1523h175l158 -201l159 201h176l-230 -326h-209z" />
    <glyph glyph-name="zdotaccent" unicode="&#x17c;" horiz-adv-x="963" 
d="M40 51l511 708h-471v215h838v-47l-496 -725h499v-202h-881v51zM406.5 1185q-37.5 20 -59.5 55t-22 76q0 42 21.5 76t59 53t83.5 19q71 0 117 -41.5t46 -106.5q0 -42 -21 -76.5t-58 -54.5t-84 -20q-45 0 -82.5 20z" />
    <glyph glyph-name="zero" unicode="0" horiz-adv-x="1153" 
d="M309.5 57q-105.5 84 -160.5 244t-55 386q0 244 58.5 417t171 263.5t270.5 90.5v-2q148 0 252.5 -86t159 -251t54.5 -397q0 -237 -58.5 -405t-170 -256t-268.5 -88q-148 0 -253.5 84zM581 207q100 0 155 130.5t55 368.5q0 248 -53.5 383.5t-150.5 135.5q-71 0 -121 -62.5
t-76 -181.5t-26 -287q0 -154 25.5 -263.5t74 -167t116.5 -57.5z" />
    <glyph glyph-name="one" unicode="1" horiz-adv-x="1153" 
d="M552 1174l-322 -84l-49 230l481 146h142l1 -1467h-253v1175z" />
    <glyph glyph-name="two" unicode="2" horiz-adv-x="1153" 
d="M115 61q0 165 48 279.5t115.5 184t175.5 152.5q83 64 129.5 108.5t78 107t31.5 145.5q0 184 -228 184q-63 0 -129.5 -11.5t-141.5 -29.5l-41 -9l-26 246l41 7q79 16 158 26.5t162 10.5q201 0 332 -86t131 -303q0 -138 -44 -238t-106 -164.5t-160 -143.5q-71 -57 -111 -96
t-66.5 -88t-26.5 -109h569v-234h-891v61z" />
    <glyph glyph-name="three" unicode="3" horiz-adv-x="1153" 
d="M180 243q45 -14 114 -25t139 -11q127 0 210 42t83 141q0 228 -379 228l-6 245q334 0 334 211q0 95 -69.5 133.5t-176.5 38.5q-94 0 -208 -25l-18 210l27 4q74 11 135.5 18t131.5 7q191 0 318 -75.5t127 -269.5q0 -284 -260 -364v-4q99 -11 168.5 -60.5t105 -123.5
t35.5 -158q0 -237 -152 -331.5t-373 -94.5q-95 0 -182.5 13.5t-131.5 26.5z" />
    <glyph glyph-name="four" unicode="4" horiz-adv-x="1153" 
d="M710 266h-674v162l662 1006l242 -1v-960h158v-207h-158v-267h-230v267zM710 473v582l-383 -582h383z" />
    <glyph glyph-name="five" unicode="5" horiz-adv-x="1153" 
d="M174 257q41 -16 124.5 -32.5t165.5 -16.5q125 0 205 50t80 170q0 113 -82.5 171t-221.5 58q-42 0 -123.5 -4t-123.5 -8l35 789h703l-3 -241h-460l-17 -315l39 2q36 3 57 3q152 0 254 -57t151.5 -156.5t49.5 -228.5q0 -254 -153 -358t-374 -104q-75 0 -146 9.5t-122 23
t-69 24.5z" />
    <glyph glyph-name="six" unicode="6" horiz-adv-x="1153" 
d="M874 843.5q93 -63.5 136.5 -165t43.5 -215.5q0 -155 -61.5 -265.5t-166 -167t-232.5 -56.5q-280 0 -383 192.5t-103 463.5q0 290 65 471.5t197 267.5t338 86q106 0 238 -23l-30 -244q-93 15 -167 15q-135 0 -215.5 -46.5t-117.5 -130.5t-46 -207q112 88 269 88
q142 0 235 -63.5zM755 273q47 65 47 166q0 93 -51.5 157t-161.5 64q-134 5 -220 -56q3 -121 14 -197t61.5 -137.5t157.5 -61.5q106 0 153 65z" />
    <glyph glyph-name="seven" unicode="7" horiz-adv-x="1153" 
d="M766 1189h-635v245h950l2 -93l-469 -1341h-266z" />
    <glyph glyph-name="eight" unicode="8" horiz-adv-x="1153" 
d="M323.5 31.5q-109.5 54.5 -168 150.5t-58.5 218q0 86 37.5 161t102.5 130.5t146 84.5q-101 52 -162 136.5t-61 177.5q0 105 51.5 189t147 131.5t222.5 47.5q117 0 212 -44t150 -127.5t55 -196.5q0 -92 -59 -176.5t-157 -137.5q79 -29 142 -85t99.5 -131t36.5 -160
q0 -122 -58.5 -218.5t-167 -150.5t-254.5 -54q-147 0 -256.5 54.5zM667 927q37 21 59 61t22 93q0 75 -43 124.5t-117 49.5q-52 0 -91.5 -22.5t-61.5 -62t-22 -89.5q0 -48 21 -88t60.5 -63.5t91.5 -23.5q44 0 81 21zM705.5 215q50.5 30 76.5 82t26 116q0 68 -30 118t-81 76.5
t-113 26.5q-69 0 -120 -29.5t-77.5 -79.5t-26.5 -111q0 -72 29 -123.5t80 -78.5t116 -27q70 0 120.5 30z" />
    <glyph glyph-name="nine" unicode="9" horiz-adv-x="1153" 
d="M923 1289.5q113 -169.5 113 -490.5q0 -381 -132.5 -601.5t-460.5 -220.5q-94 0 -201 19l20 249q91 -19 166 -19q170 0 249 97.5t98 287.5q-91 -81 -274 -81q-108 0 -201.5 52.5t-150 156t-56.5 249.5q0 136 56.5 243t161.5 167.5t244 60.5q255 0 368 -169.5zM783 854
q-4 139 -27 221.5t-71 120.5t-128 38q-108 0 -154.5 -63t-46.5 -160q0 -82 28.5 -138.5t77.5 -84t111 -27.5q139 0 210 93z" />
    <glyph glyph-name="onehalf" unicode="&#xbd;" horiz-adv-x="1953" 
d="M343 -20l912 1500l204 -87l-912 -1500zM353 1181l-237 -76l-49 206l394 139h121l1 -863h-230v594zM1203 61q0 58 26 106t63 83.5t98 84.5q52 42 80.5 69t48.5 60t20 70q0 121 -139 121q-72 0 -162 -30l-26 209l32 6q65 13 121 21.5t117 8.5q135 0 221.5 -60.5
t86.5 -213.5q0 -61 -25.5 -115t-60 -94t-86.5 -91q-23 -22 -43 -43t-29 -36h289v-217h-632v61z" />
    <glyph glyph-name="onequarter" unicode="&#xbc;" horiz-adv-x="1919" 
d="M344 -20l912 1500l204 -87l-912 -1500zM350 1181l-237 -76l-50 206l394 139h122l1 -863h-230v594zM1503 176h-403v165l336 513l256 -1v-510h122v-167h-122v-177h-189v177zM1503 343v259l-175 -259h175z" />
    <glyph glyph-name="threequarters" unicode="&#xbe;" horiz-adv-x="1987" 
d="M396 -20l913 1500l203 -87l-912 -1500zM128 596l26 189q92 -28 195 -28q52 0 80 19.5t28 54.5q0 43 -54 66t-150 23l-4 176q90 0 139 25t49 71q0 34 -19.5 52t-54.5 18q-98 0 -182 -28l-26 183q97 37 239 37q82 0 142.5 -25t93.5 -70.5t33 -105.5q0 -82 -40.5 -140
t-116.5 -84v-4q90 -23 138 -79t48 -140q0 -72 -42 -127t-118 -85.5t-175 -30.5q-136 0 -229 33zM1554 176h-403v165l335 513l256 -1v-510h122v-167h-122v-177h-188v177zM1554 343v259l-176 -259h176z" />
    <glyph glyph-name="uni00B9" unicode="&#xb9;" horiz-adv-x="778" 
d="M352 1476l-238 -76l-49 207l394 139h122l1 -863h-230v593z" />
    <glyph glyph-name="uni00B2" unicode="&#xb2;" horiz-adv-x="802" 
d="M98 946q0 58 26 106t62.5 83t97.5 85q52 42 80.5 69t48.5 60t20 70q0 66 -38.5 93.5t-99.5 27.5q-72 0 -162 -30l-26 209l32 6q65 13 121 21.5t117 8.5q135 0 221.5 -60.5t86.5 -213.5q0 -61 -25.5 -115t-60 -94t-86.5 -91q-23 -22 -43 -43t-29 -36h289v-217h-632v61z
" />
    <glyph glyph-name="uni00B3" unicode="&#xb3;" horiz-adv-x="802" 
d="M131 896l27 189q92 -28 194 -28q52 0 80 19.5t28 54.5q0 43 -53.5 66.5t-149.5 23.5l-4 175q90 0 138.5 25t48.5 72q0 33 -19 51t-55 18q-99 0 -181 -28l-27 183q97 37 239 37q82 0 142.5 -25t93.5 -70.5t33 -105.5q0 -82 -40.5 -140t-115.5 -84v-4q90 -22 137.5 -78.5
t47.5 -140.5q0 -72 -42 -127t-117.5 -85.5t-175.5 -30.5q-132 0 -229 33z" />
    <glyph glyph-name="asterisk" unicode="*" horiz-adv-x="906" 
d="M598 1078l215 -104l-85 -148l-198 135l17 -239h-169l16 239l-198 -135l-84 148l216 104l-216 104l84 148l198 -135l-16 239h169l-17 -239l198 135l85 -148z" />
    <glyph glyph-name="backslash" unicode="\" horiz-adv-x="854" 
d="M-15 1437l218 71l669 -1674l-214 -71z" />
    <glyph glyph-name="periodcentered" unicode="&#xb7;" horiz-adv-x="518" 
d="M143 449q-40 39 -40 104t40 105t107 40q66 0 106.5 -40t40.5 -105q0 -64 -40.5 -103.5t-106.5 -39.5q-67 0 -107 39z" />
    <glyph glyph-name="bullet" unicode="&#x2022;" horiz-adv-x="854" 
d="M560.5 279.5q61.5 36.5 98 98t36.5 133.5t-36 133.5t-98 97.5t-134 36q-73 0 -134.5 -36t-97.5 -97.5t-36 -133.5q0 -73 36 -134.5t98 -97.5t134 -36t133.5 36.5z" />
    <glyph glyph-name="colon" unicode=":" horiz-adv-x="518" 
d="M173 714q-38 22 -59.5 59.5t-21.5 83.5q0 48 22 85.5t60 59t86 21.5t86 -21.5t59.5 -59.5t21.5 -85t-21.5 -85t-60.5 -59t-88 -21q-46 0 -84 22zM173 -2q-38 22 -59.5 60t-21.5 84q0 48 22 85.5t60 59t86 21.5t86 -21.5t59.5 -59.5t21.5 -85q0 -48 -21.5 -85.5t-60.5 -59
t-88 -21.5q-46 0 -84 22z" />
    <glyph glyph-name="comma" unicode="," horiz-adv-x="518" 
d="M32 -187q65 109 97.5 211.5t39.5 210.5h240q0 -151 -46.5 -289.5t-133.5 -236.5z" />
    <glyph glyph-name="ellipsis" unicode="&#x2026;" horiz-adv-x="1746" 
d="M184 17q-40 39 -40 104t40 105t107 40q66 0 106.5 -40t40.5 -105q0 -64 -40.5 -103.5t-106.5 -39.5q-67 0 -107 39zM765 17q-40 39 -40 104t40 105t107 40q66 0 106.5 -40t40.5 -105q0 -64 -40.5 -103.5t-106.5 -39.5q-67 0 -107 39zM1347 17q-40 39 -40 104t40 105
t107 40q66 0 106.5 -40t40.5 -105q0 -64 -40.5 -103.5t-106.5 -39.5q-67 0 -107 39z" />
    <glyph glyph-name="exclam" unicode="!" horiz-adv-x="641" 
d="M206 1434h238l-19 -1017h-201zM213 17q-40 39 -40 104t40 105t107 40q66 0 106.5 -40t40.5 -105q0 -64 -40.5 -103.5t-106.5 -39.5q-67 0 -107 39z" />
    <glyph glyph-name="exclamdown" unicode="&#xa1;" horiz-adv-x="641" 
d="M435 -431h-238l19 1017h201zM428 986q40 -39 40 -104t-40 -105t-107 -40q-66 0 -106.5 40t-40.5 105q0 64 40.5 103.5t106.5 39.5q67 0 107 -39z" />
    <glyph glyph-name="numbersign" unicode="#" horiz-adv-x="1212" 
d="M919 898l-54 -253h238l-29 -167h-245l-76 -355h-180l76 355h-211l-76 -359h-180l75 359h-223l29 167h229l53 253h-241l29 167h247l77 369h183l-78 -369h212l80 373h180l-79 -373h218l-29 -167h-225zM739 898h-212l-54 -253h212z" />
    <glyph glyph-name="period" unicode="." horiz-adv-x="518" 
d="M159 17q-40 39 -40 104t40 105t107 40q66 0 106.5 -40t40.5 -105q0 -64 -40.5 -103.5t-106.5 -39.5q-67 0 -107 39z" />
    <glyph glyph-name="question" unicode="?" horiz-adv-x="904" 
d="M288 522q0 104 23.5 172t57 105.5t87.5 80.5q41 33 64 57t38.5 60t15.5 88q0 76 -43.5 118t-123.5 43q-98 0 -246 -35l-37 209q66 18 143.5 28t152.5 10q189 0 292.5 -91t103.5 -257q0 -100 -24.5 -167t-59.5 -106t-92 -84q-45 -36 -70.5 -62t-43 -66t-17.5 -97v-168
h-221v162zM296 17q-40 39 -40 104t40 105t107 40t107.5 -40t40.5 -105q0 -64 -40.5 -103.5t-107.5 -39.5t-107 39z" />
    <glyph glyph-name="questiondown" unicode="&#xbf;" horiz-adv-x="904" 
d="M633 461q0 -104 -23.5 -172t-57 -105.5t-87.5 -80.5q-41 -33 -64 -57t-38.5 -60t-15.5 -88q0 -76 43.5 -118t123.5 -43q98 0 246 35l37 -209q-66 -18 -143.5 -28t-152.5 -10q-189 0 -292.5 91t-103.5 257q0 100 24.5 167t59.5 106t92 84q45 36 70.5 62t43 66t17.5 97v168
h221v-162zM625 966q40 -39 40 -104t-40 -105t-107 -40t-107.5 40t-40.5 105q0 64 40.5 103.5t107.5 39.5t107 -39z" />
    <glyph glyph-name="quotedbl" unicode="&#x22;" horiz-adv-x="941" 
d="M182 1468h208v-468h-208v468zM551 1468h208v-468h-208v468z" />
    <glyph glyph-name="quotesingle" unicode="'" horiz-adv-x="557" 
d="M171 1468h208v-468h-208v468z" />
    <glyph glyph-name="semicolon" unicode=";" horiz-adv-x="518" 
d="M176 734.5q-37 21.5 -58.5 59.5t-21.5 83q0 46 21.5 83t59.5 58t84 21q47 0 84.5 -21t58.5 -58t21 -83q0 -47 -21.5 -84.5t-59.5 -58.5t-86 -21q-45 0 -82 21.5zM59 -187q65 109 97.5 211.5t39.5 210.5h240q-1 -151 -47.5 -290t-132.5 -236z" />
    <glyph glyph-name="slash" unicode="/" horiz-adv-x="871" 
d="M879 1437l-218 71l-669 -1674l214 -71z" />
    <glyph glyph-name="underscore" unicode="_" horiz-adv-x="850" 
d="M17 -103h816v-193h-816v193z" />
    <glyph glyph-name="braceleft" unicode="{" horiz-adv-x="710" 
d="M416.5 -290.5q-83.5 34.5 -123.5 110.5t-40 201v260q0 190 -153 193v161q153 5 153 200v246q0 126 40 203.5t123 113t217 36.5v-167q-160 -1 -160 -182v-240q0 -230 -152 -288v-4q152 -55 152 -290v-233q0 -102 37 -145t123 -44v-167q-133 1 -216.5 35.5z" />
    <glyph glyph-name="braceright" unicode="}" horiz-adv-x="710" 
d="M287.5 -290.5q83.5 34.5 123.5 110.5t40 201v260q0 190 153 193v161q-153 5 -153 200v246q0 126 -40 203.5t-123 113t-217 36.5v-167q160 -1 160 -182v-240q0 -230 152 -288v-4q-152 -55 -152 -290v-233q0 -102 -37 -145t-123 -44v-167q133 1 216.5 35.5z" />
    <glyph glyph-name="bracketleft" unicode="[" horiz-adv-x="710" 
d="M211 1434h436v-174h-214v-1412h214v-174h-436v1760z" />
    <glyph glyph-name="bracketright" unicode="]" horiz-adv-x="710" 
d="M500 1434h-436v-174h214v-1412h-214v-174h436v1760z" />
    <glyph glyph-name="parenleft" unicode="(" horiz-adv-x="710" 
d="M230 69.5q-75 205.5 -75 479.5q0 264 74 472t239 403l156 -100q-122 -183 -177.5 -366.5t-55.5 -408.5q0 -221 54.5 -401.5t176.5 -360.5l-151 -106q-166 183 -241 388.5z" />
    <glyph glyph-name="parenright" unicode=")" horiz-adv-x="710" 
d="M488 69.5q75 205.5 75 479.5q0 264 -74 472t-239 403l-156 -100q122 -183 177.5 -366.5t55.5 -408.5q0 -221 -54.5 -401.5t-176.5 -360.5l151 -106q166 183 241 388.5z" />
    <glyph glyph-name="emdash" unicode="&#x2014;" horiz-adv-x="2048" 
d="M2024 423h-2024v190h2024v-190z" />
    <glyph glyph-name="endash" unicode="&#x2013;" horiz-adv-x="1024" 
d="M1024 423h-1024v190h1024v-190z" />
    <glyph glyph-name="hyphen" unicode="-" horiz-adv-x="825" 
d="M143 613h547v-190h-547v190z" />
    <glyph glyph-name="uni00AD" unicode="&#xad;" horiz-adv-x="825" 
d="M143 613h547v-190h-547v190z" />
    <glyph glyph-name="guillemotleft" unicode="&#xab;" horiz-adv-x="1139" 
d="M53 487l319 344h278l-324 -344l324 -336h-278zM494 487l320 344h278l-325 -344l324 -336h-277z" />
    <glyph glyph-name="guillemotright" unicode="&#xbb;" horiz-adv-x="1139" 
d="M60 151l324 336l-325 344h278l320 -344l-320 -336h-277zM508 151l324 336l-325 344h278l320 -344l-320 -336h-277z" />
    <glyph glyph-name="guilsinglleft" unicode="&#x2039;" horiz-adv-x="686" 
d="M66 487l320 344h278l-325 -344l324 -336h-277z" />
    <glyph glyph-name="guilsinglright" unicode="&#x203a;" horiz-adv-x="686" 
d="M620 487l-320 344h-278l325 -344l-324 -336h277z" />
    <glyph glyph-name="quotedblbase" unicode="&#x201e;" horiz-adv-x="931" 
d="M448 -187q65 109 97.5 211.5t39.5 210.5h240q0 -151 -46.5 -289.5t-133.5 -236.5zM45 -187q65 109 97.5 211.5t39.5 210.5h240q0 -151 -46.5 -289.5t-133.5 -236.5z" />
    <glyph glyph-name="quotedblleft" unicode="&#x201c;" horiz-adv-x="931" 
d="M472 1400q-65 -109 -97.5 -211.5t-39.5 -210.5h-240q1 151 47.5 290t132.5 236zM850 1400q-64 -108 -96.5 -210.5t-40.5 -211.5h-240q1 151 47.5 289.5t132.5 236.5z" />
    <glyph glyph-name="quotedblright" unicode="&#x201d;" horiz-adv-x="931" 
d="M86 1042q65 109 97.5 211.5t39.5 210.5h240q0 -150 -46.5 -288.5t-133.5 -236.5zM465 1042q64 108 96.5 211t40.5 211h240q-1 -150 -47.5 -288.5t-132.5 -236.5z" />
    <glyph glyph-name="quoteleft" unicode="&#x2018;" horiz-adv-x="552" 
d="M473 1400q-65 -109 -97.5 -211.5t-39.5 -210.5h-240q0 151 46.5 289.5t133.5 236.5z" />
    <glyph glyph-name="quoteright" unicode="&#x2019;" horiz-adv-x="552" 
d="M123 1043q65 109 97.5 211.5t39.5 210.5h240q0 -151 -46.5 -289.5t-133.5 -236.5z" />
    <glyph glyph-name="quotesinglbase" unicode="&#x201a;" horiz-adv-x="552" 
d="M52 -187q65 109 97.5 211.5t39.5 210.5h240q0 -151 -46.5 -289.5t-133.5 -236.5z" />
    <glyph glyph-name="uni000D" unicode="&#xd;" horiz-adv-x="199" 
 />
    <glyph glyph-name="cent" unicode="&#xa2;" horiz-adv-x="1164" 
d="M796 -14v-188l-223 -1v186q-126 17 -215.5 82.5t-136.5 172t-47 247.5q0 138 46.5 245t136 174.5t216.5 86.5v259l223 1v-258q123 -13 211 -51l-47 -219q-109 41 -226 41q-150 0 -217.5 -69t-67.5 -205q0 -144 72.5 -214.5t210.5 -70.5q59 0 104.5 10.5t118.5 34.5
l65 -212q-108 -35 -224 -52z" />
    <glyph glyph-name="currency" unicode="&#xa4;" horiz-adv-x="1139" 
d="M67 202l141 137q-69 111 -69 232q0 123 69 231l-141 139l126 129l141 -140q108 69 235 69q130 0 235 -69l142 140l125 -129l-140 -139q71 -112 71 -231q0 -117 -71 -232l140 -137l-125 -128l-141 140q-105 -69 -236 -69q-130 0 -235 69l-141 -140zM687.5 372.5
q53.5 30.5 84.5 83.5t31 117q0 63 -31.5 116t-85 83.5t-117.5 30.5t-117 -30.5t-83.5 -83t-30.5 -116.5t30.5 -117t83.5 -83.5t117 -30.5q65 0 118.5 30.5z" />
    <glyph glyph-name="dollar" unicode="$" horiz-adv-x="1153" 
d="M452.5 973q29.5 -32 75 -54.5t127.5 -54.5q127 -51 208.5 -97t140.5 -131.5t59 -216.5q0 -167 -91.5 -277t-260.5 -145v-207h-233v195q-91 7 -180.5 34t-200.5 79l91 236q118 -59 198 -81t165 -22q132 0 192.5 49.5t60.5 132.5q0 50 -33.5 86t-85 60.5t-141.5 58.5
q-127 48 -208 91.5t-139 122t-58 199.5q0 166 93 267.5t246 136.5v185h233v-168q155 -11 304 -72l-85 -230l-25 9q-62 24 -116 37t-130 13q-98 0 -167 -39t-69 -122q0 -43 29.5 -75z" />
    <glyph glyph-name="Euro" unicode="&#x20ac;" horiz-adv-x="1153" 
d="M1094 65q-70 -39 -159.5 -62t-171.5 -23q-218 0 -358 127t-186 364h-112v173h92q-2 44 -2 69q0 27 2 79h-92v172h114q50 240 199.5 368t381.5 128q63 0 132 -12t129 -32l-62 -237q-34 16 -90 26t-104 10q-113 0 -191 -64.5t-116 -186.5h435v-172h-465q-2 -23 -2 -71
q0 -29 2 -77h465v-173h-435q37 -119 111.5 -182.5t181.5 -63.5q94 0 232 70z" />
    <glyph glyph-name="florin" unicode="&#x192;" horiz-adv-x="1153" 
d="M80 -277l45 204q27 -9 62 -9q126 0 159 225l89 596h-104v190h136l24 172q15 103 67 180t135.5 119t188.5 42q78 0 145 -22l-37 -204q-38 11 -88 11q-125 0 -148 -138l-26 -160h161v-190h-190l-91 -612q-30 -201 -134.5 -312t-266.5 -111q-60 0 -127 19z" />
    <glyph glyph-name="sterling" unicode="&#xa3;" horiz-adv-x="1153" 
d="M960 203v-203h-835v203q111 43 158.5 128.5t47.5 177.5v110h-180v186l180 1v195q0 211 97.5 332t345.5 121q78 0 177 -32l-16 -198q-97 29 -148 29q-84 0 -129.5 -27t-62.5 -78.5t-17 -136.5v-204h218v-188h-218v-103q-2 -80 -43 -163t-123 -150h548z" />
    <glyph glyph-name="yen" unicode="&#xa5;" horiz-adv-x="1153" 
d="M787 691h241v-180h-304v-138h304v-180h-304v-193h-262v193h-332v180h332v138h-332v180h264l-344 743h296l216 -523q6 -15 16 -44t19 -57h3q3 11 11.5 34t12.5 34l13 33l200 523h280z" />
    <glyph glyph-name="asciitilde" unicode="~" horiz-adv-x="1432" 
d="M240.5 549q37.5 87 105 133.5t159.5 46.5q54 0 106.5 -20.5t125.5 -59.5q63 -34 104.5 -51t79.5 -17q49 0 76.5 41.5t29.5 112.5h208q-4 -119 -42 -206t-104.5 -133.5t-155.5 -46.5q-55 0 -106 20.5t-124 59.5q-63 34 -103 50t-78 16q-115 0 -121 -152h-201
q3 119 40.5 206z" />
    <glyph glyph-name="divide" unicode="&#xf7;" horiz-adv-x="1432" 
d="M653.5 862q-31.5 18 -50 49.5t-18.5 68.5q0 61 39 101.5t99 40.5q63 0 99 -38t36 -102q0 -40 -18 -71.5t-49 -49t-68 -17.5q-38 0 -69.5 18zM236 700h963v-220h-963v220zM649.5 77q-31.5 18 -50 48.5t-18.5 66.5q0 62 39 103.5t99 41.5q62 0 98.5 -38.5t36.5 -103.5
q0 -59 -39 -97.5t-96 -38.5q-38 0 -69.5 18z" />
    <glyph glyph-name="equal" unicode="=" horiz-adv-x="1432" 
d="M236 882h963v-221h-963v221zM236 436h963v-219h-963v219z" />
    <glyph glyph-name="greater" unicode="&#x3e;" horiz-adv-x="1432" 
d="M263 341l560 242v4l-560 263v255l909 -456v-128l-909 -428v248z" />
    <glyph glyph-name="less" unicode="&#x3c;" horiz-adv-x="1432" 
d="M1172 341l-560 242v4l560 263v255l-909 -456v-128l909 -428v248z" />
    <glyph glyph-name="logicalnot" unicode="&#xac;" horiz-adv-x="1432" 
d="M960 605h-724v239h963v-595h-239v356z" />
    <glyph glyph-name="mu" unicode="&#xb5;" horiz-adv-x="1231" 
d="M917 -39q-43 86 -69 182q-13 -36 -52 -74t-105.5 -64.5t-154.5 -26.5q-71 0 -130 14v-388h-264v744v20v605h265v-554q0 -107 43 -171.5t162 -64.5q58 0 106.5 28.5t77 83t28.5 127.5v552h261v-564q0 -87 11.5 -151t30 -112t51.5 -112z" />
    <glyph glyph-name="multiply" unicode="&#xd7;" horiz-adv-x="1432" 
d="M237 253l340 336l-340 340l139 142l342 -340l341 340l138 -146l-339 -336l340 -338l-141 -140l-339 333l-339 -333z" />
    <glyph glyph-name="percent" unicode="%" horiz-adv-x="1743" 
d="M306 -20l913 1500l203 -87l-912 -1500zM250.5 794.5q-76.5 44.5 -120 121.5t-43.5 172q0 100 47 181.5t128.5 128.5t182.5 47q94 0 169.5 -43.5t119 -119.5t43.5 -169q0 -102 -46.5 -185t-128 -130.5t-181.5 -47.5q-94 0 -170.5 44.5zM493 974q27 20 42.5 54.5t15.5 76.5
q0 58 -32.5 97t-79.5 39q-53 0 -88 -41.5t-35 -102.5t33.5 -102t83.5 -41q33 0 60 20zM1129.5 34.5q-76.5 44.5 -120.5 121.5t-44 172q0 100 47 181.5t128.5 128.5t182.5 47q94 0 170 -43.5t119.5 -119.5t43.5 -169q0 -102 -46.5 -185t-128 -130.5t-181.5 -47.5
q-94 0 -170.5 44.5zM1371 214q27 20 42.5 55t15.5 77q0 58 -32 96.5t-80 38.5q-52 0 -87 -41t-35 -102t33 -102.5t83 -41.5q33 0 60 20z" />
    <glyph glyph-name="perthousand" unicode="&#x2030;" horiz-adv-x="2541" 
d="M306 -20l913 1500l203 -87l-912 -1500zM250.5 794.5q-76.5 44.5 -120 121.5t-43.5 172q0 100 47 181.5t128.5 128.5t182.5 47q94 0 169.5 -43.5t119 -119.5t43.5 -169q0 -102 -46.5 -185t-128 -130.5t-181.5 -47.5q-94 0 -170.5 44.5zM493 974q27 20 42.5 54.5t15.5 76.5
q0 58 -32.5 97t-79.5 39q-53 0 -88 -41.5t-35 -102.5t33.5 -102t83.5 -41q33 0 60 20zM1129.5 34.5q-76.5 44.5 -120.5 121.5t-44 172q0 100 47 181.5t128.5 128.5t182.5 47q94 0 170 -43.5t119.5 -119.5t43.5 -169q0 -102 -46.5 -185t-128 -130.5t-181.5 -47.5
q-94 0 -170.5 44.5zM1930.5 33.5q-76.5 44.5 -120.5 121.5t-44 172q0 100 47 181.5t128.5 128.5t182.5 47q94 0 170 -43.5t119.5 -119.5t43.5 -169q0 -102 -46.5 -185t-128 -130.5t-181.5 -47.5q-94 0 -170.5 44.5zM1371 214q27 20 42.5 55t15.5 77q0 58 -32 96.5t-80 38.5
q-52 0 -87 -41t-35 -102t33 -102.5t83 -41.5q33 0 60 20zM2172 214q27 20 42.5 54.5t15.5 76.5q0 58 -32 96.5t-80 38.5q-52 0 -87 -41t-35 -102t33 -102t83 -41q33 0 60 20z" />
    <glyph glyph-name="plus" unicode="+" horiz-adv-x="1432" 
d="M608 480h-385v220h385v386h219v-386h385v-220h-385v-384h-219v384z" />
    <glyph glyph-name="plusminus" unicode="&#xb1;" horiz-adv-x="1432" 
d="M608 668h-385v220h385v385h219v-385h385v-220h-385v-385h-219v385zM223 220h988v-220h-988v220z" />
    <glyph glyph-name="bar" unicode="|" horiz-adv-x="609" 
d="M190 1567h231v-2048h-231v2048z" />
    <glyph glyph-name="brokenbar" unicode="&#xa6;" horiz-adv-x="609" 
d="M190 1567h231v-873h-231v873zM190 399h231v-880h-231v880z" />
    <glyph glyph-name="at" unicode="@" horiz-adv-x="1955" 
d="M1755 215.5q-56 -132.5 -174.5 -195.5t-309.5 -63h-1q-51 105 -73 200q-19 -50 -65 -92t-108 -67t-125 -25q-102 0 -182.5 31t-127.5 96t-47 162q0 101 50.5 174.5t143.5 113t218 39.5q112 0 223 -53v64q0 92 -48 134.5t-140 42.5q-50 0 -142.5 -10.5t-171.5 -27.5
l-28 218q141 20 221 29.5t134 9.5q211 0 320.5 -96t110.5 -286l2 -288q1 -84 23 -167q79 43 116.5 139t37.5 253q0 220 -64 356.5t-199 201.5t-352 65q-225 0 -365.5 -73t-207 -227.5t-66.5 -402.5q0 -241 69.5 -391.5t216 -221.5t381.5 -71q147 0 270 26.5t249 85.5
l63 -174q-119 -68 -256.5 -99t-323.5 -31q-310 0 -503.5 91.5t-285 285t-91.5 503.5q0 312 88.5 506t274.5 286t485 92q288 0 467 -83t264 -258t85 -456q0 -214 -56 -346.5zM1071.5 197.5q50.5 24.5 78 66.5t27.5 94v1q-92 27 -198 27q-84 0 -133 -30.5t-48 -84.5
q0 -44 44 -71t114 -27q65 0 115.5 24.5z" />
    <glyph glyph-name="ampersand" unicode="&#x26;" horiz-adv-x="1706" 
d="M1611 -42q-275 92 -508 227q-132 -99 -275 -153.5t-281 -54.5q-134 0 -231.5 46.5t-148.5 129t-51 189.5q0 98 48.5 170t125 121.5t187.5 98.5q-126 187 -126 345q0 182 107.5 282t304.5 100q190 0 293 -97t103 -275q0 -141 -90 -239.5t-246 -182.5q114 -112 268 -215
q82 85 151 190.5t120 221.5l184 -96q-48 -119 -117.5 -228t-155.5 -201q195 -110 410 -194zM688 824q116 56 178.5 119.5t62.5 154.5q0 85 -44 133t-122 48q-80 0 -124.5 -53.5t-44.5 -148.5q0 -117 94 -253zM751.5 214.5q84.5 30.5 167.5 87.5q-177 124 -306 260
q-83 -41 -136.5 -74t-86 -72t-32.5 -84q0 -69 61 -108.5t168 -39.5q80 0 164.5 30.5z" />
    <glyph glyph-name="paragraph" unicode="&#xb6;" horiz-adv-x="1008" 
d="M401 825q-100 2 -173 40t-112.5 106t-39.5 158q0 94 36 163t103 105.5t158 36.5h549v-142h-101v-1292h-154v1292h-102v-1292h-164v825z" />
    <glyph glyph-name="copyright" unicode="&#xa9;" horiz-adv-x="1801" 
d="M512 68.5q-173 96.5 -272 266t-99 379.5q0 207 101 378.5t276 270t387 98.5t384.5 -97t272 -267t99.5 -380q0 -207 -101 -377.5t-276 -269t-385 -98.5q-214 0 -387 96.5zM1193.5 216.5q131.5 75.5 207 207t75.5 292.5q0 163 -75 295t-206 207.5t-293 75.5
q-163 0 -295 -75.5t-206.5 -207.5t-74.5 -294q0 -163 75.5 -294.5t207 -206.5t293.5 -75q160 0 291.5 75.5zM694 360.5q-87 48.5 -133 138.5t-46 214q0 123 46.5 214.5t136 141.5t215.5 49q71 1 140.5 -11t118.5 -33l-37 -173q-87 33 -178 33q-119 0 -172 -54.5t-53 -162.5
q0 -225 223 -225q46 0 81 8t95 28l51 -167q-69 -23 -142 -36t-138 -13q-121 0 -208 48.5z" />
    <glyph glyph-name="registered" unicode="&#xae;" horiz-adv-x="1801" 
d="M1289.5 1364q172.5 -97 272 -267t99.5 -380q0 -207 -101 -377.5t-276 -269t-385 -98.5q-214 0 -387 96.5t-272 266t-99 379.5q0 207 101 378.5t276 270t387 98.5t384.5 -97zM1193.5 216.5q131.5 75.5 207 207t75.5 292.5q0 163 -75 295t-206 207.5t-293 75.5
q-163 0 -295 -75.5t-206.5 -207.5t-74.5 -294q0 -163 75.5 -294.5t207 -206.5t293.5 -75q160 0 291.5 75.5zM1154 755.5q-40 -54.5 -108 -79.5l204 -321h-213l-187 301h-19v-301h-183v758h303q112 0 177.5 -59t65.5 -169q0 -75 -40 -129.5zM831 784h57q51 0 77.5 19t26.5 62
q0 54 -23.5 77.5t-69.5 23.5l-68 -1v-181z" />
    <glyph glyph-name="section" unicode="&#xa7;" horiz-adv-x="969" 
d="M834 243q0 -160 -102 -242.5t-301 -82.5q-166 2 -342 78l67 197q163 -72 275 -74q78 1 120.5 33t41.5 84q0 35 -23 58t-56.5 38t-95.5 35q-91 30 -149 59t-100.5 88.5t-42.5 155.5q1 195 130 278q-62 40 -97.5 97.5t-36.5 141.5q0 151 92.5 229t269.5 78q188 0 323 -60
l-57 -205q-128 57 -246 57q-65 -1 -98 -27t-35 -85q0 -35 22.5 -59.5t57 -40.5t93.5 -38q91 -34 149.5 -66t101 -94.5t42.5 -162.5q0 -173 -116 -252q112 -77 113 -218zM352.5 632q29.5 -30 69 -47t123.5 -46q98 43 98 145q0 56 -38.5 92t-110.5 66q-83 -5 -126.5 -39
t-44.5 -96q0 -45 29.5 -75z" />
    <glyph glyph-name="trademark" unicode="&#x2122;" horiz-adv-x="1580" 
d="M237 1249h-158v185h508v-185h-158v-474h-192v474zM660 1434h217l149 -401h4l158 401h207v-662h-159v399h-4l-156 -399h-110l-145 399h-5v-399h-156v662z" />
    <glyph glyph-name="degree" unicode="&#xb0;" horiz-adv-x="776" 
d="M251 933q-64 37 -101 101t-37 143q0 78 36.5 141.5t101 100t143.5 36.5t144 -36.5t102 -100t37 -141.5q0 -79 -37 -143t-102 -101t-144 -37t-143 37zM488 1081.5q38 38.5 38 95.5q0 56 -38 94t-94 38t-93.5 -38t-37.5 -94q0 -57 37.5 -95.5t93.5 -38.5t94 38.5z" />
    <glyph glyph-name="asciicircum" unicode="^" horiz-adv-x="1432" 
d="M639 1458h130l455 -843h-225l-289 570h-5l-270 -570h-223z" />
    <glyph glyph-name="dagger" unicode="&#x2020;" horiz-adv-x="811" 
d="M498 1091l30 343h-245l30 -343l-275 26v-216l255 20l29 -579h166l30 579l257 -20v216z" />
    <glyph glyph-name="daggerdbl" unicode="&#x2021;" horiz-adv-x="811" 
d="M518 955l-22 -173l22 -174l257 20v-216l-277 27l30 -310h-245l30 310l-275 -27v216l255 -20l22 174l-22 173l-255 -20v216l275 -27l-30 310h245l-30 -310l277 27v-216z" />
    <glyph glyph-name="acutecomb" unicode="&#x301;" 
d="M-286 1521h272l-276 -324h-224z" />
    <glyph glyph-name="uni0306" unicode="&#x306;" 
d="M-503 1224.5q-70 37.5 -110 105t-43 155.5h186q12 -121 130 -121q55 0 88.5 31t40.5 90h188q-7 -90 -49 -157.5t-112 -104t-159 -36.5q-90 0 -160 37.5z" />
    <glyph glyph-name="uni030C" unicode="&#x30c;" 
d="M-721 1523h175l158 -201l159 201h176l-230 -326h-209z" />
    <glyph glyph-name="uni0327" unicode="&#x327;" 
d="M-361 -444v129q38 -6 72 -6q122 0 122 68q0 65 -110 65q-12 0 -39 -3v254h151v-152q92 -3 140 -44.5t48 -117.5q0 -196 -303 -196q-43 0 -81 3z" />
    <glyph glyph-name="uni0302" unicode="&#x302;" 
d="M-497 1524h209l230 -327h-206l-133 175l-126 -175h-203z" />
    <glyph glyph-name="uni0326" unicode="&#x326;" 
d="M-445 -552q65 109 97.5 211.5t39.5 210.5h240q0 -150 -46.5 -288.5t-133.5 -236.5z" />
    <glyph glyph-name="uni0312" unicode="&#x312;" 
d="M-17 1580q-59 -102 -89.5 -199.5t-37.5 -199.5h-220q1 144 45 277t125 225z" />
    <glyph glyph-name="uni0308" unicode="&#x308;" 
d="M-789.5 1208.5q-41.5 38.5 -41.5 102.5q0 65 41 102.5t111 37.5t111.5 -37.5t41.5 -102.5t-41 -103t-111 -38t-111.5 38.5zM-355 1208q-41 38 -41 103t40.5 102.5t110.5 37.5t111.5 -37.5t41.5 -102.5t-41 -103t-111 -38t-111 38z" />
    <glyph glyph-name="uni0307" unicode="&#x307;" 
d="M-323.5 1185q-37.5 20 -59.5 55t-22 76q0 42 21.5 76t59 53t83.5 19q71 0 117 -41.5t46 -106.5q0 -42 -21 -76.5t-58 -54.5t-84 -20q-45 0 -82.5 20z" />
    <glyph glyph-name="gravecomb" unicode="&#x300;" 
d="M-498 1538h266l167 -341h-230z" />
    <glyph glyph-name="uni030B" unicode="&#x30b;" 
d="M-523 1515h208l-245 -318h-173zM-191 1515h211l-250 -318h-172z" />
    <glyph glyph-name="uni0304" unicode="&#x304;" 
d="M-833 1382h816v-193h-816v193z" />
    <glyph glyph-name="uni0328" unicode="&#x328;" 
d="M-432 -237q0 53 33 109.5t95 127.5h205q-136 -97 -136 -163q0 -40 23 -59.5t72 -19.5q34 0 65 11l25 -165q-76 -17 -181 -17q-201 0 -201 176z" />
    <glyph glyph-name="uni030A" unicode="&#x30a;" 
d="M-398 1180q-51 27 -80.5 74t-29.5 105q0 60 30 109t82.5 77t117.5 28q64 0 115.5 -27t81.5 -74.5t30 -106.5q0 -60 -30.5 -108.5t-83.5 -76t-119 -27.5q-63 0 -114 27zM-219 1306q24 23 24 57t-24 57.5t-59 23.5q-37 0 -61.5 -23t-24.5 -58q0 -34 24.5 -57t61.5 -23
q35 0 59 23z" />
    <glyph glyph-name="uni0336" unicode="&#x336;" 
d="M9 1199h1512v-188h-1512v188z" />
    <glyph glyph-name="uni0335" unicode="&#x335;" 
d="M59 826h671v-203h-671v203z" />
    <glyph glyph-name="tildecomb" unicode="&#x303;" 
d="M-282 1201q-34 13 -87 40q-39 20 -64 30t-44 10q-76 0 -76 -90h-158q0 129 52.5 201.5t147.5 72.5q35 0 68.5 -13.5t80.5 -38.5q41 -22 67 -32.5t51 -10.5q70 0 70 92h156q0 -128 -53 -201t-145 -73q-32 0 -66 13z" />
    <glyph glyph-name="glyph337" 
d="M-279 1516h229l-136 -325h-128z" />
    <glyph glyph-name="acute" unicode="&#xb4;" horiz-adv-x="607" 
d="M289 1521h273l-276 -324h-224z" />
    <glyph glyph-name="breve" unicode="&#x2d8;" horiz-adv-x="680" 
d="M177 1224.5q-70 37.5 -110 105t-43 155.5h186q12 -121 130 -121q55 0 88.5 31t40.5 90h188q-7 -90 -49 -157.5t-112 -104t-159 -36.5q-90 0 -160 37.5z" />
    <glyph glyph-name="caron" unicode="&#x2c7;" horiz-adv-x="777" 
d="M56 1523h175l158 -201l159 201h176l-230 -326h-209z" />
    <glyph glyph-name="cedilla" unicode="&#xb8;" horiz-adv-x="434" 
d="M51 -444v129q38 -6 71 -6q123 0 123 68q0 65 -111 65q-11 0 -38 -3v254h151v-152q92 -3 140 -44.5t48 -117.5q0 -196 -304 -196q-43 0 -80 3z" />
    <glyph glyph-name="circumflex" unicode="&#x2c6;" horiz-adv-x="777" 
d="M280 1524h209l230 -327h-206l-133 175l-126 -175h-203z" />
    <glyph glyph-name="dieresis" unicode="&#xa8;" horiz-adv-x="913" 
d="M123.5 1208.5q-41.5 38.5 -41.5 102.5q0 65 41 102.5t111 37.5t111.5 -37.5t41.5 -102.5t-41 -103t-111 -38t-111.5 38.5zM558 1208q-41 38 -41 103t40.5 102.5t110.5 37.5t111.5 -37.5t41.5 -102.5t-41 -103t-111 -38t-111 38z" />
    <glyph glyph-name="dotaccent" unicode="&#x2d9;" horiz-adv-x="483" 
d="M159.5 1185q-37.5 20 -59.5 55t-22 76q0 42 21.5 76t59 53t83.5 19q71 0 117 -41.5t46 -106.5q0 -42 -21 -76.5t-58 -54.5t-84 -20q-45 0 -82.5 20z" />
    <glyph glyph-name="grave" unicode="`" horiz-adv-x="612" 
d="M144 1538h267l167 -341h-231z" />
    <glyph glyph-name="hungarumlaut" unicode="&#x2dd;" horiz-adv-x="776" 
d="M253 1515h208l-245 -318h-173zM585 1515h211l-250 -318h-172z" />
    <glyph glyph-name="macron" unicode="&#xaf;" horiz-adv-x="850" 
d="M17 1382h816v-193h-816v193z" />
    <glyph glyph-name="ogonek" unicode="&#x2db;" horiz-adv-x="490" 
d="M58 -237q0 53 33 109.5t95 127.5h205q-136 -97 -136 -163q0 -40 23 -59.5t72 -19.5q34 0 65 11l25 -165q-76 -17 -181 -17q-201 0 -201 176z" />
    <glyph glyph-name="ring" unicode="&#x2da;" horiz-adv-x="561" 
d="M163 1210q-51 27 -80.5 74t-29.5 105q0 60 30 109t82.5 77t117.5 28q64 0 115.5 -27t81.5 -74.5t30 -106.5q0 -60 -30.5 -108.5t-83.5 -76t-119 -27.5q-63 0 -114 27zM342 1336q24 23 24 57t-24 57.5t-59 23.5q-37 0 -61.5 -23t-24.5 -58q0 -34 24.5 -57t61.5 -23
q35 0 59 23z" />
    <glyph glyph-name="tilde" unicode="&#x2dc;" horiz-adv-x="753" 
d="M471 1201q-34 13 -87 40q-39 20 -64 30t-44 10q-76 0 -76 -90h-158q0 129 52.5 201.5t147.5 72.5q35 0 68.5 -13.5t80.5 -38.5q41 -22 67 -32.5t51 -10.5q70 0 70 92h156q0 -128 -53 -201t-145 -73q-32 0 -66 13z" />
    <glyph glyph-name="glyph351" horiz-adv-x="536" 
d="M83 1042q42 108 63.5 211t26.5 211h234q-1 -151 -35.5 -289.5t-98.5 -235.5z" />
  </font>
</defs>
</svg>
