<svg xmlns="http://www.w3.org/2000/svg" viewBox="0 0 158 100"><defs><style>.cls-1{fill:#fff;}</style></defs><title>selectRow</title><g id="Layer_2" data-name="Layer 2"><g id="Layer_1-2" data-name="Layer 1"><g id="rotatedSelector"><path class="cls-1" d="M50,99.5A49.5,49.5,0,1,1,92.86,25.25l.15.25H157.5v49H93l-.15.25A49.67,49.67,0,0,1,50,99.5Z"/><path d="M50,1A49.19,49.19,0,0,1,92.43,25.5l.29.5H157V74H92.72l-.29.5A49,49,0,1,1,50,1m0-1A50,50,0,1,0,93.29,75H158V25H93.29A50,50,0,0,0,50,0Z"/></g></g></g></svg>